<svg width="132" height="44" viewBox="0 0 132 44" fill="none" xmlns="http://www.w3.org/2000/svg">
<circle opacity="0.7" cx="22" cy="22" r="18" stroke="white" stroke-opacity="0.15" stroke-width="6"/>
<path opacity="0.7" d="M37 22C37 23.6569 38.3431 25 40 25C41.6569 25 43 23.6569 43 22H40H37ZM22 4V7C30.2843 7 37 13.7157 37 22H40H43C43 10.402 33.598 1 22 1V4Z" fill="white" fill-opacity="0.4"/>
<circle cx="22" cy="22" r="11" stroke="white" stroke-opacity="0.15" stroke-width="6"/>
<path d="M14 22C14 20.3431 12.6569 19 11 19C9.34315 19 8 20.3431 8 22H11H14ZM33 22H30C30 26.4183 26.4183 30 22 30V33V36C29.732 36 36 29.732 36 22H33ZM22 33V30C17.5817 30 14 26.4183 14 22H11H8C8 29.732 14.268 36 22 36V33ZM22 11V14C26.4183 14 30 17.5817 30 22H33H36C36 14.268 29.732 8 22 8V11Z" fill="white" fill-opacity="0.5"/>
<circle cx="22" cy="33" r="2.75" fill="white"/>
<circle cx="22" cy="40" r="2.75" fill="white"/>
<path d="M66.5781 33.4531C62.7812 33.4531 60.0156 31.1875 59.375 27.7031H61.5625C62.1094 30 64.0156 31.5469 66.6094 31.5469C70.5938 31.5469 72.8594 27.9062 73.0156 21.5938C73.0312 21.4375 72.9375 21.2344 72.9219 21.0781C72.9219 21.0781 72.8906 21.0781 72.875 21.0781C72.875 21.0781 72.8438 21.0781 72.8281 21.0781C71.8594 23.5625 69.3594 25.2188 66.4062 25.2188C62.0938 25.2188 58.9688 22.0469 58.9688 17.75C58.9688 13.2656 62.2188 9.98438 66.7344 9.98438C69.7812 9.98438 72.1875 11.5156 73.5938 14.3125C74.5938 16.0625 75.0938 18.375 75.0938 21.25C75.0938 28.8906 71.9688 33.4531 66.5781 33.4531ZM66.75 23.3594C69.9844 23.3594 72.4531 20.9219 72.4531 17.8125C72.4531 14.4688 70 11.875 66.7656 11.875C63.5469 11.875 61.125 14.3906 61.125 17.6875C61.125 20.9531 63.4375 23.3594 66.75 23.3594ZM86.7031 33.4531C82.9062 33.4531 80.1406 31.1875 79.5 27.7031H81.6875C82.2344 30 84.1406 31.5469 86.7344 31.5469C90.7188 31.5469 92.9844 27.9062 93.1406 21.5938C93.1562 21.4375 93.0625 21.2344 93.0469 21.0781C93.0469 21.0781 93.0156 21.0781 93 21.0781C93 21.0781 92.9688 21.0781 92.9531 21.0781C91.9844 23.5625 89.4844 25.2188 86.5312 25.2188C82.2188 25.2188 79.0938 22.0469 79.0938 17.75C79.0938 13.2656 82.3438 9.98438 86.8594 9.98438C89.9062 9.98438 92.3125 11.5156 93.7188 14.3125C94.7188 16.0625 95.2188 18.375 95.2188 21.25C95.2188 28.8906 92.0938 33.4531 86.7031 33.4531ZM86.875 23.3594C90.1094 23.3594 92.5781 20.9219 92.5781 17.8125C92.5781 14.4688 90.125 11.875 86.8906 11.875C83.6719 11.875 81.25 14.3906 81.25 17.6875C81.25 20.9531 83.5625 23.3594 86.875 23.3594ZM108.031 15.4219C108.031 18.5625 106.125 20.75 103.391 20.75C100.656 20.75 98.7344 18.5625 98.7344 15.4219C98.7344 12.3125 100.641 10.125 103.391 10.125C106.125 10.125 108.031 12.2969 108.031 15.4219ZM103.391 19.1719C105.016 19.1719 106.109 17.6719 106.109 15.4219C106.109 13.1406 105.047 11.6875 103.391 11.6875C101.734 11.6875 100.641 13.1719 100.641 15.4219C100.641 17.6875 101.75 19.1719 103.391 19.1719ZM102.672 33H100.438L109.047 21.3438L117.078 10.4531H119.281L110.578 22.2656L102.672 33ZM120.922 28C120.922 31.1406 119.016 33.3281 116.281 33.3281C113.547 33.3281 111.625 31.1406 111.625 28C111.625 24.8906 113.531 22.7031 116.281 22.7031C119.016 22.7031 120.922 24.875 120.922 28ZM116.281 31.7656C117.906 31.7656 119 30.25 119 28C119 25.7344 117.938 24.2812 116.281 24.2812C114.625 24.2812 113.531 25.75 113.531 28C113.531 30.2656 114.641 31.7656 116.281 31.7656Z" fill="white"/>
</svg>
