<svg width="44" height="44" viewBox="0 0 44 44" fill="none" xmlns="http://www.w3.org/2000/svg">
<circle opacity="0.7" cx="22" cy="22" r="18" stroke="white" stroke-opacity="0.15" stroke-width="6"/>
<path opacity="0.7" d="M37 22C37 23.6569 38.3431 25 40 25C41.6569 25 43 23.6569 43 22H40H37ZM22 4V7C30.2843 7 37 13.7157 37 22H40H43C43 10.402 33.598 1 22 1V4Z" fill="white" fill-opacity="0.4"/>
<circle cx="22" cy="22" r="11" stroke="white" stroke-opacity="0.15" stroke-width="6"/>
<path d="M14 22C14 20.3431 12.6569 19 11 19C9.34315 19 8 20.3431 8 22H11H14ZM33 22H30C30 26.4183 26.4183 30 22 30V33V36C29.732 36 36 29.732 36 22H33ZM22 33V30C17.5817 30 14 26.4183 14 22H11H8C8 29.732 14.268 36 22 36V33ZM22 11V14C26.4183 14 30 17.5817 30 22H33H36C36 14.268 29.732 8 22 8V11Z" fill="white" fill-opacity="0.5"/>
<circle cx="22" cy="33" r="2.75" fill="white"/>
<circle cx="22" cy="40" r="2.75" fill="white"/>
</svg>
