<svg width="512" height="512" viewBox="0 0 512 512" fill="none" xmlns="http://www.w3.org/2000/svg">
<path d="M0 38.5882C0 17.2765 17.2765 0 38.5882 0H473.412C494.723 0 512 17.2765 512 38.5882V473.412C512 494.723 494.723 512 473.412 512H38.5882C17.2765 512 0 494.723 0 473.412V38.5882Z" fill="url(#paint0_linear_583_22193)"/>
<path d="M113.633 359.288V327.984L107.697 328.208C105.905 328.283 104.505 328.525 103.497 328.936C102.527 329.347 101.78 330.093 101.257 331.176C100.772 332.221 100.361 333.752 100.025 335.768H98.2892L98.7932 325.464C99.8759 325.576 101.127 325.669 102.545 325.744C104.001 325.781 105.439 325.8 106.857 325.8H125.673C126.868 325.8 128.193 325.781 129.649 325.744C131.143 325.669 132.505 325.576 133.737 325.464L134.241 335.768H132.505C132.169 333.752 131.74 332.221 131.217 331.176C130.732 330.093 129.985 329.347 128.977 328.936C128.007 328.525 126.625 328.283 124.833 328.208L118.897 327.984V359.288C118.897 360.147 119.009 360.856 119.233 361.416C119.457 361.939 119.868 362.331 120.465 362.592C121.1 362.853 121.959 363.04 123.041 363.152L124.777 363.32V365H107.753V363.32L109.489 363.152C110.609 363.04 111.468 362.853 112.065 362.592C112.663 362.331 113.073 361.939 113.297 361.416C113.521 360.856 113.633 360.147 113.633 359.288ZM147.347 365.56C144.36 365.56 141.728 364.925 139.451 363.656C137.174 362.387 135.4 360.613 134.131 358.336C132.862 356.059 132.227 353.427 132.227 350.44C132.227 347.603 132.862 345.045 134.131 342.768C135.4 340.491 137.155 338.68 139.395 337.336C141.672 335.992 144.323 335.32 147.347 335.32C150.371 335.32 153.022 335.955 155.299 337.224C157.576 338.493 159.35 340.267 160.619 342.544C161.888 344.784 162.523 347.397 162.523 350.384C162.523 353.221 161.888 355.797 160.619 358.112C159.35 360.389 157.576 362.2 155.299 363.544C153.059 364.888 150.408 365.56 147.347 365.56ZM148.243 363.376C150.782 363.376 152.891 362.424 154.571 360.52C156.251 358.616 157.091 355.741 157.091 351.896C157.091 349.357 156.68 347.005 155.859 344.84C155.075 342.637 153.899 340.864 152.331 339.52C150.763 338.176 148.822 337.504 146.507 337.504C143.968 337.504 141.859 338.456 140.179 340.36C138.499 342.264 137.659 345.157 137.659 349.04C137.659 351.541 138.051 353.893 138.835 356.096C139.656 358.261 140.851 360.016 142.419 361.36C143.987 362.704 145.928 363.376 148.243 363.376ZM165.339 365V363.32L167.019 363.04C168.139 362.853 168.885 362.555 169.259 362.144C169.632 361.696 169.819 360.893 169.819 359.736V327.704C169.819 326.509 169.557 325.669 169.035 325.184C168.512 324.661 167.317 324.288 165.451 324.064V322.664L174.075 320.2H174.859V359.736C174.859 360.893 175.045 361.696 175.419 362.144C175.792 362.555 176.539 362.853 177.659 363.04L179.339 363.32V365H165.339ZM182.755 365V363.32L183.987 363.264C185.107 363.189 185.797 362.947 186.059 362.536C186.357 362.125 186.395 361.603 186.171 360.968C185.947 360.333 185.611 359.661 185.163 358.952L178.891 348.76L182.475 345.512L190.707 358.952C191.603 360.408 192.443 361.472 193.227 362.144C194.048 362.779 194.888 363.133 195.747 363.208L196.867 363.32V365H182.755ZM173.067 355.76L171.499 354.304L185.051 341.536C186.357 340.341 186.936 339.408 186.787 338.736C186.637 338.027 185.835 337.653 184.379 337.616L183.035 337.56V335.88H196.867V337.56C195.373 337.635 194.104 337.877 193.059 338.288C192.013 338.661 190.949 339.333 189.867 340.304L173.067 355.76ZM211.465 365.56C208.703 365.56 206.276 364.925 204.185 363.656C202.095 362.349 200.471 360.595 199.313 358.392C198.193 356.189 197.633 353.707 197.633 350.944C197.633 347.92 198.287 345.232 199.593 342.88C200.937 340.528 202.729 338.68 204.969 337.336C207.209 335.992 209.673 335.32 212.361 335.32C215.311 335.32 217.681 336.16 219.473 337.84C221.265 339.52 222.161 341.965 222.161 345.176C222.161 345.4 222.161 345.643 222.161 345.904C222.161 346.128 222.124 346.445 222.049 346.856L221.937 347.64H201.833V345.512H216.617C216.729 344.765 216.785 344.075 216.785 343.44C216.785 341.573 216.3 340.117 215.329 339.072C214.359 338.027 212.959 337.504 211.129 337.504C208.628 337.504 206.593 338.493 205.025 340.472C203.495 342.451 202.729 345.101 202.729 348.424C202.729 350.925 203.177 353.184 204.073 355.2C205.007 357.179 206.313 358.747 207.993 359.904C209.711 361.024 211.727 361.584 214.041 361.584C215.348 361.584 216.617 361.36 217.849 360.912C219.081 360.464 220.388 359.717 221.769 358.672L222.889 359.736C221.097 361.789 219.287 363.283 217.457 364.216C215.628 365.112 213.631 365.56 211.465 365.56ZM225.779 365V363.32L227.459 363.04C228.579 362.853 229.326 362.555 229.699 362.144C230.072 361.696 230.259 360.893 230.259 359.736V343.048C230.259 341.853 229.998 341.013 229.475 340.528C228.952 340.005 227.758 339.632 225.891 339.408V338.008L234.347 335.544H235.131V339.632H235.467C237.259 338.064 238.92 336.963 240.451 336.328C241.982 335.656 243.774 335.32 245.827 335.32C248.478 335.32 250.55 335.992 252.043 337.336C253.574 338.643 254.339 340.509 254.339 342.936V359.736C254.339 360.893 254.526 361.696 254.899 362.144C255.272 362.555 256.019 362.853 257.139 363.04L258.819 363.32V365H244.819V363.32L246.499 363.04C247.619 362.853 248.366 362.555 248.739 362.144C249.112 361.696 249.299 360.893 249.299 359.736V344.616C249.299 343.235 249.056 342.115 248.571 341.256C248.086 340.397 247.358 339.763 246.387 339.352C245.454 338.904 244.24 338.68 242.747 338.68C241.291 338.68 239.984 338.941 238.827 339.464C237.67 339.949 236.494 340.733 235.299 341.816V359.736C235.299 360.893 235.486 361.696 235.859 362.144C236.232 362.555 236.979 362.853 238.099 363.04L239.779 363.32V365H225.779ZM276.628 365.56C273.642 365.56 271.01 364.925 268.732 363.656C266.455 362.387 264.682 360.613 263.412 358.336C262.143 356.059 261.508 353.427 261.508 350.44C261.508 347.603 262.143 345.045 263.412 342.768C264.682 340.491 266.436 338.68 268.676 337.336C270.954 335.992 273.604 335.32 276.628 335.32C279.652 335.32 282.303 335.955 284.58 337.224C286.858 338.493 288.631 340.267 289.9 342.544C291.17 344.784 291.804 347.397 291.804 350.384C291.804 353.221 291.17 355.797 289.9 358.112C288.631 360.389 286.858 362.2 284.58 363.544C282.34 364.888 279.69 365.56 276.628 365.56ZM277.524 363.376C280.063 363.376 282.172 362.424 283.852 360.52C285.532 358.616 286.372 355.741 286.372 351.896C286.372 349.357 285.962 347.005 285.14 344.84C284.356 342.637 283.18 340.864 281.612 339.52C280.044 338.176 278.103 337.504 275.788 337.504C273.25 337.504 271.14 338.456 269.46 340.36C267.78 342.264 266.94 345.157 266.94 349.04C266.94 351.541 267.332 353.893 268.116 356.096C268.938 358.261 270.132 360.016 271.7 361.36C273.268 362.704 275.21 363.376 277.524 363.376ZM295.068 365V363.32L296.748 363.04C297.868 362.853 298.615 362.555 298.988 362.144C299.361 361.696 299.548 360.893 299.548 359.736V343.048C299.548 341.853 299.287 341.013 298.764 340.528C298.241 340.005 297.047 339.632 295.18 339.408V338.008L303.636 335.544H304.42V339.632H304.756C306.548 338.064 308.191 336.963 309.684 336.328C311.177 335.656 312.783 335.32 314.5 335.32C316.143 335.32 317.599 335.656 318.868 336.328C320.175 336.963 321.071 338.12 321.556 339.8H321.836C323.777 338.157 325.495 337 326.988 336.328C328.519 335.656 330.143 335.32 331.86 335.32C333.241 335.32 334.492 335.544 335.612 335.992C336.732 336.403 337.628 337.112 338.3 338.12C338.972 339.091 339.308 340.453 339.308 342.208V359.736C339.308 360.893 339.495 361.696 339.868 362.144C340.241 362.555 340.988 362.853 342.108 363.04L343.788 363.32V365H329.788V363.32L331.468 363.04C332.588 362.853 333.335 362.555 333.708 362.144C334.081 361.696 334.268 360.893 334.268 359.736V343.888C334.268 342.395 334.044 341.275 333.596 340.528C333.185 339.781 332.607 339.296 331.86 339.072C331.113 338.811 330.255 338.68 329.284 338.68C327.903 338.68 326.652 338.941 325.532 339.464C324.412 339.949 323.217 340.733 321.948 341.816V359.736C321.948 360.893 322.135 361.696 322.508 362.144C322.881 362.555 323.628 362.853 324.748 363.04L326.428 363.32V365H312.428V363.32L314.108 363.04C315.228 362.853 315.975 362.555 316.348 362.144C316.721 361.696 316.908 360.893 316.908 359.736V343.888C316.908 342.395 316.684 341.275 316.236 340.528C315.825 339.781 315.247 339.296 314.5 339.072C313.753 338.811 312.895 338.68 311.924 338.68C310.543 338.68 309.273 338.941 308.116 339.464C306.959 339.949 305.783 340.733 304.588 341.816V359.736C304.588 360.893 304.775 361.696 305.148 362.144C305.521 362.555 306.268 362.853 307.388 363.04L309.068 363.32V365H295.068ZM345.763 365V363.32L347.443 363.04C348.563 362.853 349.31 362.555 349.683 362.144C350.057 361.696 350.243 360.893 350.243 359.736V343.048C350.243 341.853 349.982 341.013 349.459 340.528C348.937 340.005 347.742 339.632 345.875 339.408V338.008L354.499 335.544H355.283V359.736C355.283 360.893 355.47 361.696 355.843 362.144C356.217 362.555 356.963 362.853 358.083 363.04L359.763 363.32V365H345.763ZM352.203 331.232C351.27 331.232 350.486 330.933 349.851 330.336C349.217 329.701 348.899 328.899 348.899 327.928C348.899 326.957 349.217 326.173 349.851 325.576C350.486 324.979 351.27 324.68 352.203 324.68C353.099 324.68 353.865 324.979 354.499 325.576C355.134 326.173 355.451 326.957 355.451 327.928C355.451 328.899 355.134 329.701 354.499 330.336C353.865 330.933 353.099 331.232 352.203 331.232ZM376.625 365.56C373.9 365.56 371.473 364.925 369.345 363.656C367.255 362.349 365.612 360.595 364.417 358.392C363.223 356.152 362.625 353.632 362.625 350.832C362.625 347.845 363.279 345.195 364.585 342.88C365.929 340.528 367.759 338.68 370.073 337.336C372.388 335.992 375.001 335.32 377.913 335.32C379.855 335.32 381.535 335.581 382.953 336.104C384.409 336.627 385.529 337.261 386.313 338.008C387.135 338.755 387.545 339.464 387.545 340.136C387.545 340.733 387.247 341.237 386.649 341.648C386.052 342.021 385.399 342.245 384.689 342.32C383.98 342.395 383.439 342.283 383.065 341.984L379.481 338.792C378.996 338.344 378.511 338.045 378.025 337.896C377.54 337.709 376.924 337.616 376.177 337.616C374.46 337.616 372.967 338.12 371.697 339.128C370.428 340.136 369.439 341.499 368.729 343.216C368.057 344.896 367.721 346.781 367.721 348.872C367.721 351.336 368.188 353.52 369.121 355.424C370.092 357.328 371.417 358.84 373.097 359.96C374.815 361.043 376.756 361.584 378.921 361.584C380.228 361.584 381.516 361.36 382.785 360.912C384.055 360.464 385.38 359.717 386.761 358.672L387.881 359.736C386.127 361.789 384.335 363.283 382.505 364.216C380.676 365.112 378.716 365.56 376.625 365.56ZM400.3 365.56C398.882 365.56 397.37 365.392 395.764 365.056C394.196 364.72 392.908 364.272 391.9 363.712V356.152H393.524C393.935 358.765 394.831 360.651 396.212 361.808C397.631 362.928 399.236 363.488 401.028 363.488C402.746 363.488 404.09 363.04 405.06 362.144C406.031 361.248 406.516 360.072 406.516 358.616C406.516 357.309 406.124 356.301 405.34 355.592C404.594 354.845 403.567 354.136 402.26 353.464L398.228 351.336C395.839 350.067 394.252 348.797 393.468 347.528C392.684 346.259 392.292 344.989 392.292 343.72C392.292 342.04 392.74 340.584 393.636 339.352C394.57 338.083 395.839 337.093 397.444 336.384C399.05 335.675 400.879 335.32 402.932 335.32C404.314 335.32 405.602 335.469 406.796 335.768C408.028 336.067 409.13 336.44 410.1 336.888V343.384H408.476C408.252 342.301 407.879 341.312 407.356 340.416C406.834 339.52 406.124 338.792 405.228 338.232C404.37 337.672 403.268 337.392 401.924 337.392C400.244 337.392 398.956 337.821 398.06 338.68C397.164 339.539 396.716 340.603 396.716 341.872C396.716 342.917 397.034 343.832 397.668 344.616C398.34 345.4 399.423 346.184 400.916 346.968L404.612 348.872C406.703 349.917 408.271 351 409.316 352.12C410.399 353.24 410.94 354.733 410.94 356.6C410.94 358.541 410.436 360.184 409.428 361.528C408.42 362.835 407.095 363.843 405.452 364.552C403.847 365.224 402.13 365.56 400.3 365.56Z" fill="#0E334D"/>
<path d="M126.601 406L132.793 389.2H134.521L140.713 406H138.937L133.657 391.408L128.353 406H126.601ZM129.433 401.464L129.937 400.072H137.353L137.857 401.464H129.433ZM143.384 406V389.2H145.064V406H143.384ZM159.319 406V390.592H154.279V389.2H166.039V390.592H160.999V406H159.319ZM171.653 406.288C170.549 406.288 169.549 406.032 168.653 405.52C167.773 404.992 167.077 404.256 166.565 403.312C166.053 402.352 165.797 401.24 165.797 399.976C165.797 398.664 166.053 397.536 166.565 396.592C167.093 395.648 167.805 394.92 168.701 394.408C169.597 393.88 170.597 393.616 171.701 393.616C172.853 393.616 173.869 393.88 174.749 394.408C175.629 394.92 176.325 395.648 176.837 396.592C177.349 397.536 177.605 398.664 177.605 399.976C177.605 401.24 177.341 402.352 176.813 403.312C176.301 404.256 175.597 404.992 174.701 405.52C173.821 406.032 172.805 406.288 171.653 406.288ZM171.677 404.848C172.429 404.848 173.117 404.664 173.741 404.296C174.381 403.928 174.893 403.384 175.277 402.664C175.677 401.928 175.877 401.024 175.877 399.952C175.877 398.864 175.685 397.96 175.301 397.24C174.917 396.52 174.405 395.984 173.765 395.632C173.141 395.264 172.453 395.08 171.701 395.08C170.981 395.08 170.301 395.264 169.661 395.632C169.021 396 168.501 396.544 168.101 397.264C167.717 397.968 167.525 398.864 167.525 399.952C167.525 401.024 167.717 401.928 168.101 402.664C168.485 403.384 168.989 403.928 169.613 404.296C170.253 404.664 170.941 404.848 171.677 404.848ZM187.801 406L181.873 399.376L187.297 393.904H189.385L183.361 399.928L183.385 398.8L189.961 406H187.801ZM180.481 406V388.72H182.161V406H180.481ZM196.493 406.288C195.373 406.288 194.381 406.024 193.517 405.496C192.669 404.968 191.997 404.232 191.501 403.288C191.021 402.328 190.781 401.208 190.781 399.928C190.781 398.648 191.021 397.536 191.501 396.592C191.981 395.648 192.653 394.92 193.517 394.408C194.397 393.88 195.405 393.616 196.541 393.616C197.709 393.616 198.693 393.88 199.493 394.408C200.309 394.936 200.925 395.624 201.341 396.472C201.773 397.32 201.989 398.248 201.989 399.256C201.989 399.416 201.989 399.584 201.989 399.76C201.989 399.92 201.981 400.112 201.965 400.336H192.053V398.92H200.357C200.325 397.688 199.941 396.736 199.205 396.064C198.485 395.392 197.573 395.056 196.469 395.056C195.749 395.056 195.077 395.224 194.453 395.56C193.845 395.88 193.349 396.36 192.965 397C192.597 397.624 192.413 398.416 192.413 399.376V400C192.413 401.088 192.605 401.992 192.989 402.712C193.373 403.432 193.877 403.968 194.501 404.32C195.141 404.672 195.805 404.848 196.493 404.848C197.405 404.848 198.157 404.648 198.749 404.248C199.341 403.832 199.765 403.264 200.021 402.544H201.677C201.469 403.248 201.133 403.888 200.669 404.464C200.221 405.04 199.645 405.488 198.941 405.808C198.237 406.128 197.421 406.288 196.493 406.288ZM204.739 406V393.904H206.275L206.371 396.064C206.755 395.296 207.307 394.696 208.027 394.264C208.763 393.832 209.579 393.616 210.475 393.616C211.403 393.616 212.211 393.8 212.899 394.168C213.587 394.536 214.123 395.096 214.507 395.848C214.891 396.584 215.083 397.528 215.083 398.68V406H213.403V398.872C213.403 397.592 213.123 396.64 212.563 396.016C212.003 395.392 211.203 395.08 210.163 395.08C209.459 395.08 208.819 395.256 208.243 395.608C207.683 395.944 207.235 396.44 206.899 397.096C206.579 397.752 206.419 398.56 206.419 399.52V406H204.739ZM230.944 406.288C229.808 406.288 228.776 406.064 227.848 405.616C226.936 405.168 226.208 404.472 225.664 403.528C225.12 402.568 224.848 401.352 224.848 399.88V389.2H226.528V399.904C226.528 401.04 226.712 401.976 227.08 402.712C227.464 403.432 227.992 403.96 228.664 404.296C229.336 404.632 230.104 404.8 230.968 404.8C231.848 404.8 232.616 404.632 233.272 404.296C233.928 403.96 234.44 403.432 234.808 402.712C235.176 401.976 235.36 401.04 235.36 399.904V389.2H237.04V399.88C237.04 401.352 236.768 402.568 236.224 403.528C235.68 404.472 234.944 405.168 234.016 405.616C233.104 406.064 232.08 406.288 230.944 406.288ZM244.874 406.288C243.914 406.288 243.066 406.128 242.33 405.808C241.61 405.488 241.026 405.032 240.578 404.44C240.146 403.832 239.882 403.112 239.786 402.28H241.514C241.61 402.744 241.794 403.168 242.066 403.552C242.354 403.936 242.738 404.248 243.218 404.488C243.698 404.712 244.266 404.824 244.922 404.824C245.53 404.824 246.026 404.736 246.41 404.56C246.81 404.368 247.106 404.12 247.298 403.816C247.506 403.496 247.61 403.144 247.61 402.76C247.61 402.232 247.482 401.824 247.226 401.536C246.986 401.232 246.634 401.008 246.17 400.864C245.706 400.72 245.146 400.584 244.49 400.456C243.946 400.36 243.426 400.232 242.93 400.072C242.434 399.912 241.986 399.704 241.586 399.448C241.202 399.192 240.898 398.872 240.674 398.488C240.45 398.088 240.338 397.624 240.338 397.096C240.338 396.408 240.506 395.808 240.842 395.296C241.194 394.768 241.69 394.36 242.33 394.072C242.97 393.768 243.722 393.616 244.586 393.616C245.818 393.616 246.826 393.928 247.61 394.552C248.394 395.16 248.85 396.056 248.978 397.24H247.298C247.234 396.584 246.962 396.064 246.482 395.68C246.002 395.296 245.354 395.104 244.538 395.104C243.738 395.104 243.122 395.272 242.69 395.608C242.274 395.928 242.066 396.368 242.066 396.928C242.066 397.28 242.178 397.584 242.402 397.84C242.626 398.096 242.954 398.32 243.386 398.512C243.834 398.688 244.378 398.84 245.018 398.968C245.786 399.112 246.49 399.304 247.13 399.544C247.786 399.768 248.314 400.12 248.714 400.6C249.13 401.064 249.338 401.728 249.338 402.592C249.354 403.312 249.178 403.952 248.81 404.512C248.442 405.072 247.922 405.512 247.25 405.832C246.578 406.136 245.786 406.288 244.874 406.288ZM256.181 406.288C255.205 406.288 254.389 406.112 253.733 405.76C253.093 405.408 252.613 404.952 252.293 404.392C251.989 403.832 251.837 403.216 251.837 402.544C251.837 401.712 252.045 401.008 252.461 400.432C252.893 399.856 253.493 399.424 254.261 399.136C255.029 398.848 255.925 398.704 256.949 398.704H260.213C260.213 397.92 260.093 397.256 259.853 396.712C259.613 396.168 259.261 395.76 258.797 395.488C258.333 395.2 257.749 395.056 257.045 395.056C256.229 395.056 255.525 395.264 254.933 395.68C254.341 396.096 253.973 396.704 253.829 397.504H252.077C252.173 396.656 252.461 395.944 252.941 395.368C253.437 394.792 254.045 394.36 254.765 394.072C255.485 393.768 256.245 393.616 257.045 393.616C258.165 393.616 259.077 393.832 259.781 394.264C260.485 394.68 261.013 395.256 261.365 395.992C261.717 396.728 261.893 397.576 261.893 398.536V406H260.357L260.261 403.792C260.117 404.128 259.917 404.448 259.661 404.752C259.421 405.056 259.133 405.32 258.797 405.544C258.477 405.768 258.101 405.944 257.669 406.072C257.237 406.216 256.741 406.288 256.181 406.288ZM256.373 404.824C256.965 404.824 257.493 404.704 257.957 404.464C258.437 404.208 258.845 403.88 259.181 403.48C259.517 403.08 259.773 402.632 259.949 402.136C260.125 401.624 260.213 401.096 260.213 400.552V400.12H257.069C256.221 400.12 255.541 400.224 255.029 400.432C254.517 400.64 254.149 400.92 253.925 401.272C253.701 401.624 253.589 402.032 253.589 402.496C253.589 402.96 253.693 403.368 253.901 403.72C254.109 404.056 254.421 404.328 254.837 404.536C255.269 404.728 255.781 404.824 256.373 404.824ZM269.747 411.568C268.675 411.568 267.723 411.424 266.891 411.136C266.075 410.848 265.427 410.416 264.947 409.84C264.483 409.264 264.251 408.552 264.251 407.704C264.251 407.368 264.307 407 264.419 406.6C264.547 406.216 264.787 405.824 265.139 405.424C265.491 405.024 265.987 404.664 266.627 404.344L267.995 404.944C267.147 405.344 266.595 405.776 266.339 406.24C266.083 406.72 265.955 407.152 265.955 407.536C265.955 408.112 266.115 408.592 266.435 408.976C266.771 409.36 267.219 409.648 267.779 409.84C268.355 410.048 269.011 410.152 269.747 410.152C270.483 410.152 271.115 410.04 271.643 409.816C272.187 409.608 272.603 409.304 272.891 408.904C273.179 408.52 273.323 408.072 273.323 407.56C273.323 406.968 273.091 406.464 272.627 406.048C272.179 405.648 271.339 405.416 270.107 405.352C269.131 405.288 268.323 405.208 267.683 405.112C267.059 405 266.539 404.872 266.123 404.728C265.723 404.568 265.387 404.4 265.115 404.224C264.859 404.048 264.611 403.856 264.371 403.648V403.096L266.675 400.912L268.211 401.464L265.955 403.48L266.099 402.832C266.275 402.96 266.443 403.08 266.603 403.192C266.779 403.304 267.003 403.4 267.275 403.48C267.563 403.544 267.955 403.616 268.451 403.696C268.963 403.76 269.651 403.824 270.515 403.888C271.619 403.968 272.499 404.16 273.155 404.464C273.811 404.768 274.291 405.176 274.595 405.688C274.899 406.2 275.051 406.8 275.051 407.488C275.051 408.176 274.859 408.832 274.475 409.456C274.107 410.08 273.531 410.584 272.747 410.968C271.979 411.368 270.979 411.568 269.747 411.568ZM269.723 402.16C268.699 402.16 267.835 401.968 267.131 401.584C266.443 401.2 265.915 400.688 265.547 400.048C265.179 399.392 264.995 398.672 264.995 397.888C264.995 397.088 265.179 396.368 265.547 395.728C265.915 395.088 266.451 394.576 267.155 394.192C267.859 393.808 268.715 393.616 269.723 393.616C270.747 393.616 271.603 393.808 272.291 394.192C272.995 394.576 273.523 395.088 273.875 395.728C274.243 396.368 274.427 397.088 274.427 397.888C274.427 398.672 274.243 399.392 273.875 400.048C273.523 400.688 272.995 401.2 272.291 401.584C271.603 401.968 270.747 402.16 269.723 402.16ZM269.723 400.72C270.651 400.72 271.379 400.48 271.907 400C272.451 399.504 272.723 398.8 272.723 397.888C272.723 396.96 272.451 396.256 271.907 395.776C271.379 395.296 270.651 395.056 269.723 395.056C268.795 395.056 268.051 395.296 267.491 395.776C266.947 396.256 266.675 396.96 266.675 397.888C266.675 398.8 266.947 399.504 267.491 400C268.035 400.48 268.779 400.72 269.723 400.72ZM271.691 395.416L271.091 393.904H275.987V395.272L271.691 395.416ZM283.025 406.288C281.905 406.288 280.913 406.024 280.049 405.496C279.201 404.968 278.529 404.232 278.033 403.288C277.553 402.328 277.313 401.208 277.313 399.928C277.313 398.648 277.553 397.536 278.033 396.592C278.513 395.648 279.185 394.92 280.049 394.408C280.929 393.88 281.937 393.616 283.073 393.616C284.241 393.616 285.225 393.88 286.025 394.408C286.841 394.936 287.457 395.624 287.873 396.472C288.305 397.32 288.521 398.248 288.521 399.256C288.521 399.416 288.521 399.584 288.521 399.76C288.521 399.92 288.513 400.112 288.497 400.336H278.585V398.92H286.889C286.857 397.688 286.473 396.736 285.737 396.064C285.017 395.392 284.105 395.056 283.001 395.056C282.281 395.056 281.609 395.224 280.985 395.56C280.377 395.88 279.881 396.36 279.497 397C279.129 397.624 278.945 398.416 278.945 399.376V400C278.945 401.088 279.137 401.992 279.521 402.712C279.905 403.432 280.409 403.968 281.033 404.32C281.673 404.672 282.337 404.848 283.025 404.848C283.937 404.848 284.689 404.648 285.281 404.248C285.873 403.832 286.297 403.264 286.553 402.544H288.209C288.001 403.248 287.665 403.888 287.201 404.464C286.753 405.04 286.177 405.488 285.473 405.808C284.769 406.128 283.953 406.288 283.025 406.288ZM301.96 406V390.592H296.92V389.2H308.68V390.592H303.64V406H301.96ZM309.692 406V393.904H311.228L311.348 396.232C311.604 395.672 311.948 395.2 312.38 394.816C312.812 394.432 313.332 394.136 313.94 393.928C314.548 393.72 315.236 393.616 316.004 393.616V395.368H315.356C314.844 395.368 314.348 395.44 313.868 395.584C313.388 395.712 312.964 395.936 312.596 396.256C312.228 396.576 311.932 397.008 311.708 397.552C311.484 398.096 311.372 398.776 311.372 399.592V406H309.692ZM322.228 406.288C321.252 406.288 320.436 406.112 319.78 405.76C319.14 405.408 318.66 404.952 318.34 404.392C318.036 403.832 317.884 403.216 317.884 402.544C317.884 401.712 318.092 401.008 318.508 400.432C318.94 399.856 319.54 399.424 320.308 399.136C321.076 398.848 321.972 398.704 322.996 398.704H326.26C326.26 397.92 326.14 397.256 325.9 396.712C325.66 396.168 325.308 395.76 324.844 395.488C324.38 395.2 323.796 395.056 323.092 395.056C322.276 395.056 321.572 395.264 320.98 395.68C320.388 396.096 320.02 396.704 319.876 397.504H318.124C318.22 396.656 318.508 395.944 318.988 395.368C319.484 394.792 320.092 394.36 320.812 394.072C321.532 393.768 322.292 393.616 323.092 393.616C324.212 393.616 325.124 393.832 325.828 394.264C326.532 394.68 327.06 395.256 327.412 395.992C327.764 396.728 327.94 397.576 327.94 398.536V406H326.404L326.308 403.792C326.164 404.128 325.964 404.448 325.708 404.752C325.468 405.056 325.18 405.32 324.844 405.544C324.524 405.768 324.148 405.944 323.716 406.072C323.284 406.216 322.788 406.288 322.228 406.288ZM322.42 404.824C323.012 404.824 323.54 404.704 324.004 404.464C324.484 404.208 324.892 403.88 325.228 403.48C325.564 403.08 325.82 402.632 325.996 402.136C326.172 401.624 326.26 401.096 326.26 400.552V400.12H323.116C322.268 400.12 321.588 400.224 321.076 400.432C320.564 400.64 320.196 400.92 319.972 401.272C319.748 401.624 319.636 402.032 319.636 402.496C319.636 402.96 319.74 403.368 319.948 403.72C320.156 404.056 320.468 404.328 320.884 404.536C321.316 404.728 321.828 404.824 322.42 404.824ZM336.442 406.288C335.322 406.288 334.322 406.024 333.442 405.496C332.562 404.968 331.866 404.232 331.354 403.288C330.842 402.328 330.586 401.224 330.586 399.976C330.586 398.68 330.842 397.568 331.354 396.64C331.866 395.696 332.562 394.96 333.442 394.432C334.338 393.888 335.338 393.616 336.442 393.616C337.85 393.616 339.018 393.984 339.946 394.72C340.89 395.44 341.49 396.4 341.746 397.6H340.066C339.89 396.8 339.466 396.184 338.794 395.752C338.138 395.304 337.346 395.08 336.418 395.08C335.698 395.08 335.026 395.264 334.402 395.632C333.778 395.984 333.274 396.52 332.89 397.24C332.506 397.96 332.314 398.872 332.314 399.976C332.314 400.792 332.426 401.504 332.65 402.112C332.874 402.72 333.178 403.232 333.562 403.648C333.946 404.048 334.386 404.352 334.882 404.56C335.378 404.768 335.89 404.872 336.418 404.872C337.026 404.872 337.578 404.776 338.074 404.584C338.586 404.376 339.018 404.08 339.37 403.696C339.722 403.312 339.954 402.848 340.066 402.304H341.746C341.506 403.472 340.914 404.432 339.97 405.184C339.026 405.92 337.85 406.288 336.442 406.288ZM351.958 406L346.03 399.376L351.454 393.904H353.542L347.518 399.928L347.542 398.8L354.118 406H351.958ZM344.638 406V388.72H346.318V406H344.638ZM356.526 406V393.904H358.182V406H356.526ZM357.366 391.048C357.03 391.048 356.742 390.936 356.502 390.712C356.262 390.472 356.142 390.176 356.142 389.824C356.142 389.456 356.254 389.168 356.478 388.96C356.718 388.736 357.006 388.624 357.342 388.624C357.678 388.624 357.966 388.736 358.206 388.96C358.446 389.168 358.566 389.456 358.566 389.824C358.566 390.176 358.446 390.472 358.206 390.712C357.982 390.936 357.702 391.048 357.366 391.048ZM361.841 406V393.904H363.377L363.473 396.064C363.857 395.296 364.409 394.696 365.129 394.264C365.865 393.832 366.681 393.616 367.577 393.616C368.505 393.616 369.313 393.8 370.001 394.168C370.689 394.536 371.225 395.096 371.609 395.848C371.993 396.584 372.185 397.528 372.185 398.68V406H370.505V398.872C370.505 397.592 370.225 396.64 369.665 396.016C369.105 395.392 368.305 395.08 367.265 395.08C366.561 395.08 365.921 395.256 365.345 395.608C364.785 395.944 364.337 396.44 364.001 397.096C363.681 397.752 363.521 398.56 363.521 399.52V406H361.841ZM380.044 411.568C378.972 411.568 378.02 411.424 377.188 411.136C376.372 410.848 375.724 410.416 375.244 409.84C374.78 409.264 374.548 408.552 374.548 407.704C374.548 407.368 374.604 407 374.716 406.6C374.844 406.216 375.084 405.824 375.436 405.424C375.788 405.024 376.284 404.664 376.924 404.344L378.292 404.944C377.444 405.344 376.892 405.776 376.636 406.24C376.38 406.72 376.252 407.152 376.252 407.536C376.252 408.112 376.412 408.592 376.732 408.976C377.068 409.36 377.516 409.648 378.076 409.84C378.652 410.048 379.308 410.152 380.044 410.152C380.78 410.152 381.412 410.04 381.94 409.816C382.484 409.608 382.9 409.304 383.188 408.904C383.476 408.52 383.62 408.072 383.62 407.56C383.62 406.968 383.388 406.464 382.924 406.048C382.476 405.648 381.636 405.416 380.404 405.352C379.428 405.288 378.62 405.208 377.98 405.112C377.356 405 376.836 404.872 376.42 404.728C376.02 404.568 375.684 404.4 375.412 404.224C375.156 404.048 374.908 403.856 374.668 403.648V403.096L376.972 400.912L378.508 401.464L376.252 403.48L376.396 402.832C376.572 402.96 376.74 403.08 376.9 403.192C377.076 403.304 377.3 403.4 377.572 403.48C377.86 403.544 378.252 403.616 378.748 403.696C379.26 403.76 379.948 403.824 380.812 403.888C381.916 403.968 382.796 404.16 383.452 404.464C384.108 404.768 384.588 405.176 384.892 405.688C385.196 406.2 385.348 406.8 385.348 407.488C385.348 408.176 385.156 408.832 384.772 409.456C384.404 410.08 383.828 410.584 383.044 410.968C382.276 411.368 381.276 411.568 380.044 411.568ZM380.02 402.16C378.996 402.16 378.132 401.968 377.428 401.584C376.74 401.2 376.212 400.688 375.844 400.048C375.476 399.392 375.292 398.672 375.292 397.888C375.292 397.088 375.476 396.368 375.844 395.728C376.212 395.088 376.748 394.576 377.452 394.192C378.156 393.808 379.012 393.616 380.02 393.616C381.044 393.616 381.9 393.808 382.588 394.192C383.292 394.576 383.82 395.088 384.172 395.728C384.54 396.368 384.724 397.088 384.724 397.888C384.724 398.672 384.54 399.392 384.172 400.048C383.82 400.688 383.292 401.2 382.588 401.584C381.9 401.968 381.044 402.16 380.02 402.16ZM380.02 400.72C380.948 400.72 381.676 400.48 382.204 400C382.748 399.504 383.02 398.8 383.02 397.888C383.02 396.96 382.748 396.256 382.204 395.776C381.676 395.296 380.948 395.056 380.02 395.056C379.092 395.056 378.348 395.296 377.788 395.776C377.244 396.256 376.972 396.96 376.972 397.888C376.972 398.8 377.244 399.504 377.788 400C378.332 400.48 379.076 400.72 380.02 400.72ZM381.988 395.416L381.388 393.904H386.284V395.272L381.988 395.416ZM389.158 406.12C388.806 406.12 388.51 406 388.27 405.76C388.046 405.52 387.934 405.224 387.934 404.872C387.934 404.52 388.046 404.232 388.27 404.008C388.51 403.768 388.806 403.648 389.158 403.648C389.51 403.648 389.798 403.768 390.022 404.008C390.262 404.232 390.382 404.528 390.382 404.896C390.382 405.232 390.262 405.52 390.022 405.76C389.798 406 389.51 406.12 389.158 406.12ZM97.4697 437V420.2H99.1497L108.438 434.192V420.2H110.118V437H108.438L99.1497 422.984V437H97.4697ZM118.868 437.288C117.748 437.288 116.756 437.024 115.892 436.496C115.044 435.968 114.372 435.232 113.876 434.288C113.396 433.328 113.156 432.208 113.156 430.928C113.156 429.648 113.396 428.536 113.876 427.592C114.356 426.648 115.028 425.92 115.892 425.408C116.772 424.88 117.78 424.616 118.916 424.616C120.084 424.616 121.068 424.88 121.868 425.408C122.684 425.936 123.3 426.624 123.716 427.472C124.148 428.32 124.364 429.248 124.364 430.256C124.364 430.416 124.364 430.584 124.364 430.76C124.364 430.92 124.356 431.112 124.34 431.336H114.428V429.92H122.732C122.7 428.688 122.316 427.736 121.58 427.064C120.86 426.392 119.948 426.056 118.844 426.056C118.124 426.056 117.452 426.224 116.828 426.56C116.22 426.88 115.724 427.36 115.34 428C114.972 428.624 114.788 429.416 114.788 430.376V431C114.788 432.088 114.98 432.992 115.364 433.712C115.748 434.432 116.252 434.968 116.876 435.32C117.516 435.672 118.18 435.848 118.868 435.848C119.78 435.848 120.532 435.648 121.124 435.248C121.716 434.832 122.14 434.264 122.396 433.544H124.052C123.844 434.248 123.508 434.888 123.044 435.464C122.596 436.04 122.02 436.488 121.316 436.808C120.612 437.128 119.796 437.288 118.868 437.288ZM130.197 437L125.589 424.904H127.341L131.181 435.368L135.021 424.904H136.749L132.117 437H130.197ZM143.618 437.288C142.498 437.288 141.506 437.024 140.642 436.496C139.794 435.968 139.122 435.232 138.626 434.288C138.146 433.328 137.906 432.208 137.906 430.928C137.906 429.648 138.146 428.536 138.626 427.592C139.106 426.648 139.778 425.92 140.642 425.408C141.522 424.88 142.53 424.616 143.666 424.616C144.834 424.616 145.818 424.88 146.618 425.408C147.434 425.936 148.05 426.624 148.466 427.472C148.898 428.32 149.114 429.248 149.114 430.256C149.114 430.416 149.114 430.584 149.114 430.76C149.114 430.92 149.106 431.112 149.09 431.336H139.178V429.92H147.482C147.45 428.688 147.066 427.736 146.33 427.064C145.61 426.392 144.698 426.056 143.594 426.056C142.874 426.056 142.202 426.224 141.578 426.56C140.97 426.88 140.474 427.36 140.09 428C139.722 428.624 139.538 429.416 139.538 430.376V431C139.538 432.088 139.73 432.992 140.114 433.712C140.498 434.432 141.002 434.968 141.626 435.32C142.266 435.672 142.93 435.848 143.618 435.848C144.53 435.848 145.282 435.648 145.874 435.248C146.466 434.832 146.89 434.264 147.146 433.544H148.802C148.594 434.248 148.258 434.888 147.794 435.464C147.346 436.04 146.77 436.488 146.066 436.808C145.362 437.128 144.546 437.288 143.618 437.288ZM151.864 437V424.904H153.4L153.52 427.232C153.776 426.672 154.12 426.2 154.552 425.816C154.984 425.432 155.504 425.136 156.112 424.928C156.72 424.72 157.408 424.616 158.176 424.616V426.368H157.528C157.016 426.368 156.52 426.44 156.04 426.584C155.56 426.712 155.136 426.936 154.768 427.256C154.4 427.576 154.104 428.008 153.88 428.552C153.656 429.096 153.544 429.776 153.544 430.592V437H151.864ZM167.145 437V424.904H168.681L168.801 427.232C169.057 426.672 169.401 426.2 169.833 425.816C170.265 425.432 170.785 425.136 171.393 424.928C172.001 424.72 172.689 424.616 173.457 424.616V426.368H172.809C172.297 426.368 171.801 426.44 171.321 426.584C170.841 426.712 170.417 426.936 170.049 427.256C169.681 427.576 169.385 428.008 169.161 428.552C168.937 429.096 168.825 429.776 168.825 430.592V437H167.145ZM180.185 437.288C179.273 437.288 178.465 437.112 177.761 436.76C177.073 436.392 176.537 435.84 176.153 435.104C175.769 434.352 175.577 433.392 175.577 432.224V424.904H177.257V432.032C177.257 433.312 177.537 434.264 178.097 434.888C178.673 435.512 179.465 435.824 180.473 435.824C181.193 435.824 181.833 435.656 182.393 435.32C182.969 434.984 183.417 434.488 183.737 433.832C184.073 433.16 184.241 432.344 184.241 431.384V424.904H185.921V437H184.385L184.289 434.84C183.905 435.624 183.345 436.232 182.609 436.664C181.889 437.08 181.081 437.288 180.185 437.288ZM189.341 437V424.904H190.877L190.973 427.064C191.357 426.296 191.909 425.696 192.629 425.264C193.365 424.832 194.181 424.616 195.077 424.616C196.005 424.616 196.813 424.8 197.501 425.168C198.189 425.536 198.725 426.096 199.109 426.848C199.493 427.584 199.685 428.528 199.685 429.68V437H198.005V429.872C198.005 428.592 197.725 427.64 197.165 427.016C196.605 426.392 195.805 426.08 194.765 426.08C194.061 426.08 193.421 426.256 192.845 426.608C192.285 426.944 191.837 427.44 191.501 428.096C191.181 428.752 191.021 429.56 191.021 430.52V437H189.341ZM214.802 437.288C213.698 437.288 212.698 437.032 211.802 436.52C210.922 435.992 210.226 435.256 209.714 434.312C209.202 433.352 208.946 432.24 208.946 430.976C208.946 429.664 209.202 428.536 209.714 427.592C210.242 426.648 210.954 425.92 211.85 425.408C212.746 424.88 213.746 424.616 214.85 424.616C216.002 424.616 217.018 424.88 217.898 425.408C218.778 425.92 219.474 426.648 219.986 427.592C220.498 428.536 220.754 429.664 220.754 430.976C220.754 432.24 220.49 433.352 219.962 434.312C219.45 435.256 218.746 435.992 217.85 436.52C216.97 437.032 215.954 437.288 214.802 437.288ZM214.826 435.848C215.578 435.848 216.266 435.664 216.89 435.296C217.53 434.928 218.042 434.384 218.426 433.664C218.826 432.928 219.026 432.024 219.026 430.952C219.026 429.864 218.834 428.96 218.45 428.24C218.066 427.52 217.554 426.984 216.914 426.632C216.29 426.264 215.602 426.08 214.85 426.08C214.13 426.08 213.45 426.264 212.81 426.632C212.17 427 211.65 427.544 211.25 428.264C210.866 428.968 210.674 429.864 210.674 430.952C210.674 432.024 210.866 432.928 211.25 433.664C211.634 434.384 212.138 434.928 212.762 435.296C213.402 435.664 214.09 435.848 214.826 435.848ZM227.998 437.288C227.086 437.288 226.278 437.112 225.574 436.76C224.886 436.392 224.35 435.84 223.966 435.104C223.582 434.352 223.39 433.392 223.39 432.224V424.904H225.07V432.032C225.07 433.312 225.35 434.264 225.91 434.888C226.486 435.512 227.278 435.824 228.286 435.824C229.006 435.824 229.646 435.656 230.206 435.32C230.782 434.984 231.23 434.488 231.55 433.832C231.886 433.16 232.054 432.344 232.054 431.384V424.904H233.734V437H232.198L232.102 434.84C231.718 435.624 231.158 436.232 230.422 436.664C229.702 437.08 228.894 437.288 227.998 437.288ZM241.737 437C241.049 437 240.457 436.896 239.961 436.688C239.465 436.464 239.081 436.104 238.809 435.608C238.553 435.096 238.425 434.4 238.425 433.52V426.344H236.313V424.904H238.425L238.665 422.096H240.105V424.928H243.729V426.344H240.105V433.52C240.105 434.32 240.265 434.864 240.585 435.152C240.905 435.424 241.473 435.56 242.289 435.56H243.537V437H241.737ZM258.278 437.288C257.174 437.288 256.174 437.032 255.278 436.52C254.398 435.992 253.702 435.256 253.19 434.312C252.678 433.352 252.422 432.24 252.422 430.976C252.422 429.664 252.678 428.536 253.19 427.592C253.718 426.648 254.43 425.92 255.326 425.408C256.222 424.88 257.222 424.616 258.326 424.616C259.478 424.616 260.494 424.88 261.374 425.408C262.254 425.92 262.95 426.648 263.462 427.592C263.974 428.536 264.23 429.664 264.23 430.976C264.23 432.24 263.966 433.352 263.438 434.312C262.926 435.256 262.222 435.992 261.326 436.52C260.446 437.032 259.43 437.288 258.278 437.288ZM258.302 435.848C259.054 435.848 259.742 435.664 260.366 435.296C261.006 434.928 261.518 434.384 261.902 433.664C262.302 432.928 262.502 432.024 262.502 430.952C262.502 429.864 262.31 428.96 261.926 428.24C261.542 427.52 261.03 426.984 260.39 426.632C259.766 426.264 259.078 426.08 258.326 426.08C257.606 426.08 256.926 426.264 256.286 426.632C255.646 427 255.126 427.544 254.726 428.264C254.342 428.968 254.15 429.864 254.15 430.952C254.15 432.024 254.342 432.928 254.726 433.664C255.11 434.384 255.614 434.928 256.238 435.296C256.878 435.664 257.566 435.848 258.302 435.848ZM267.826 437V422.816C267.826 422.112 267.938 421.536 268.162 421.088C268.402 420.624 268.754 420.28 269.218 420.056C269.682 419.832 270.266 419.72 270.97 419.72H272.338V421.16H271.258C270.618 421.16 270.162 421.288 269.89 421.544C269.634 421.8 269.506 422.248 269.506 422.888V437H267.826ZM265.954 426.344V424.904H272.65V426.344H265.954ZM286.292 437C285.604 437 285.012 436.896 284.516 436.688C284.02 436.464 283.636 436.104 283.364 435.608C283.108 435.096 282.98 434.4 282.98 433.52V426.344H280.868V424.904H282.98L283.22 422.096H284.66V424.928H288.284V426.344H284.66V433.52C284.66 434.32 284.82 434.864 285.14 435.152C285.46 435.424 286.028 435.56 286.844 435.56H288.092V437H286.292ZM295.895 437.288C294.791 437.288 293.791 437.032 292.895 436.52C292.015 435.992 291.319 435.256 290.807 434.312C290.295 433.352 290.039 432.24 290.039 430.976C290.039 429.664 290.295 428.536 290.807 427.592C291.335 426.648 292.047 425.92 292.943 425.408C293.839 424.88 294.839 424.616 295.943 424.616C297.095 424.616 298.111 424.88 298.991 425.408C299.871 425.92 300.567 426.648 301.079 427.592C301.591 428.536 301.847 429.664 301.847 430.976C301.847 432.24 301.583 433.352 301.055 434.312C300.543 435.256 299.839 435.992 298.943 436.52C298.063 437.032 297.047 437.288 295.895 437.288ZM295.919 435.848C296.671 435.848 297.359 435.664 297.983 435.296C298.623 434.928 299.135 434.384 299.519 433.664C299.919 432.928 300.119 432.024 300.119 430.952C300.119 429.864 299.927 428.96 299.543 428.24C299.159 427.52 298.647 426.984 298.007 426.632C297.383 426.264 296.695 426.08 295.943 426.08C295.223 426.08 294.543 426.264 293.903 426.632C293.263 427 292.743 427.544 292.343 428.264C291.959 428.968 291.767 429.864 291.767 430.952C291.767 432.024 291.959 432.928 292.343 433.664C292.727 434.384 293.231 434.928 293.855 435.296C294.495 435.664 295.183 435.848 295.919 435.848ZM312.044 437L306.116 430.376L311.54 424.904H313.628L307.604 430.928L307.628 429.8L314.204 437H312.044ZM304.724 437V419.72H306.404V437H304.724ZM320.736 437.288C319.616 437.288 318.624 437.024 317.76 436.496C316.912 435.968 316.24 435.232 315.744 434.288C315.264 433.328 315.024 432.208 315.024 430.928C315.024 429.648 315.264 428.536 315.744 427.592C316.224 426.648 316.896 425.92 317.76 425.408C318.64 424.88 319.648 424.616 320.784 424.616C321.952 424.616 322.936 424.88 323.736 425.408C324.552 425.936 325.168 426.624 325.584 427.472C326.016 428.32 326.232 429.248 326.232 430.256C326.232 430.416 326.232 430.584 326.232 430.76C326.232 430.92 326.224 431.112 326.208 431.336H316.296V429.92H324.6C324.568 428.688 324.184 427.736 323.448 427.064C322.728 426.392 321.816 426.056 320.712 426.056C319.992 426.056 319.32 426.224 318.696 426.56C318.088 426.88 317.592 427.36 317.208 428C316.84 428.624 316.656 429.416 316.656 430.376V431C316.656 432.088 316.848 432.992 317.232 433.712C317.616 434.432 318.12 434.968 318.744 435.32C319.384 435.672 320.048 435.848 320.736 435.848C321.648 435.848 322.4 435.648 322.992 435.248C323.584 434.832 324.008 434.264 324.264 433.544H325.92C325.712 434.248 325.376 434.888 324.912 435.464C324.464 436.04 323.888 436.488 323.184 436.808C322.48 437.128 321.664 437.288 320.736 437.288ZM328.981 437V424.904H330.517L330.613 427.064C330.997 426.296 331.549 425.696 332.269 425.264C333.005 424.832 333.821 424.616 334.717 424.616C335.645 424.616 336.453 424.8 337.141 425.168C337.829 425.536 338.365 426.096 338.749 426.848C339.133 427.584 339.325 428.528 339.325 429.68V437H337.645V429.872C337.645 428.592 337.365 427.64 336.805 427.016C336.245 426.392 335.445 426.08 334.405 426.08C333.701 426.08 333.061 426.256 332.485 426.608C331.925 426.944 331.477 427.44 331.141 428.096C330.821 428.752 330.661 429.56 330.661 430.52V437H328.981ZM346.945 437.288C345.985 437.288 345.137 437.128 344.401 436.808C343.681 436.488 343.097 436.032 342.649 435.44C342.217 434.832 341.953 434.112 341.857 433.28H343.585C343.681 433.744 343.865 434.168 344.137 434.552C344.425 434.936 344.809 435.248 345.289 435.488C345.769 435.712 346.337 435.824 346.993 435.824C347.601 435.824 348.097 435.736 348.481 435.56C348.881 435.368 349.177 435.12 349.369 434.816C349.577 434.496 349.681 434.144 349.681 433.76C349.681 433.232 349.553 432.824 349.297 432.536C349.057 432.232 348.705 432.008 348.241 431.864C347.777 431.72 347.217 431.584 346.561 431.456C346.017 431.36 345.497 431.232 345.001 431.072C344.505 430.912 344.057 430.704 343.657 430.448C343.273 430.192 342.969 429.872 342.745 429.488C342.521 429.088 342.409 428.624 342.409 428.096C342.409 427.408 342.577 426.808 342.913 426.296C343.265 425.768 343.761 425.36 344.401 425.072C345.041 424.768 345.793 424.616 346.657 424.616C347.889 424.616 348.897 424.928 349.681 425.552C350.465 426.16 350.921 427.056 351.049 428.24H349.369C349.305 427.584 349.033 427.064 348.553 426.68C348.073 426.296 347.425 426.104 346.609 426.104C345.809 426.104 345.193 426.272 344.761 426.608C344.345 426.928 344.137 427.368 344.137 427.928C344.137 428.28 344.249 428.584 344.473 428.84C344.697 429.096 345.025 429.32 345.457 429.512C345.905 429.688 346.449 429.84 347.089 429.968C347.857 430.112 348.561 430.304 349.201 430.544C349.857 430.768 350.385 431.12 350.785 431.6C351.201 432.064 351.409 432.728 351.409 433.592C351.425 434.312 351.249 434.952 350.881 435.512C350.513 436.072 349.993 436.512 349.321 436.832C348.649 437.136 347.857 437.288 346.945 437.288ZM364.861 437.288C363.885 437.288 363.069 437.112 362.413 436.76C361.773 436.408 361.293 435.952 360.973 435.392C360.669 434.832 360.517 434.216 360.517 433.544C360.517 432.712 360.725 432.008 361.141 431.432C361.573 430.856 362.173 430.424 362.941 430.136C363.709 429.848 364.605 429.704 365.629 429.704H368.893C368.893 428.92 368.773 428.256 368.533 427.712C368.293 427.168 367.941 426.76 367.477 426.488C367.013 426.2 366.429 426.056 365.725 426.056C364.909 426.056 364.205 426.264 363.613 426.68C363.021 427.096 362.653 427.704 362.509 428.504H360.757C360.853 427.656 361.141 426.944 361.621 426.368C362.117 425.792 362.725 425.36 363.445 425.072C364.165 424.768 364.925 424.616 365.725 424.616C366.845 424.616 367.757 424.832 368.461 425.264C369.165 425.68 369.693 426.256 370.045 426.992C370.397 427.728 370.573 428.576 370.573 429.536V437H369.037L368.941 434.792C368.797 435.128 368.597 435.448 368.341 435.752C368.101 436.056 367.813 436.32 367.477 436.544C367.157 436.768 366.781 436.944 366.349 437.072C365.917 437.216 365.421 437.288 364.861 437.288ZM365.053 435.824C365.645 435.824 366.173 435.704 366.637 435.464C367.117 435.208 367.525 434.88 367.861 434.48C368.197 434.08 368.453 433.632 368.629 433.136C368.805 432.624 368.893 432.096 368.893 431.552V431.12H365.749C364.901 431.12 364.221 431.224 363.709 431.432C363.197 431.64 362.829 431.92 362.605 432.272C362.381 432.624 362.269 433.032 362.269 433.496C362.269 433.96 362.373 434.368 362.581 434.72C362.789 435.056 363.101 435.328 363.517 435.536C363.949 435.728 364.461 435.824 365.053 435.824ZM378.427 442.568C377.355 442.568 376.403 442.424 375.571 442.136C374.755 441.848 374.107 441.416 373.627 440.84C373.163 440.264 372.931 439.552 372.931 438.704C372.931 438.368 372.987 438 373.099 437.6C373.227 437.216 373.467 436.824 373.819 436.424C374.171 436.024 374.667 435.664 375.307 435.344L376.675 435.944C375.827 436.344 375.275 436.776 375.019 437.24C374.763 437.72 374.635 438.152 374.635 438.536C374.635 439.112 374.795 439.592 375.115 439.976C375.451 440.36 375.899 440.648 376.459 440.84C377.035 441.048 377.691 441.152 378.427 441.152C379.163 441.152 379.795 441.04 380.323 440.816C380.867 440.608 381.283 440.304 381.571 439.904C381.859 439.52 382.003 439.072 382.003 438.56C382.003 437.968 381.771 437.464 381.307 437.048C380.859 436.648 380.019 436.416 378.787 436.352C377.811 436.288 377.003 436.208 376.363 436.112C375.739 436 375.219 435.872 374.803 435.728C374.403 435.568 374.067 435.4 373.795 435.224C373.539 435.048 373.291 434.856 373.051 434.648V434.096L375.355 431.912L376.891 432.464L374.635 434.48L374.779 433.832C374.955 433.96 375.123 434.08 375.283 434.192C375.459 434.304 375.683 434.4 375.955 434.48C376.243 434.544 376.635 434.616 377.131 434.696C377.643 434.76 378.331 434.824 379.195 434.888C380.299 434.968 381.179 435.16 381.835 435.464C382.491 435.768 382.971 436.176 383.275 436.688C383.579 437.2 383.731 437.8 383.731 438.488C383.731 439.176 383.539 439.832 383.155 440.456C382.787 441.08 382.211 441.584 381.427 441.968C380.659 442.368 379.659 442.568 378.427 442.568ZM378.403 433.16C377.379 433.16 376.515 432.968 375.811 432.584C375.123 432.2 374.595 431.688 374.227 431.048C373.859 430.392 373.675 429.672 373.675 428.888C373.675 428.088 373.859 427.368 374.227 426.728C374.595 426.088 375.131 425.576 375.835 425.192C376.539 424.808 377.395 424.616 378.403 424.616C379.427 424.616 380.283 424.808 380.971 425.192C381.675 425.576 382.203 426.088 382.555 426.728C382.923 427.368 383.107 428.088 383.107 428.888C383.107 429.672 382.923 430.392 382.555 431.048C382.203 431.688 381.675 432.2 380.971 432.584C380.283 432.968 379.427 433.16 378.403 433.16ZM378.403 431.72C379.331 431.72 380.059 431.48 380.587 431C381.131 430.504 381.403 429.8 381.403 428.888C381.403 427.96 381.131 427.256 380.587 426.776C380.059 426.296 379.331 426.056 378.403 426.056C377.475 426.056 376.731 426.296 376.171 426.776C375.627 427.256 375.355 427.96 375.355 428.888C375.355 429.8 375.627 430.504 376.171 431C376.715 431.48 377.459 431.72 378.403 431.72ZM380.371 426.416L379.771 424.904H384.667V426.272L380.371 426.416ZM390.853 437.288C389.877 437.288 389.061 437.112 388.405 436.76C387.765 436.408 387.285 435.952 386.965 435.392C386.661 434.832 386.509 434.216 386.509 433.544C386.509 432.712 386.717 432.008 387.133 431.432C387.565 430.856 388.165 430.424 388.933 430.136C389.701 429.848 390.597 429.704 391.621 429.704H394.885C394.885 428.92 394.765 428.256 394.525 427.712C394.285 427.168 393.933 426.76 393.469 426.488C393.005 426.2 392.421 426.056 391.717 426.056C390.901 426.056 390.197 426.264 389.605 426.68C389.013 427.096 388.645 427.704 388.501 428.504H386.749C386.845 427.656 387.133 426.944 387.613 426.368C388.109 425.792 388.717 425.36 389.437 425.072C390.157 424.768 390.917 424.616 391.717 424.616C392.837 424.616 393.749 424.832 394.453 425.264C395.157 425.68 395.685 426.256 396.037 426.992C396.389 427.728 396.565 428.576 396.565 429.536V437H395.029L394.933 434.792C394.789 435.128 394.589 435.448 394.333 435.752C394.093 436.056 393.805 436.32 393.469 436.544C393.149 436.768 392.773 436.944 392.341 437.072C391.909 437.216 391.413 437.288 390.853 437.288ZM391.045 435.824C391.637 435.824 392.165 435.704 392.629 435.464C393.109 435.208 393.517 434.88 393.853 434.48C394.189 434.08 394.445 433.632 394.621 433.136C394.797 432.624 394.885 432.096 394.885 431.552V431.12H391.741C390.893 431.12 390.213 431.224 389.701 431.432C389.189 431.64 388.821 431.92 388.597 432.272C388.373 432.624 388.261 433.032 388.261 433.496C388.261 433.96 388.365 434.368 388.573 434.72C388.781 435.056 389.093 435.328 389.509 435.536C389.941 435.728 390.453 435.824 391.045 435.824ZM399.979 437V424.904H401.635V437H399.979ZM400.819 422.048C400.483 422.048 400.195 421.936 399.955 421.712C399.715 421.472 399.595 421.176 399.595 420.824C399.595 420.456 399.707 420.168 399.931 419.96C400.171 419.736 400.459 419.624 400.795 419.624C401.131 419.624 401.419 419.736 401.659 419.96C401.899 420.168 402.019 420.456 402.019 420.824C402.019 421.176 401.899 421.472 401.659 421.712C401.435 421.936 401.155 422.048 400.819 422.048ZM405.294 437V424.904H406.83L406.926 427.064C407.31 426.296 407.862 425.696 408.582 425.264C409.318 424.832 410.134 424.616 411.03 424.616C411.958 424.616 412.766 424.8 413.454 425.168C414.142 425.536 414.678 426.096 415.062 426.848C415.446 427.584 415.638 428.528 415.638 429.68V437H413.958V429.872C413.958 428.592 413.678 427.64 413.118 427.016C412.558 426.392 411.758 426.08 410.718 426.08C410.014 426.08 409.374 426.256 408.798 426.608C408.238 426.944 407.79 427.44 407.454 428.096C407.134 428.752 406.974 429.56 406.974 430.52V437H405.294ZM419.369 437.12C419.017 437.12 418.721 437 418.481 436.76C418.257 436.52 418.145 436.224 418.145 435.872C418.145 435.52 418.257 435.232 418.481 435.008C418.721 434.768 419.017 434.648 419.369 434.648C419.721 434.648 420.009 434.768 420.233 435.008C420.473 435.232 420.593 435.528 420.593 435.896C420.593 436.232 420.473 436.52 420.233 436.76C420.009 437 419.721 437.12 419.369 437.12Z" fill="#0E334D"/>
<g filter="url(#filter0_d_583_22193)">
<rect x="151.617" y="78" width="208" height="208" rx="42.25" fill="#EBE6DB"/>
<rect width="197.6" height="197.6" transform="translate(156.82 83.2)" fill="#EBE6DB"/>
<path d="M249.444 142.249C273.956 142.249 293.827 162.119 293.827 186.631C293.827 211.143 273.956 231.014 249.444 231.014C240.177 231.014 231.572 228.174 224.455 223.316C220.601 220.713 214.999 220.98 212.298 224.55C209.503 228.243 210.387 234.043 214.5 236.61C224.396 243.542 236.445 247.609 249.444 247.609C283.122 247.609 310.422 220.309 310.422 186.631C310.422 152.954 283.122 125.653 249.444 125.653C239.781 125.653 230.644 127.901 222.525 131.902L230.147 146.652C235.982 143.83 242.528 142.249 249.444 142.249Z" fill="#286195"/>
<path d="M249.445 125.653C283.122 125.653 310.423 152.954 310.423 186.631C310.423 220.309 283.122 247.609 249.445 247.609C242.527 247.609 239.025 250.986 239.025 255.811C239.025 260.635 242.595 264.205 249.445 264.205C292.288 264.205 327.018 229.474 327.018 186.631C327.018 143.789 292.288 109.058 249.445 109.058C237.073 109.058 225.378 111.954 215 117.105L222.526 131.925C230.62 127.954 239.82 125.653 249.445 125.653Z" fill="#367CAF"/>
<path d="M249.447 109.251C292.183 109.251 326.828 143.895 326.828 186.631C326.828 216.102 310.353 241.724 286.111 254.791C282.348 256.82 278.765 261.214 281.191 266.52C283.617 271.827 290.067 271.501 293.734 269.539C323.306 253.709 343.423 222.519 343.423 186.631C343.423 134.73 301.349 92.6555 249.447 92.6555C234.363 92.6555 220.109 96.2094 207.477 102.526L215.099 117.273C225.448 112.138 237.111 109.251 249.447 109.251Z" fill="#4BA6D2"/>
<circle cx="250.023" cy="186.824" r="26.4367" fill="#EC7655"/>
</g>
<defs>
<filter id="filter0_d_583_22193" x="132.659" y="67.1667" width="240.5" height="240.5" filterUnits="userSpaceOnUse" color-interpolation-filters="sRGB">
<feFlood flood-opacity="0" result="BackgroundImageFix"/>
<feColorMatrix in="SourceAlpha" type="matrix" values="0 0 0 0 0 0 0 0 0 0 0 0 0 0 0 0 0 0 127 0" result="hardAlpha"/>
<feOffset dx="-2.70833" dy="5.41667"/>
<feGaussianBlur stdDeviation="8.125"/>
<feComposite in2="hardAlpha" operator="out"/>
<feColorMatrix type="matrix" values="0 0 0 0 0 0 0 0 0 0 0 0 0 0 0 0 0 0 0.25 0"/>
<feBlend mode="normal" in2="BackgroundImageFix" result="effect1_dropShadow_583_22193"/>
<feBlend mode="normal" in="SourceGraphic" in2="effect1_dropShadow_583_22193" result="shape"/>
</filter>
<linearGradient id="paint0_linear_583_22193" x1="28.6118" y1="-5.35576e-06" x2="228.894" y2="512" gradientUnits="userSpaceOnUse">
<stop stop-color="#F0E6D4"/>
<stop offset="1" stop-color="#C2B499"/>
</linearGradient>
</defs>
</svg>
