<svg width="192" height="192" viewBox="0 0 192 192" fill="none" xmlns="http://www.w3.org/2000/svg">
<path d="M0 38.5882C0 17.2765 17.2765 0 38.5882 0H153.412C174.723 0 192 17.2765 192 38.5882V153.412C192 174.723 174.723 192 153.412 192H38.5882C17.2765 192 0 174.723 0 153.412V38.5882Z" fill="url(#paint0_linear_583_22203)"/>
<path d="M34.864 148.552V135.136L32.32 135.232C31.552 135.264 30.952 135.368 30.52 135.544C30.104 135.72 29.784 136.04 29.56 136.504C29.352 136.952 29.176 137.608 29.032 138.472H28.288L28.504 134.056C28.968 134.104 29.504 134.144 30.112 134.176C30.736 134.192 31.352 134.2 31.96 134.2H40.024C40.536 134.2 41.104 134.192 41.728 134.176C42.368 134.144 42.952 134.104 43.48 134.056L43.696 138.472H42.952C42.808 137.608 42.624 136.952 42.4 136.504C42.192 136.04 41.872 135.72 41.44 135.544C41.024 135.368 40.432 135.264 39.664 135.232L37.12 135.136V148.552C37.12 148.92 37.168 149.224 37.264 149.464C37.36 149.688 37.536 149.856 37.792 149.968C38.064 150.08 38.432 150.16 38.896 150.208L39.64 150.28V151H32.344V150.28L33.088 150.208C33.568 150.16 33.936 150.08 34.192 149.968C34.448 149.856 34.624 149.688 34.72 149.464C34.816 149.224 34.864 148.92 34.864 148.552ZM49.3128 151.24C48.0328 151.24 46.9048 150.968 45.9288 150.424C44.9528 149.88 44.1928 149.12 43.6488 148.144C43.1048 147.168 42.8328 146.04 42.8328 144.76C42.8328 143.544 43.1048 142.448 43.6488 141.472C44.1928 140.496 44.9448 139.72 45.9048 139.144C46.8808 138.568 48.0168 138.28 49.3128 138.28C50.6088 138.28 51.7448 138.552 52.7208 139.096C53.6968 139.64 54.4568 140.4 55.0008 141.376C55.5448 142.336 55.8168 143.456 55.8168 144.736C55.8168 145.952 55.5448 147.056 55.0008 148.048C54.4568 149.024 53.6968 149.8 52.7208 150.376C51.7608 150.952 50.6248 151.24 49.3128 151.24ZM49.6968 150.304C50.7848 150.304 51.6888 149.896 52.4088 149.08C53.1288 148.264 53.4888 147.032 53.4888 145.384C53.4888 144.296 53.3128 143.288 52.9608 142.36C52.6248 141.416 52.1208 140.656 51.4488 140.08C50.7768 139.504 49.9448 139.216 48.9528 139.216C47.8648 139.216 46.9608 139.624 46.2408 140.44C45.5208 141.256 45.1608 142.496 45.1608 144.16C45.1608 145.232 45.3288 146.24 45.6648 147.184C46.0168 148.112 46.5288 148.864 47.2008 149.44C47.8728 150.016 48.7048 150.304 49.6968 150.304ZM57.0235 151V150.28L57.7435 150.16C58.2235 150.08 58.5435 149.952 58.7035 149.776C58.8635 149.584 58.9435 149.24 58.9435 148.744V135.016C58.9435 134.504 58.8315 134.144 58.6075 133.936C58.3835 133.712 57.8715 133.552 57.0715 133.456V132.856L60.7675 131.8H61.1035V148.744C61.1035 149.24 61.1835 149.584 61.3435 149.776C61.5035 149.952 61.8235 150.08 62.3035 150.16L63.0235 150.28V151H57.0235ZM64.4875 151V150.28L65.0155 150.256C65.4955 150.224 65.7915 150.12 65.9035 149.944C66.0315 149.768 66.0475 149.544 65.9515 149.272C65.8555 149 65.7115 148.712 65.5195 148.408L62.8315 144.04L64.3675 142.648L67.8955 148.408C68.2795 149.032 68.6395 149.488 68.9755 149.776C69.3275 150.048 69.6875 150.2 70.0555 150.232L70.5355 150.28V151H64.4875ZM60.3355 147.04L59.6635 146.416L65.4715 140.944C66.0315 140.432 66.2795 140.032 66.2155 139.744C66.1515 139.44 65.8075 139.28 65.1835 139.264L64.6075 139.24V138.52H70.5355V139.24C69.8955 139.272 69.3515 139.376 68.9035 139.552C68.4555 139.712 67.9995 140 67.5355 140.416L60.3355 147.04ZM76.792 151.24C75.608 151.24 74.568 150.968 73.672 150.424C72.776 149.864 72.08 149.112 71.584 148.168C71.104 147.224 70.864 146.16 70.864 144.976C70.864 143.68 71.144 142.528 71.704 141.52C72.28 140.512 73.048 139.72 74.008 139.144C74.968 138.568 76.024 138.28 77.176 138.28C78.44 138.28 79.456 138.64 80.224 139.36C80.992 140.08 81.376 141.128 81.376 142.504C81.376 142.6 81.376 142.704 81.376 142.816C81.376 142.912 81.36 143.048 81.328 143.224L81.28 143.56H72.664V142.648H79C79.048 142.328 79.072 142.032 79.072 141.76C79.072 140.96 78.864 140.336 78.448 139.888C78.032 139.44 77.432 139.216 76.648 139.216C75.576 139.216 74.704 139.64 74.032 140.488C73.376 141.336 73.048 142.472 73.048 143.896C73.048 144.968 73.24 145.936 73.624 146.8C74.024 147.648 74.584 148.32 75.304 148.816C76.04 149.296 76.904 149.536 77.896 149.536C78.456 149.536 79 149.44 79.528 149.248C80.056 149.056 80.616 148.736 81.208 148.288L81.688 148.744C80.92 149.624 80.144 150.264 79.36 150.664C78.576 151.048 77.72 151.24 76.792 151.24ZM82.9264 151V150.28L83.6464 150.16C84.1264 150.08 84.4464 149.952 84.6064 149.776C84.7664 149.584 84.8464 149.24 84.8464 148.744V141.592C84.8464 141.08 84.7344 140.72 84.5104 140.512C84.2864 140.288 83.7744 140.128 82.9744 140.032V139.432L86.5984 138.376H86.9344V140.128H87.0784C87.8464 139.456 88.5584 138.984 89.2144 138.712C89.8704 138.424 90.6384 138.28 91.5184 138.28C92.6544 138.28 93.5424 138.568 94.1824 139.144C94.8384 139.704 95.1664 140.504 95.1664 141.544V148.744C95.1664 149.24 95.2464 149.584 95.4064 149.776C95.5664 149.952 95.8864 150.08 96.3664 150.16L97.0864 150.28V151H91.0864V150.28L91.8064 150.16C92.2864 150.08 92.6064 149.952 92.7664 149.776C92.9264 149.584 93.0064 149.24 93.0064 148.744V142.264C93.0064 141.672 92.9024 141.192 92.6944 140.824C92.4864 140.456 92.1744 140.184 91.7584 140.008C91.3584 139.816 90.8384 139.72 90.1984 139.72C89.5744 139.72 89.0144 139.832 88.5184 140.056C88.0224 140.264 87.5184 140.6 87.0064 141.064V148.744C87.0064 149.24 87.0864 149.584 87.2464 149.776C87.4064 149.952 87.7264 150.08 88.2064 150.16L88.9264 150.28V151H82.9264ZM104.719 151.24C103.439 151.24 102.311 150.968 101.335 150.424C100.359 149.88 99.599 149.12 99.055 148.144C98.511 147.168 98.239 146.04 98.239 144.76C98.239 143.544 98.511 142.448 99.055 141.472C99.599 140.496 100.351 139.72 101.311 139.144C102.287 138.568 103.423 138.28 104.719 138.28C106.015 138.28 107.151 138.552 108.127 139.096C109.103 139.64 109.863 140.4 110.407 141.376C110.951 142.336 111.223 143.456 111.223 144.736C111.223 145.952 110.951 147.056 110.407 148.048C109.863 149.024 109.103 149.8 108.127 150.376C107.167 150.952 106.031 151.24 104.719 151.24ZM105.103 150.304C106.191 150.304 107.095 149.896 107.815 149.08C108.535 148.264 108.895 147.032 108.895 145.384C108.895 144.296 108.719 143.288 108.367 142.36C108.031 141.416 107.527 140.656 106.855 140.08C106.183 139.504 105.351 139.216 104.359 139.216C103.271 139.216 102.367 139.624 101.647 140.44C100.927 141.256 100.567 142.496 100.567 144.16C100.567 145.232 100.735 146.24 101.071 147.184C101.423 148.112 101.935 148.864 102.607 149.44C103.279 150.016 104.111 150.304 105.103 150.304ZM112.622 151V150.28L113.342 150.16C113.822 150.08 114.142 149.952 114.302 149.776C114.462 149.584 114.542 149.24 114.542 148.744V141.592C114.542 141.08 114.43 140.72 114.206 140.512C113.982 140.288 113.47 140.128 112.67 140.032V139.432L116.294 138.376H116.63V140.128H116.774C117.542 139.456 118.246 138.984 118.886 138.712C119.526 138.424 120.214 138.28 120.95 138.28C121.654 138.28 122.278 138.424 122.822 138.712C123.382 138.984 123.766 139.48 123.974 140.2H124.094C124.926 139.496 125.662 139 126.302 138.712C126.958 138.424 127.654 138.28 128.39 138.28C128.982 138.28 129.518 138.376 129.998 138.568C130.478 138.744 130.862 139.048 131.15 139.48C131.438 139.896 131.582 140.48 131.582 141.232V148.744C131.582 149.24 131.662 149.584 131.822 149.776C131.982 149.952 132.302 150.08 132.782 150.16L133.502 150.28V151H127.502V150.28L128.222 150.16C128.702 150.08 129.022 149.952 129.182 149.776C129.342 149.584 129.422 149.24 129.422 148.744V141.952C129.422 141.312 129.326 140.832 129.134 140.512C128.958 140.192 128.71 139.984 128.39 139.888C128.07 139.776 127.702 139.72 127.286 139.72C126.694 139.72 126.158 139.832 125.678 140.056C125.198 140.264 124.686 140.6 124.142 141.064V148.744C124.142 149.24 124.222 149.584 124.382 149.776C124.542 149.952 124.862 150.08 125.342 150.16L126.062 150.28V151H120.062V150.28L120.782 150.16C121.262 150.08 121.582 149.952 121.742 149.776C121.902 149.584 121.982 149.24 121.982 148.744V141.952C121.982 141.312 121.886 140.832 121.694 140.512C121.518 140.192 121.27 139.984 120.95 139.888C120.63 139.776 120.262 139.72 119.846 139.72C119.254 139.72 118.71 139.832 118.214 140.056C117.718 140.264 117.214 140.6 116.702 141.064V148.744C116.702 149.24 116.782 149.584 116.942 149.776C117.102 149.952 117.422 150.08 117.902 150.16L118.622 150.28V151H112.622ZM134.348 151V150.28L135.068 150.16C135.548 150.08 135.868 149.952 136.028 149.776C136.188 149.584 136.268 149.24 136.268 148.744V141.592C136.268 141.08 136.156 140.72 135.932 140.512C135.708 140.288 135.196 140.128 134.396 140.032V139.432L138.092 138.376H138.428V148.744C138.428 149.24 138.508 149.584 138.668 149.776C138.828 149.952 139.148 150.08 139.628 150.16L140.348 150.28V151H134.348ZM137.108 136.528C136.708 136.528 136.372 136.4 136.1 136.144C135.828 135.872 135.692 135.528 135.692 135.112C135.692 134.696 135.828 134.36 136.1 134.104C136.372 133.848 136.708 133.72 137.108 133.72C137.492 133.72 137.82 133.848 138.092 134.104C138.364 134.36 138.5 134.696 138.5 135.112C138.5 135.528 138.364 135.872 138.092 136.144C137.82 136.4 137.492 136.528 137.108 136.528ZM147.575 151.24C146.407 151.24 145.367 150.968 144.455 150.424C143.559 149.864 142.855 149.112 142.343 148.168C141.831 147.208 141.575 146.128 141.575 144.928C141.575 143.648 141.855 142.512 142.415 141.52C142.991 140.512 143.775 139.72 144.767 139.144C145.759 138.568 146.879 138.28 148.127 138.28C148.959 138.28 149.679 138.392 150.287 138.616C150.911 138.84 151.391 139.112 151.727 139.432C152.079 139.752 152.255 140.056 152.255 140.344C152.255 140.6 152.127 140.816 151.871 140.992C151.615 141.152 151.335 141.248 151.031 141.28C150.727 141.312 150.495 141.264 150.335 141.136L148.799 139.768C148.591 139.576 148.383 139.448 148.175 139.384C147.967 139.304 147.703 139.264 147.383 139.264C146.647 139.264 146.007 139.48 145.463 139.912C144.919 140.344 144.495 140.928 144.191 141.664C143.903 142.384 143.759 143.192 143.759 144.088C143.759 145.144 143.959 146.08 144.359 146.896C144.775 147.712 145.343 148.36 146.063 148.84C146.799 149.304 147.631 149.536 148.559 149.536C149.119 149.536 149.671 149.44 150.215 149.248C150.759 149.056 151.327 148.736 151.919 148.288L152.399 148.744C151.647 149.624 150.879 150.264 150.095 150.664C149.311 151.048 148.471 151.24 147.575 151.24ZM157.721 151.24C157.113 151.24 156.465 151.168 155.777 151.024C155.105 150.88 154.553 150.688 154.121 150.448V147.208H154.817C154.993 148.328 155.377 149.136 155.969 149.632C156.577 150.112 157.265 150.352 158.033 150.352C158.769 150.352 159.345 150.16 159.761 149.776C160.177 149.392 160.385 148.888 160.385 148.264C160.385 147.704 160.217 147.272 159.881 146.968C159.561 146.648 159.121 146.344 158.561 146.056L156.833 145.144C155.809 144.6 155.129 144.056 154.793 143.512C154.457 142.968 154.289 142.424 154.289 141.88C154.289 141.16 154.481 140.536 154.865 140.008C155.265 139.464 155.809 139.04 156.497 138.736C157.185 138.432 157.969 138.28 158.849 138.28C159.441 138.28 159.993 138.344 160.505 138.472C161.033 138.6 161.505 138.76 161.921 138.952V141.736H161.225C161.129 141.272 160.969 140.848 160.745 140.464C160.521 140.08 160.217 139.768 159.833 139.528C159.465 139.288 158.993 139.168 158.417 139.168C157.697 139.168 157.145 139.352 156.761 139.72C156.377 140.088 156.185 140.544 156.185 141.088C156.185 141.536 156.321 141.928 156.593 142.264C156.881 142.6 157.345 142.936 157.985 143.272L159.569 144.088C160.465 144.536 161.137 145 161.585 145.48C162.049 145.96 162.281 146.6 162.281 147.4C162.281 148.232 162.065 148.936 161.633 149.512C161.201 150.072 160.633 150.504 159.929 150.808C159.241 151.096 158.505 151.24 157.721 151.24Z" fill="#0E334D"/>
<g filter="url(#filter0_d_583_22203)">
<rect x="56" y="31" width="80" height="80" rx="16.25" fill="#EBE6DB"/>
<rect width="76" height="76" transform="translate(58 33)" fill="#EBE6DB"/>
<path d="M93.6282 55.711C103.056 55.711 110.698 63.3536 110.698 72.7813C110.698 82.209 103.056 89.8516 93.6282 89.8516C90.0637 89.8516 86.7544 88.7591 84.0169 86.8907C82.5348 85.8896 80.3801 85.9922 79.3411 87.3653C78.266 88.7859 78.6062 91.0165 80.1882 92.0039C83.9943 94.67 88.6285 96.2344 93.6282 96.2344C106.581 96.2344 117.081 85.7341 117.081 72.7813C117.081 59.8285 106.581 49.3282 93.6282 49.3282C89.9118 49.3282 86.3972 50.1926 83.2747 51.7313L86.2063 57.4045C88.4505 56.3193 90.9683 55.711 93.6282 55.711Z" fill="#286195"/>
<path d="M93.623 49.3282C106.576 49.3282 117.076 59.8285 117.076 72.7813C117.076 85.7341 106.576 96.2344 93.623 96.2344C90.9623 96.2344 89.6152 97.5332 89.6152 99.3887C89.6152 101.244 90.9883 102.617 93.623 102.617C110.101 102.617 123.459 89.2592 123.459 72.7813C123.459 56.3033 110.101 42.9453 93.623 42.9453C88.8647 42.9453 84.3665 44.0593 80.375 46.0405L83.2695 51.7403C86.3828 50.2129 89.9213 49.3282 93.623 49.3282Z" fill="#367CAF"/>
<path d="M93.627 43.0196C110.064 43.0196 123.389 56.3443 123.389 72.7813C123.389 84.116 117.052 93.9708 107.729 98.9967C106.281 99.7769 104.903 101.467 105.836 103.508C106.769 105.549 109.25 105.424 110.66 104.669C122.034 98.5804 129.771 86.5844 129.771 72.7813C129.771 52.8192 113.589 36.6367 93.627 36.6367C87.8253 36.6367 82.343 38.0036 77.4844 40.4329L80.416 46.105C84.3965 44.1299 88.8821 43.0196 93.627 43.0196Z" fill="#4BA6D2"/>
<circle cx="93.8477" cy="72.8555" r="10.168" fill="#EC7655"/>
</g>
<defs>
<filter id="filter0_d_583_22203" x="48.7083" y="26.8333" width="92.5" height="92.5" filterUnits="userSpaceOnUse" color-interpolation-filters="sRGB">
<feFlood flood-opacity="0" result="BackgroundImageFix"/>
<feColorMatrix in="SourceAlpha" type="matrix" values="0 0 0 0 0 0 0 0 0 0 0 0 0 0 0 0 0 0 127 0" result="hardAlpha"/>
<feOffset dx="-1.04167" dy="2.08333"/>
<feGaussianBlur stdDeviation="3.125"/>
<feComposite in2="hardAlpha" operator="out"/>
<feColorMatrix type="matrix" values="0 0 0 0 0 0 0 0 0 0 0 0 0 0 0 0 0 0 0.25 0"/>
<feBlend mode="normal" in2="BackgroundImageFix" result="effect1_dropShadow_583_22203"/>
<feBlend mode="normal" in="SourceGraphic" in2="effect1_dropShadow_583_22203" result="shape"/>
</filter>
<linearGradient id="paint0_linear_583_22203" x1="10.7294" y1="-2.00841e-06" x2="85.8353" y2="192" gradientUnits="userSpaceOnUse">
<stop stop-color="#F0E6D4"/>
<stop offset="1" stop-color="#C2B499"/>
</linearGradient>
</defs>
</svg>
