<svg width="180" height="180" viewBox="0 0 180 180" fill="none" xmlns="http://www.w3.org/2000/svg">
<path d="M0 38.5882C0 17.2765 17.2765 0 38.5882 0H141.412C162.723 0 180 17.2765 180 38.5882V141.412C180 162.723 162.723 180 141.412 180H38.5882C17.2765 180 0 162.723 0 141.412V38.5882Z" fill="url(#paint0_linear_583_22212)"/>
<path d="M28.864 141.552V128.136L26.32 128.232C25.552 128.264 24.952 128.368 24.52 128.544C24.104 128.72 23.784 129.04 23.56 129.504C23.352 129.952 23.176 130.608 23.032 131.472H22.288L22.504 127.056C22.968 127.104 23.504 127.144 24.112 127.176C24.736 127.192 25.352 127.2 25.96 127.2H34.024C34.536 127.2 35.104 127.192 35.728 127.176C36.368 127.144 36.952 127.104 37.48 127.056L37.696 131.472H36.952C36.808 130.608 36.624 129.952 36.4 129.504C36.192 129.04 35.872 128.72 35.44 128.544C35.024 128.368 34.432 128.264 33.664 128.232L31.12 128.136V141.552C31.12 141.92 31.168 142.224 31.264 142.464C31.36 142.688 31.536 142.856 31.792 142.968C32.064 143.08 32.432 143.16 32.896 143.208L33.64 143.28V144H26.344V143.28L27.088 143.208C27.568 143.16 27.936 143.08 28.192 142.968C28.448 142.856 28.624 142.688 28.72 142.464C28.816 142.224 28.864 141.92 28.864 141.552ZM43.3128 144.24C42.0328 144.24 40.9048 143.968 39.9288 143.424C38.9528 142.88 38.1928 142.12 37.6488 141.144C37.1048 140.168 36.8328 139.04 36.8328 137.76C36.8328 136.544 37.1048 135.448 37.6488 134.472C38.1928 133.496 38.9448 132.72 39.9048 132.144C40.8808 131.568 42.0168 131.28 43.3128 131.28C44.6088 131.28 45.7448 131.552 46.7208 132.096C47.6968 132.64 48.4568 133.4 49.0008 134.376C49.5448 135.336 49.8168 136.456 49.8168 137.736C49.8168 138.952 49.5448 140.056 49.0008 141.048C48.4568 142.024 47.6968 142.8 46.7208 143.376C45.7608 143.952 44.6248 144.24 43.3128 144.24ZM43.6968 143.304C44.7848 143.304 45.6888 142.896 46.4088 142.08C47.1288 141.264 47.4888 140.032 47.4888 138.384C47.4888 137.296 47.3128 136.288 46.9608 135.36C46.6248 134.416 46.1208 133.656 45.4488 133.08C44.7768 132.504 43.9448 132.216 42.9528 132.216C41.8648 132.216 40.9608 132.624 40.2408 133.44C39.5208 134.256 39.1608 135.496 39.1608 137.16C39.1608 138.232 39.3288 139.24 39.6648 140.184C40.0168 141.112 40.5288 141.864 41.2008 142.44C41.8728 143.016 42.7048 143.304 43.6968 143.304ZM51.0235 144V143.28L51.7435 143.16C52.2235 143.08 52.5435 142.952 52.7035 142.776C52.8635 142.584 52.9435 142.24 52.9435 141.744V128.016C52.9435 127.504 52.8315 127.144 52.6075 126.936C52.3835 126.712 51.8715 126.552 51.0715 126.456V125.856L54.7675 124.8H55.1035V141.744C55.1035 142.24 55.1835 142.584 55.3435 142.776C55.5035 142.952 55.8235 143.08 56.3035 143.16L57.0235 143.28V144H51.0235ZM58.4875 144V143.28L59.0155 143.256C59.4955 143.224 59.7915 143.12 59.9035 142.944C60.0315 142.768 60.0475 142.544 59.9515 142.272C59.8555 142 59.7115 141.712 59.5195 141.408L56.8315 137.04L58.3675 135.648L61.8955 141.408C62.2795 142.032 62.6395 142.488 62.9755 142.776C63.3275 143.048 63.6875 143.2 64.0555 143.232L64.5355 143.28V144H58.4875ZM54.3355 140.04L53.6635 139.416L59.4715 133.944C60.0315 133.432 60.2795 133.032 60.2155 132.744C60.1515 132.44 59.8075 132.28 59.1835 132.264L58.6075 132.24V131.52H64.5355V132.24C63.8955 132.272 63.3515 132.376 62.9035 132.552C62.4555 132.712 61.9995 133 61.5355 133.416L54.3355 140.04ZM70.792 144.24C69.608 144.24 68.568 143.968 67.672 143.424C66.776 142.864 66.08 142.112 65.584 141.168C65.104 140.224 64.864 139.16 64.864 137.976C64.864 136.68 65.144 135.528 65.704 134.52C66.28 133.512 67.048 132.72 68.008 132.144C68.968 131.568 70.024 131.28 71.176 131.28C72.44 131.28 73.456 131.64 74.224 132.36C74.992 133.08 75.376 134.128 75.376 135.504C75.376 135.6 75.376 135.704 75.376 135.816C75.376 135.912 75.36 136.048 75.328 136.224L75.28 136.56H66.664V135.648H73C73.048 135.328 73.072 135.032 73.072 134.76C73.072 133.96 72.864 133.336 72.448 132.888C72.032 132.44 71.432 132.216 70.648 132.216C69.576 132.216 68.704 132.64 68.032 133.488C67.376 134.336 67.048 135.472 67.048 136.896C67.048 137.968 67.24 138.936 67.624 139.8C68.024 140.648 68.584 141.32 69.304 141.816C70.04 142.296 70.904 142.536 71.896 142.536C72.456 142.536 73 142.44 73.528 142.248C74.056 142.056 74.616 141.736 75.208 141.288L75.688 141.744C74.92 142.624 74.144 143.264 73.36 143.664C72.576 144.048 71.72 144.24 70.792 144.24ZM76.9264 144V143.28L77.6464 143.16C78.1264 143.08 78.4464 142.952 78.6064 142.776C78.7664 142.584 78.8464 142.24 78.8464 141.744V134.592C78.8464 134.08 78.7344 133.72 78.5104 133.512C78.2864 133.288 77.7744 133.128 76.9744 133.032V132.432L80.5984 131.376H80.9344V133.128H81.0784C81.8464 132.456 82.5584 131.984 83.2144 131.712C83.8704 131.424 84.6384 131.28 85.5184 131.28C86.6544 131.28 87.5424 131.568 88.1824 132.144C88.8384 132.704 89.1664 133.504 89.1664 134.544V141.744C89.1664 142.24 89.2464 142.584 89.4064 142.776C89.5664 142.952 89.8864 143.08 90.3664 143.16L91.0864 143.28V144H85.0864V143.28L85.8064 143.16C86.2864 143.08 86.6064 142.952 86.7664 142.776C86.9264 142.584 87.0064 142.24 87.0064 141.744V135.264C87.0064 134.672 86.9024 134.192 86.6944 133.824C86.4864 133.456 86.1744 133.184 85.7584 133.008C85.3584 132.816 84.8384 132.72 84.1984 132.72C83.5744 132.72 83.0144 132.832 82.5184 133.056C82.0224 133.264 81.5184 133.6 81.0064 134.064V141.744C81.0064 142.24 81.0864 142.584 81.2464 142.776C81.4064 142.952 81.7264 143.08 82.2064 143.16L82.9264 143.28V144H76.9264ZM98.719 144.24C97.439 144.24 96.311 143.968 95.335 143.424C94.359 142.88 93.599 142.12 93.055 141.144C92.511 140.168 92.239 139.04 92.239 137.76C92.239 136.544 92.511 135.448 93.055 134.472C93.599 133.496 94.351 132.72 95.311 132.144C96.287 131.568 97.423 131.28 98.719 131.28C100.015 131.28 101.151 131.552 102.127 132.096C103.103 132.64 103.863 133.4 104.407 134.376C104.951 135.336 105.223 136.456 105.223 137.736C105.223 138.952 104.951 140.056 104.407 141.048C103.863 142.024 103.103 142.8 102.127 143.376C101.167 143.952 100.031 144.24 98.719 144.24ZM99.103 143.304C100.191 143.304 101.095 142.896 101.815 142.08C102.535 141.264 102.895 140.032 102.895 138.384C102.895 137.296 102.719 136.288 102.367 135.36C102.031 134.416 101.527 133.656 100.855 133.08C100.183 132.504 99.351 132.216 98.359 132.216C97.271 132.216 96.367 132.624 95.647 133.44C94.927 134.256 94.567 135.496 94.567 137.16C94.567 138.232 94.735 139.24 95.071 140.184C95.423 141.112 95.935 141.864 96.607 142.44C97.279 143.016 98.111 143.304 99.103 143.304ZM106.622 144V143.28L107.342 143.16C107.822 143.08 108.142 142.952 108.302 142.776C108.462 142.584 108.542 142.24 108.542 141.744V134.592C108.542 134.08 108.43 133.72 108.206 133.512C107.982 133.288 107.47 133.128 106.67 133.032V132.432L110.294 131.376H110.63V133.128H110.774C111.542 132.456 112.246 131.984 112.886 131.712C113.526 131.424 114.214 131.28 114.95 131.28C115.654 131.28 116.278 131.424 116.822 131.712C117.382 131.984 117.766 132.48 117.974 133.2H118.094C118.926 132.496 119.662 132 120.302 131.712C120.958 131.424 121.654 131.28 122.39 131.28C122.982 131.28 123.518 131.376 123.998 131.568C124.478 131.744 124.862 132.048 125.15 132.48C125.438 132.896 125.582 133.48 125.582 134.232V141.744C125.582 142.24 125.662 142.584 125.822 142.776C125.982 142.952 126.302 143.08 126.782 143.16L127.502 143.28V144H121.502V143.28L122.222 143.16C122.702 143.08 123.022 142.952 123.182 142.776C123.342 142.584 123.422 142.24 123.422 141.744V134.952C123.422 134.312 123.326 133.832 123.134 133.512C122.958 133.192 122.71 132.984 122.39 132.888C122.07 132.776 121.702 132.72 121.286 132.72C120.694 132.72 120.158 132.832 119.678 133.056C119.198 133.264 118.686 133.6 118.142 134.064V141.744C118.142 142.24 118.222 142.584 118.382 142.776C118.542 142.952 118.862 143.08 119.342 143.16L120.062 143.28V144H114.062V143.28L114.782 143.16C115.262 143.08 115.582 142.952 115.742 142.776C115.902 142.584 115.982 142.24 115.982 141.744V134.952C115.982 134.312 115.886 133.832 115.694 133.512C115.518 133.192 115.27 132.984 114.95 132.888C114.63 132.776 114.262 132.72 113.846 132.72C113.254 132.72 112.71 132.832 112.214 133.056C111.718 133.264 111.214 133.6 110.702 134.064V141.744C110.702 142.24 110.782 142.584 110.942 142.776C111.102 142.952 111.422 143.08 111.902 143.16L112.622 143.28V144H106.622ZM128.348 144V143.28L129.068 143.16C129.548 143.08 129.868 142.952 130.028 142.776C130.188 142.584 130.268 142.24 130.268 141.744V134.592C130.268 134.08 130.156 133.72 129.932 133.512C129.708 133.288 129.196 133.128 128.396 133.032V132.432L132.092 131.376H132.428V141.744C132.428 142.24 132.508 142.584 132.668 142.776C132.828 142.952 133.148 143.08 133.628 143.16L134.348 143.28V144H128.348ZM131.108 129.528C130.708 129.528 130.372 129.4 130.1 129.144C129.828 128.872 129.692 128.528 129.692 128.112C129.692 127.696 129.828 127.36 130.1 127.104C130.372 126.848 130.708 126.72 131.108 126.72C131.492 126.72 131.82 126.848 132.092 127.104C132.364 127.36 132.5 127.696 132.5 128.112C132.5 128.528 132.364 128.872 132.092 129.144C131.82 129.4 131.492 129.528 131.108 129.528ZM141.575 144.24C140.407 144.24 139.367 143.968 138.455 143.424C137.559 142.864 136.855 142.112 136.343 141.168C135.831 140.208 135.575 139.128 135.575 137.928C135.575 136.648 135.855 135.512 136.415 134.52C136.991 133.512 137.775 132.72 138.767 132.144C139.759 131.568 140.879 131.28 142.127 131.28C142.959 131.28 143.679 131.392 144.287 131.616C144.911 131.84 145.391 132.112 145.727 132.432C146.079 132.752 146.255 133.056 146.255 133.344C146.255 133.6 146.127 133.816 145.871 133.992C145.615 134.152 145.335 134.248 145.031 134.28C144.727 134.312 144.495 134.264 144.335 134.136L142.799 132.768C142.591 132.576 142.383 132.448 142.175 132.384C141.967 132.304 141.703 132.264 141.383 132.264C140.647 132.264 140.007 132.48 139.463 132.912C138.919 133.344 138.495 133.928 138.191 134.664C137.903 135.384 137.759 136.192 137.759 137.088C137.759 138.144 137.959 139.08 138.359 139.896C138.775 140.712 139.343 141.36 140.063 141.84C140.799 142.304 141.631 142.536 142.559 142.536C143.119 142.536 143.671 142.44 144.215 142.248C144.759 142.056 145.327 141.736 145.919 141.288L146.399 141.744C145.647 142.624 144.879 143.264 144.095 143.664C143.311 144.048 142.471 144.24 141.575 144.24ZM151.721 144.24C151.113 144.24 150.465 144.168 149.777 144.024C149.105 143.88 148.553 143.688 148.121 143.448V140.208H148.817C148.993 141.328 149.377 142.136 149.969 142.632C150.577 143.112 151.265 143.352 152.033 143.352C152.769 143.352 153.345 143.16 153.761 142.776C154.177 142.392 154.385 141.888 154.385 141.264C154.385 140.704 154.217 140.272 153.881 139.968C153.561 139.648 153.121 139.344 152.561 139.056L150.833 138.144C149.809 137.6 149.129 137.056 148.793 136.512C148.457 135.968 148.289 135.424 148.289 134.88C148.289 134.16 148.481 133.536 148.865 133.008C149.265 132.464 149.809 132.04 150.497 131.736C151.185 131.432 151.969 131.28 152.849 131.28C153.441 131.28 153.993 131.344 154.505 131.472C155.033 131.6 155.505 131.76 155.921 131.952V134.736H155.225C155.129 134.272 154.969 133.848 154.745 133.464C154.521 133.08 154.217 132.768 153.833 132.528C153.465 132.288 152.993 132.168 152.417 132.168C151.697 132.168 151.145 132.352 150.761 132.72C150.377 133.088 150.185 133.544 150.185 134.088C150.185 134.536 150.321 134.928 150.593 135.264C150.881 135.6 151.345 135.936 151.985 136.272L153.569 137.088C154.465 137.536 155.137 138 155.585 138.48C156.049 138.96 156.281 139.6 156.281 140.4C156.281 141.232 156.065 141.936 155.633 142.512C155.201 143.072 154.633 143.504 153.929 143.808C153.241 144.096 152.505 144.24 151.721 144.24Z" fill="#0E334D"/>
<g filter="url(#filter0_d_583_22212)">
<rect x="56" y="31" width="80" height="80" rx="16.25" fill="#EBE6DB"/>
<rect width="76" height="76" transform="translate(58 33)" fill="#EBE6DB"/>
<path d="M93.6282 55.711C103.056 55.711 110.698 63.3536 110.698 72.7813C110.698 82.209 103.056 89.8516 93.6282 89.8516C90.0637 89.8516 86.7544 88.7591 84.0169 86.8907C82.5348 85.8896 80.3801 85.9922 79.3411 87.3653C78.266 88.7859 78.6062 91.0165 80.1882 92.0039C83.9943 94.67 88.6285 96.2344 93.6282 96.2344C106.581 96.2344 117.081 85.7341 117.081 72.7813C117.081 59.8285 106.581 49.3282 93.6282 49.3282C89.9118 49.3282 86.3972 50.1926 83.2747 51.7313L86.2063 57.4045C88.4505 56.3193 90.9683 55.711 93.6282 55.711Z" fill="#286195"/>
<path d="M93.623 49.3282C106.576 49.3282 117.076 59.8285 117.076 72.7813C117.076 85.7341 106.576 96.2344 93.623 96.2344C90.9623 96.2344 89.6152 97.5332 89.6152 99.3887C89.6152 101.244 90.9883 102.617 93.623 102.617C110.101 102.617 123.459 89.2592 123.459 72.7813C123.459 56.3033 110.101 42.9453 93.623 42.9453C88.8647 42.9453 84.3665 44.0593 80.375 46.0405L83.2695 51.7403C86.3828 50.2129 89.9213 49.3282 93.623 49.3282Z" fill="#367CAF"/>
<path d="M93.627 43.0196C110.064 43.0196 123.389 56.3443 123.389 72.7813C123.389 84.116 117.052 93.9708 107.729 98.9967C106.281 99.7769 104.903 101.467 105.836 103.508C106.769 105.549 109.25 105.424 110.66 104.669C122.034 98.5804 129.771 86.5844 129.771 72.7813C129.771 52.8192 113.589 36.6367 93.627 36.6367C87.8253 36.6367 82.343 38.0036 77.4844 40.4329L80.416 46.105C84.3965 44.1299 88.8821 43.0196 93.627 43.0196Z" fill="#4BA6D2"/>
<circle cx="93.8477" cy="72.8555" r="10.168" fill="#EC7655"/>
</g>
<defs>
<filter id="filter0_d_583_22212" x="48.7083" y="26.8333" width="92.5" height="92.5" filterUnits="userSpaceOnUse" color-interpolation-filters="sRGB">
<feFlood flood-opacity="0" result="BackgroundImageFix"/>
<feColorMatrix in="SourceAlpha" type="matrix" values="0 0 0 0 0 0 0 0 0 0 0 0 0 0 0 0 0 0 127 0" result="hardAlpha"/>
<feOffset dx="-1.04167" dy="2.08333"/>
<feGaussianBlur stdDeviation="3.125"/>
<feComposite in2="hardAlpha" operator="out"/>
<feColorMatrix type="matrix" values="0 0 0 0 0 0 0 0 0 0 0 0 0 0 0 0 0 0 0.25 0"/>
<feBlend mode="normal" in2="BackgroundImageFix" result="effect1_dropShadow_583_22212"/>
<feBlend mode="normal" in="SourceGraphic" in2="effect1_dropShadow_583_22212" result="shape"/>
</filter>
<linearGradient id="paint0_linear_583_22212" x1="10.0588" y1="-1.88288e-06" x2="80.4706" y2="180" gradientUnits="userSpaceOnUse">
<stop stop-color="#F0E6D4"/>
<stop offset="1" stop-color="#C2B499"/>
</linearGradient>
</defs>
</svg>
