<svg width="180" height="180" viewBox="0 0 180 180" fill="none" xmlns="http://www.w3.org/2000/svg">
<g clip-path="url(#clip0_583_22221)">
<g filter="url(#filter0_d_583_22221)">
<rect width="180" height="180" rx="36.5625" fill="#EBE6DB"/>
<rect width="171" height="171" transform="translate(4.5 4.5)" fill="#EBE6DB"/>
<path d="M84.6556 55.5997C105.868 55.5997 123.064 72.7956 123.064 94.0079C123.064 115.22 105.868 132.416 84.6556 132.416C76.6355 132.416 69.1896 129.958 63.0301 125.754C59.6955 123.502 54.8475 123.732 52.5096 126.822C50.0907 130.018 50.8562 135.037 54.4157 137.259C62.9793 143.257 73.4064 146.777 84.6556 146.777C113.799 146.777 137.425 123.152 137.425 94.0079C137.425 64.8641 113.799 41.2383 84.6556 41.2383C76.2936 41.2383 68.3859 43.1833 61.3602 46.6455L67.9564 59.4102C73.0058 56.9685 78.6708 55.5997 84.6556 55.5997Z" fill="#286195"/>
<path d="M84.6597 41.2383C113.803 41.2383 137.429 64.8641 137.429 94.0079C137.429 123.152 113.803 146.777 84.6597 146.777C78.6729 146.777 75.6421 149.7 75.6421 153.875C75.6421 158.049 78.7314 161.139 84.6597 161.139C121.735 161.139 151.791 131.083 151.791 94.0079C151.791 56.9325 121.735 26.877 84.6597 26.877C73.9533 26.877 63.8324 29.3833 54.8516 33.8412L61.3643 46.6656C68.3691 43.2291 76.3308 41.2383 84.6597 41.2383Z" fill="#367CAF"/>
<path d="M84.6567 27.044C121.64 27.044 151.621 57.0247 151.621 94.0079C151.621 119.511 137.364 141.684 116.385 152.993C113.129 154.748 110.028 158.55 112.127 163.143C114.226 167.735 119.809 167.453 122.981 165.755C148.573 152.056 165.982 125.065 165.982 94.0079C165.982 49.0932 129.571 12.6827 84.6567 12.6827C71.6031 12.6827 59.2679 15.7581 48.3359 21.224L54.9321 33.9862C63.8883 29.5423 73.9808 27.044 84.6567 27.044Z" fill="#4BA6D2"/>
<circle cx="85.1592" cy="94.1749" r="22.8779" fill="#EC7655"/>
</g>
</g>
<defs>
<filter id="filter0_d_583_22221" x="-16.4062" y="-9.375" width="208.125" height="208.125" filterUnits="userSpaceOnUse" color-interpolation-filters="sRGB">
<feFlood flood-opacity="0" result="BackgroundImageFix"/>
<feColorMatrix in="SourceAlpha" type="matrix" values="0 0 0 0 0 0 0 0 0 0 0 0 0 0 0 0 0 0 127 0" result="hardAlpha"/>
<feOffset dx="-2.34375" dy="4.6875"/>
<feGaussianBlur stdDeviation="7.03125"/>
<feComposite in2="hardAlpha" operator="out"/>
<feColorMatrix type="matrix" values="0 0 0 0 0 0 0 0 0 0 0 0 0 0 0 0 0 0 0.25 0"/>
<feBlend mode="normal" in2="BackgroundImageFix" result="effect1_dropShadow_583_22221"/>
<feBlend mode="normal" in="SourceGraphic" in2="effect1_dropShadow_583_22221" result="shape"/>
</filter>
<clipPath id="clip0_583_22221">
<rect width="180" height="180" fill="white"/>
</clipPath>
</defs>
</svg>
