<svg width="1200" height="630" viewBox="0 0 1200 630" fill="none" xmlns="http://www.w3.org/2000/svg">
<path d="M0 38.5883C0 17.2766 17.2765 0 38.5882 0H1161.41C1182.72 0 1200 17.2765 1200 38.5882V591.412C1200 612.723 1182.72 630 1161.41 630H38.5883C17.2766 630 0 612.723 0 591.412V38.5883Z" fill="url(#paint0_linear_583_22183)"/>
<path d="M538.62 292.208V238.544L528.444 238.928C525.372 239.056 522.972 239.472 521.244 240.176C519.58 240.88 518.3 242.16 517.404 244.016C516.572 245.808 515.868 248.432 515.292 251.888H512.316L513.18 234.224C515.036 234.416 517.18 234.576 519.612 234.704C522.108 234.768 524.572 234.8 527.004 234.8H559.26C561.308 234.8 563.58 234.768 566.076 234.704C568.636 234.576 570.972 234.416 573.084 234.224L573.948 251.888H570.972C570.396 248.432 569.66 245.808 568.764 244.016C567.932 242.16 566.652 240.88 564.924 240.176C563.26 239.472 560.892 239.056 557.82 238.928L547.644 238.544V292.208C547.644 293.68 547.836 294.896 548.22 295.856C548.604 296.752 549.308 297.424 550.332 297.872C551.42 298.32 552.892 298.64 554.748 298.832L557.724 299.12V302H528.54V299.12L531.516 298.832C533.436 298.64 534.908 298.32 535.932 297.872C536.956 297.424 537.66 296.752 538.044 295.856C538.428 294.896 538.62 293.68 538.62 292.208ZM596.415 302.96C591.295 302.96 586.783 301.872 582.879 299.696C578.975 297.52 575.935 294.48 573.759 290.576C571.583 286.672 570.495 282.16 570.495 277.04C570.495 272.176 571.583 267.792 573.759 263.888C575.935 259.984 578.943 256.88 582.783 254.576C586.687 252.272 591.231 251.12 596.415 251.12C601.599 251.12 606.143 252.208 610.047 254.384C613.951 256.56 616.991 259.6 619.167 263.504C621.343 267.344 622.431 271.824 622.431 276.944C622.431 281.808 621.343 286.224 619.167 290.192C616.991 294.096 613.951 297.2 610.047 299.504C606.207 301.808 601.663 302.96 596.415 302.96ZM597.951 299.216C602.303 299.216 605.919 297.584 608.799 294.32C611.679 291.056 613.119 286.128 613.119 279.536C613.119 275.184 612.415 271.152 611.007 267.44C609.663 263.664 607.647 260.624 604.959 258.32C602.271 256.016 598.943 254.864 594.975 254.864C590.623 254.864 587.007 256.496 584.127 259.76C581.247 263.024 579.807 267.984 579.807 274.64C579.807 278.928 580.479 282.96 581.823 286.736C583.231 290.448 585.279 293.456 587.967 295.76C590.655 298.064 593.983 299.216 597.951 299.216ZM627.258 302V299.12L630.138 298.64C632.058 298.32 633.338 297.808 633.978 297.104C634.618 296.336 634.938 294.96 634.938 292.976V238.064C634.938 236.016 634.49 234.576 633.594 233.744C632.698 232.848 630.65 232.208 627.45 231.824V229.424L642.234 225.2H643.578V292.976C643.578 294.96 643.898 296.336 644.538 297.104C645.178 297.808 646.458 298.32 648.378 298.64L651.258 299.12V302H627.258ZM657.114 302V299.12L659.226 299.024C661.146 298.896 662.33 298.48 662.778 297.776C663.29 297.072 663.354 296.176 662.97 295.088C662.586 294 662.01 292.848 661.242 291.632L650.49 274.16L656.634 268.592L670.746 291.632C672.282 294.128 673.722 295.952 675.066 297.104C676.474 298.192 677.914 298.8 679.386 298.928L681.306 299.12V302H657.114ZM640.506 286.16L637.818 283.664L661.05 261.776C663.29 259.728 664.282 258.128 664.026 256.976C663.77 255.76 662.394 255.12 659.898 255.056L657.594 254.96V252.08H681.306V254.96C678.746 255.088 676.57 255.504 674.778 256.208C672.986 256.848 671.162 258 669.306 259.664L640.506 286.16ZM706.332 302.96C701.596 302.96 697.436 301.872 693.852 299.696C690.268 297.456 687.484 294.448 685.5 290.672C683.58 286.896 682.62 282.64 682.62 277.904C682.62 272.72 683.74 268.112 685.98 264.08C688.284 260.048 691.356 256.88 695.196 254.576C699.036 252.272 703.26 251.12 707.868 251.12C712.924 251.12 716.988 252.56 720.06 255.44C723.132 258.32 724.668 262.512 724.668 268.016C724.668 268.4 724.668 268.816 724.668 269.264C724.668 269.648 724.604 270.192 724.476 270.896L724.284 272.24H689.82V268.592H715.164C715.356 267.312 715.452 266.128 715.452 265.04C715.452 261.84 714.62 259.344 712.956 257.552C711.292 255.76 708.892 254.864 705.756 254.864C701.468 254.864 697.98 256.56 695.292 259.952C692.668 263.344 691.356 267.888 691.356 273.584C691.356 277.872 692.124 281.744 693.66 285.2C695.26 288.592 697.5 291.28 700.38 293.264C703.324 295.184 706.78 296.144 710.748 296.144C712.988 296.144 715.164 295.76 717.276 294.992C719.388 294.224 721.628 292.944 723.996 291.152L725.916 292.976C722.844 296.496 719.74 299.056 716.604 300.656C713.468 302.192 710.044 302.96 706.332 302.96ZM730.87 302V299.12L733.75 298.64C735.67 298.32 736.95 297.808 737.59 297.104C738.23 296.336 738.55 294.96 738.55 292.976V264.368C738.55 262.32 738.102 260.88 737.206 260.048C736.31 259.152 734.262 258.512 731.062 258.128V255.728L745.558 251.504H746.902V258.512H747.478C750.55 255.824 753.398 253.936 756.022 252.848C758.646 251.696 761.718 251.12 765.238 251.12C769.782 251.12 773.334 252.272 775.894 254.576C778.518 256.816 779.83 260.016 779.83 264.176V292.976C779.83 294.96 780.15 296.336 780.79 297.104C781.43 297.808 782.71 298.32 784.63 298.64L787.51 299.12V302H763.51V299.12L766.39 298.64C768.31 298.32 769.59 297.808 770.23 297.104C770.87 296.336 771.19 294.96 771.19 292.976V267.056C771.19 264.688 770.774 262.768 769.942 261.296C769.11 259.824 767.862 258.736 766.198 258.032C764.598 257.264 762.518 256.88 759.958 256.88C757.462 256.88 755.222 257.328 753.238 258.224C751.254 259.056 749.238 260.4 747.19 262.256V292.976C747.19 294.96 747.51 296.336 748.15 297.104C748.79 297.808 750.07 298.32 751.99 298.64L754.87 299.12V302H730.87ZM818.04 302.96C812.92 302.96 808.408 301.872 804.504 299.696C800.6 297.52 797.56 294.48 795.384 290.576C793.208 286.672 792.12 282.16 792.12 277.04C792.12 272.176 793.208 267.792 795.384 263.888C797.56 259.984 800.568 256.88 804.408 254.576C808.312 252.272 812.856 251.12 818.04 251.12C823.224 251.12 827.768 252.208 831.672 254.384C835.576 256.56 838.616 259.6 840.792 263.504C842.968 267.344 844.056 271.824 844.056 276.944C844.056 281.808 842.968 286.224 840.792 290.192C838.616 294.096 835.576 297.2 831.672 299.504C827.832 301.808 823.288 302.96 818.04 302.96ZM819.576 299.216C823.928 299.216 827.544 297.584 830.424 294.32C833.304 291.056 834.744 286.128 834.744 279.536C834.744 275.184 834.04 271.152 832.632 267.44C831.288 263.664 829.272 260.624 826.584 258.32C823.896 256.016 820.568 254.864 816.6 254.864C812.248 254.864 808.632 256.496 805.752 259.76C802.872 263.024 801.432 267.984 801.432 274.64C801.432 278.928 802.104 282.96 803.448 286.736C804.856 290.448 806.904 293.456 809.592 295.76C812.28 298.064 815.608 299.216 819.576 299.216ZM849.651 302V299.12L852.531 298.64C854.451 298.32 855.731 297.808 856.371 297.104C857.011 296.336 857.331 294.96 857.331 292.976V264.368C857.331 262.32 856.883 260.88 855.987 260.048C855.091 259.152 853.043 258.512 849.843 258.128V255.728L864.339 251.504H865.683V258.512H866.259C869.331 255.824 872.147 253.936 874.707 252.848C877.267 251.696 880.019 251.12 882.963 251.12C885.779 251.12 888.275 251.696 890.451 252.848C892.691 253.936 894.227 255.92 895.059 258.8H895.539C898.867 255.984 901.811 254 904.371 252.848C906.995 251.696 909.779 251.12 912.723 251.12C915.091 251.12 917.235 251.504 919.155 252.272C921.075 252.976 922.611 254.192 923.763 255.92C924.915 257.584 925.491 259.92 925.491 262.928V292.976C925.491 294.96 925.811 296.336 926.451 297.104C927.091 297.808 928.371 298.32 930.291 298.64L933.171 299.12V302H909.171V299.12L912.051 298.64C913.971 298.32 915.251 297.808 915.891 297.104C916.531 296.336 916.851 294.96 916.851 292.976V265.808C916.851 263.248 916.467 261.328 915.699 260.048C914.995 258.768 914.003 257.936 912.723 257.552C911.443 257.104 909.971 256.88 908.307 256.88C905.939 256.88 903.795 257.328 901.875 258.224C899.955 259.056 897.907 260.4 895.731 262.256V292.976C895.731 294.96 896.051 296.336 896.691 297.104C897.331 297.808 898.611 298.32 900.531 298.64L903.411 299.12V302H879.411V299.12L882.291 298.64C884.211 298.32 885.491 297.808 886.131 297.104C886.771 296.336 887.091 294.96 887.091 292.976V265.808C887.091 263.248 886.707 261.328 885.939 260.048C885.235 258.768 884.243 257.936 882.963 257.552C881.683 257.104 880.211 256.88 878.547 256.88C876.179 256.88 874.003 257.328 872.019 258.224C870.035 259.056 868.019 260.4 865.971 262.256V292.976C865.971 294.96 866.291 296.336 866.931 297.104C867.571 297.808 868.851 298.32 870.771 298.64L873.651 299.12V302H849.651ZM936.557 302V299.12L939.437 298.64C941.357 298.32 942.637 297.808 943.277 297.104C943.917 296.336 944.237 294.96 944.237 292.976V264.368C944.237 262.32 943.789 260.88 942.893 260.048C941.997 259.152 939.949 258.512 936.749 258.128V255.728L951.533 251.504H952.877V292.976C952.877 294.96 953.197 296.336 953.837 297.104C954.477 297.808 955.757 298.32 957.677 298.64L960.557 299.12V302H936.557ZM947.597 244.112C945.997 244.112 944.653 243.6 943.565 242.576C942.477 241.488 941.933 240.112 941.933 238.448C941.933 236.784 942.477 235.44 943.565 234.416C944.653 233.392 945.997 232.88 947.597 232.88C949.133 232.88 950.445 233.392 951.533 234.416C952.621 235.44 953.165 236.784 953.165 238.448C953.165 240.112 952.621 241.488 951.533 242.576C950.445 243.6 949.133 244.112 947.597 244.112ZM989.464 302.96C984.792 302.96 980.632 301.872 976.984 299.696C973.4 297.456 970.584 294.448 968.536 290.672C966.488 286.832 965.464 282.512 965.464 277.712C965.464 272.592 966.584 268.048 968.824 264.08C971.128 260.048 974.264 256.88 978.232 254.576C982.2 252.272 986.68 251.12 991.672 251.12C995 251.12 997.88 251.568 1000.31 252.464C1002.81 253.36 1004.73 254.448 1006.07 255.728C1007.48 257.008 1008.18 258.224 1008.18 259.376C1008.18 260.4 1007.67 261.264 1006.65 261.968C1005.62 262.608 1004.5 262.992 1003.29 263.12C1002.07 263.248 1001.14 263.056 1000.5 262.544L994.36 257.072C993.528 256.304 992.696 255.792 991.864 255.536C991.032 255.216 989.976 255.056 988.696 255.056C985.752 255.056 983.192 255.92 981.016 257.648C978.84 259.376 977.144 261.712 975.928 264.656C974.776 267.536 974.2 270.768 974.2 274.352C974.2 278.576 975 282.32 976.6 285.584C978.264 288.848 980.536 291.44 983.416 293.36C986.36 295.216 989.688 296.144 993.4 296.144C995.64 296.144 997.848 295.76 1000.02 294.992C1002.2 294.224 1004.47 292.944 1006.84 291.152L1008.76 292.976C1005.75 296.496 1002.68 299.056 999.544 300.656C996.408 302.192 993.048 302.96 989.464 302.96ZM1030.05 302.96C1027.62 302.96 1025.03 302.672 1022.27 302.096C1019.59 301.52 1017.38 300.752 1015.65 299.792V286.832H1018.43C1019.14 291.312 1020.67 294.544 1023.04 296.528C1025.47 298.448 1028.23 299.408 1031.3 299.408C1034.24 299.408 1036.55 298.64 1038.21 297.104C1039.87 295.568 1040.71 293.552 1040.71 291.056C1040.71 288.816 1040.03 287.088 1038.69 285.872C1037.41 284.592 1035.65 283.376 1033.41 282.224L1026.5 278.576C1022.4 276.4 1019.68 274.224 1018.34 272.048C1016.99 269.872 1016.32 267.696 1016.32 265.52C1016.32 262.64 1017.09 260.144 1018.63 258.032C1020.23 255.856 1022.4 254.16 1025.15 252.944C1027.91 251.728 1031.04 251.12 1034.56 251.12C1036.93 251.12 1039.14 251.376 1041.19 251.888C1043.3 252.4 1045.19 253.04 1046.85 253.808V264.944H1044.07C1043.68 263.088 1043.04 261.392 1042.15 259.856C1041.25 258.32 1040.03 257.072 1038.5 256.112C1037.03 255.152 1035.14 254.672 1032.83 254.672C1029.95 254.672 1027.75 255.408 1026.21 256.88C1024.67 258.352 1023.91 260.176 1023.91 262.352C1023.91 264.144 1024.45 265.712 1025.54 267.056C1026.69 268.4 1028.55 269.744 1031.11 271.088L1037.44 274.352C1041.03 276.144 1043.71 278 1045.51 279.92C1047.36 281.84 1048.29 284.4 1048.29 287.6C1048.29 290.928 1047.43 293.744 1045.7 296.048C1043.97 298.288 1041.7 300.016 1038.88 301.232C1036.13 302.384 1033.19 302.96 1030.05 302.96Z" fill="#0D324D"/>
<path d="M516.188 367L525.476 341.8H528.068L537.356 367H534.692L526.772 345.112L518.816 367H516.188ZM520.436 360.196L521.192 358.108H532.316L533.072 360.196H520.436ZM541.363 367V341.8H543.883V367H541.363ZM565.266 367V343.888H557.706V341.8H575.346V343.888H567.786V367H565.266ZM583.767 367.432C582.111 367.432 580.611 367.048 579.267 366.28C577.947 365.488 576.903 364.384 576.135 362.968C575.367 361.528 574.983 359.86 574.983 357.964C574.983 355.996 575.367 354.304 576.135 352.888C576.927 351.472 577.995 350.38 579.339 349.612C580.683 348.82 582.183 348.424 583.839 348.424C585.567 348.424 587.091 348.82 588.411 349.612C589.731 350.38 590.775 351.472 591.543 352.888C592.311 354.304 592.695 355.996 592.695 357.964C592.695 359.86 592.299 361.528 591.507 362.968C590.739 364.384 589.683 365.488 588.339 366.28C587.019 367.048 585.495 367.432 583.767 367.432ZM583.803 365.272C584.931 365.272 585.963 364.996 586.899 364.444C587.859 363.892 588.627 363.076 589.203 361.996C589.803 360.892 590.103 359.536 590.103 357.928C590.103 356.296 589.815 354.94 589.239 353.86C588.663 352.78 587.895 351.976 586.935 351.448C585.999 350.896 584.967 350.62 583.839 350.62C582.759 350.62 581.739 350.896 580.779 351.448C579.819 352 579.039 352.816 578.439 353.896C577.863 354.952 577.575 356.296 577.575 357.928C577.575 359.536 577.863 360.892 578.439 361.996C579.015 363.076 579.771 363.892 580.707 364.444C581.667 364.996 582.699 365.272 583.803 365.272ZM607.989 367L599.097 357.064L607.233 348.856H610.365L601.329 357.892L601.365 356.2L611.229 367H607.989ZM597.009 367V341.08H599.529V367H597.009ZM621.027 367.432C619.347 367.432 617.859 367.036 616.563 366.244C615.291 365.452 614.283 364.348 613.539 362.932C612.819 361.492 612.459 359.812 612.459 357.892C612.459 355.972 612.819 354.304 613.539 352.888C614.259 351.472 615.267 350.38 616.563 349.612C617.883 348.82 619.395 348.424 621.099 348.424C622.851 348.424 624.327 348.82 625.527 349.612C626.751 350.404 627.675 351.436 628.299 352.708C628.947 353.98 629.271 355.372 629.271 356.884C629.271 357.124 629.271 357.376 629.271 357.64C629.271 357.88 629.259 358.168 629.235 358.504H614.367V356.38H626.823C626.775 354.532 626.199 353.104 625.095 352.096C624.015 351.088 622.647 350.584 620.991 350.584C619.911 350.584 618.903 350.836 617.967 351.34C617.055 351.82 616.311 352.54 615.735 353.5C615.183 354.436 614.907 355.624 614.907 357.064V358C614.907 359.632 615.195 360.988 615.771 362.068C616.347 363.148 617.103 363.952 618.039 364.48C618.999 365.008 619.995 365.272 621.027 365.272C622.395 365.272 623.523 364.972 624.411 364.372C625.299 363.748 625.935 362.896 626.319 361.816H628.803C628.491 362.872 627.987 363.832 627.291 364.696C626.619 365.56 625.755 366.232 624.699 366.712C623.643 367.192 622.419 367.432 621.027 367.432ZM633.396 367V348.856H635.7L635.844 352.096C636.42 350.944 637.248 350.044 638.328 349.396C639.432 348.748 640.656 348.424 642 348.424C643.392 348.424 644.604 348.7 645.636 349.252C646.668 349.804 647.472 350.644 648.048 351.772C648.624 352.876 648.912 354.292 648.912 356.02V367H646.392V356.308C646.392 354.388 645.972 352.96 645.132 352.024C644.292 351.088 643.092 350.62 641.532 350.62C640.476 350.62 639.516 350.884 638.652 351.412C637.812 351.916 637.14 352.66 636.636 353.644C636.156 354.628 635.916 355.84 635.916 357.28V367H633.396ZM672.703 367.432C670.999 367.432 669.451 367.096 668.059 366.424C666.691 365.752 665.599 364.708 664.783 363.292C663.967 361.852 663.559 360.028 663.559 357.82V341.8H666.079V357.856C666.079 359.56 666.355 360.964 666.907 362.068C667.483 363.148 668.275 363.94 669.283 364.444C670.291 364.948 671.443 365.2 672.739 365.2C674.059 365.2 675.211 364.948 676.195 364.444C677.179 363.94 677.947 363.148 678.499 362.068C679.051 360.964 679.327 359.56 679.327 357.856V341.8H681.847V357.82C681.847 360.028 681.439 361.852 680.623 363.292C679.807 364.708 678.703 365.752 677.311 366.424C675.943 367.096 674.407 367.432 672.703 367.432ZM693.599 367.432C692.159 367.432 690.887 367.192 689.783 366.712C688.703 366.232 687.827 365.548 687.155 364.66C686.507 363.748 686.111 362.668 685.967 361.42H688.559C688.703 362.116 688.979 362.752 689.387 363.328C689.819 363.904 690.395 364.372 691.115 364.732C691.835 365.068 692.687 365.236 693.671 365.236C694.583 365.236 695.327 365.104 695.903 364.84C696.503 364.552 696.947 364.18 697.235 363.724C697.547 363.244 697.703 362.716 697.703 362.14C697.703 361.348 697.511 360.736 697.127 360.304C696.767 359.848 696.239 359.512 695.543 359.296C694.847 359.08 694.007 358.876 693.023 358.684C692.207 358.54 691.427 358.348 690.683 358.108C689.939 357.868 689.267 357.556 688.667 357.172C688.091 356.788 687.635 356.308 687.299 355.732C686.963 355.132 686.795 354.436 686.795 353.644C686.795 352.612 687.047 351.712 687.551 350.944C688.079 350.152 688.823 349.54 689.783 349.108C690.743 348.652 691.871 348.424 693.167 348.424C695.015 348.424 696.527 348.892 697.703 349.828C698.879 350.74 699.563 352.084 699.755 353.86H697.235C697.139 352.876 696.731 352.096 696.011 351.52C695.291 350.944 694.319 350.656 693.095 350.656C691.895 350.656 690.971 350.908 690.323 351.412C689.699 351.892 689.387 352.552 689.387 353.392C689.387 353.92 689.555 354.376 689.891 354.76C690.227 355.144 690.719 355.48 691.367 355.768C692.039 356.032 692.855 356.26 693.815 356.452C694.967 356.668 696.023 356.956 696.983 357.316C697.967 357.652 698.759 358.18 699.359 358.9C699.983 359.596 700.295 360.592 700.295 361.888C700.319 362.968 700.055 363.928 699.503 364.768C698.951 365.608 698.171 366.268 697.163 366.748C696.155 367.204 694.967 367.432 693.599 367.432ZM710.559 367.432C709.095 367.432 707.871 367.168 706.887 366.64C705.927 366.112 705.207 365.428 704.727 364.588C704.271 363.748 704.043 362.824 704.043 361.816C704.043 360.568 704.355 359.512 704.979 358.648C705.627 357.784 706.527 357.136 707.679 356.704C708.831 356.272 710.175 356.056 711.711 356.056H716.607C716.607 354.88 716.427 353.884 716.067 353.068C715.707 352.252 715.179 351.64 714.483 351.232C713.787 350.8 712.911 350.584 711.855 350.584C710.631 350.584 709.575 350.896 708.687 351.52C707.799 352.144 707.247 353.056 707.031 354.256H704.403C704.547 352.984 704.979 351.916 705.699 351.052C706.443 350.188 707.355 349.54 708.435 349.108C709.515 348.652 710.655 348.424 711.855 348.424C713.535 348.424 714.903 348.748 715.959 349.396C717.015 350.02 717.807 350.884 718.335 351.988C718.863 353.092 719.127 354.364 719.127 355.804V367H716.823L716.679 363.688C716.463 364.192 716.163 364.672 715.779 365.128C715.419 365.584 714.987 365.98 714.483 366.316C714.003 366.652 713.439 366.916 712.791 367.108C712.143 367.324 711.399 367.432 710.559 367.432ZM710.847 365.236C711.735 365.236 712.527 365.056 713.223 364.696C713.943 364.312 714.555 363.82 715.059 363.22C715.563 362.62 715.947 361.948 716.211 361.204C716.475 360.436 716.607 359.644 716.607 358.828V358.18H711.891C710.619 358.18 709.599 358.336 708.831 358.648C708.063 358.96 707.511 359.38 707.175 359.908C706.839 360.436 706.671 361.048 706.671 361.744C706.671 362.44 706.827 363.052 707.139 363.58C707.451 364.084 707.919 364.492 708.543 364.804C709.191 365.092 709.959 365.236 710.847 365.236ZM730.908 375.352C729.3 375.352 727.872 375.136 726.624 374.704C725.4 374.272 724.428 373.624 723.708 372.76C723.012 371.896 722.664 370.828 722.664 369.556C722.664 369.052 722.748 368.5 722.916 367.9C723.108 367.324 723.468 366.736 723.996 366.136C724.524 365.536 725.268 364.996 726.228 364.516L728.28 365.416C727.008 366.016 726.18 366.664 725.796 367.36C725.412 368.08 725.22 368.728 725.22 369.304C725.22 370.168 725.46 370.888 725.94 371.464C726.444 372.04 727.116 372.472 727.956 372.76C728.82 373.072 729.804 373.228 730.908 373.228C732.012 373.228 732.96 373.06 733.752 372.724C734.568 372.412 735.192 371.956 735.624 371.356C736.056 370.78 736.272 370.108 736.272 369.34C736.272 368.452 735.924 367.696 735.228 367.072C734.556 366.472 733.296 366.124 731.448 366.028C729.984 365.932 728.772 365.812 727.812 365.668C726.876 365.5 726.096 365.308 725.472 365.092C724.872 364.852 724.368 364.6 723.96 364.336C723.576 364.072 723.204 363.784 722.844 363.472V362.644L726.3 359.368L728.604 360.196L725.22 363.22L725.436 362.248C725.7 362.44 725.952 362.62 726.192 362.788C726.456 362.956 726.792 363.1 727.2 363.22C727.632 363.316 728.22 363.424 728.964 363.544C729.732 363.64 730.764 363.736 732.06 363.832C733.716 363.952 735.036 364.24 736.02 364.696C737.004 365.152 737.724 365.764 738.18 366.532C738.636 367.3 738.864 368.2 738.864 369.232C738.864 370.264 738.576 371.248 738 372.184C737.448 373.12 736.584 373.876 735.408 374.452C734.256 375.052 732.756 375.352 730.908 375.352ZM730.872 361.24C729.336 361.24 728.04 360.952 726.984 360.376C725.952 359.8 725.16 359.032 724.608 358.072C724.056 357.088 723.78 356.008 723.78 354.832C723.78 353.632 724.056 352.552 724.608 351.592C725.16 350.632 725.964 349.864 727.02 349.288C728.076 348.712 729.36 348.424 730.872 348.424C732.408 348.424 733.692 348.712 734.724 349.288C735.78 349.864 736.572 350.632 737.1 351.592C737.652 352.552 737.928 353.632 737.928 354.832C737.928 356.008 737.652 357.088 737.1 358.072C736.572 359.032 735.78 359.8 734.724 360.376C733.692 360.952 732.408 361.24 730.872 361.24ZM730.872 359.08C732.264 359.08 733.356 358.72 734.148 358C734.964 357.256 735.372 356.2 735.372 354.832C735.372 353.44 734.964 352.384 734.148 351.664C733.356 350.944 732.264 350.584 730.872 350.584C729.48 350.584 728.364 350.944 727.524 351.664C726.708 352.384 726.3 353.44 726.3 354.832C726.3 356.2 726.708 357.256 727.524 358C728.34 358.72 729.456 359.08 730.872 359.08ZM733.824 351.124L732.924 348.856H740.268V350.908L733.824 351.124ZM750.824 367.432C749.144 367.432 747.656 367.036 746.36 366.244C745.088 365.452 744.08 364.348 743.336 362.932C742.616 361.492 742.256 359.812 742.256 357.892C742.256 355.972 742.616 354.304 743.336 352.888C744.056 351.472 745.064 350.38 746.36 349.612C747.68 348.82 749.192 348.424 750.896 348.424C752.648 348.424 754.124 348.82 755.324 349.612C756.548 350.404 757.472 351.436 758.096 352.708C758.744 353.98 759.068 355.372 759.068 356.884C759.068 357.124 759.068 357.376 759.068 357.64C759.068 357.88 759.056 358.168 759.032 358.504H744.164V356.38H756.62C756.572 354.532 755.996 353.104 754.892 352.096C753.812 351.088 752.444 350.584 750.788 350.584C749.708 350.584 748.7 350.836 747.764 351.34C746.852 351.82 746.108 352.54 745.532 353.5C744.98 354.436 744.704 355.624 744.704 357.064V358C744.704 359.632 744.992 360.988 745.568 362.068C746.144 363.148 746.9 363.952 747.836 364.48C748.796 365.008 749.792 365.272 750.824 365.272C752.192 365.272 753.32 364.972 754.208 364.372C755.096 363.748 755.732 362.896 756.116 361.816H758.6C758.288 362.872 757.784 363.832 757.088 364.696C756.416 365.56 755.552 366.232 754.496 366.712C753.44 367.192 752.216 367.432 750.824 367.432ZM779.227 367V343.888H771.667V341.8H789.307V343.888H781.747V367H779.227ZM790.826 367V348.856H793.13L793.31 352.348C793.694 351.508 794.21 350.8 794.858 350.224C795.506 349.648 796.286 349.204 797.198 348.892C798.11 348.58 799.142 348.424 800.294 348.424V351.052H799.322C798.554 351.052 797.81 351.16 797.09 351.376C796.37 351.568 795.734 351.904 795.182 352.384C794.63 352.864 794.186 353.512 793.85 354.328C793.514 355.144 793.346 356.164 793.346 357.388V367H790.826ZM809.629 367.432C808.165 367.432 806.941 367.168 805.957 366.64C804.997 366.112 804.277 365.428 803.797 364.588C803.341 363.748 803.113 362.824 803.113 361.816C803.113 360.568 803.425 359.512 804.049 358.648C804.697 357.784 805.597 357.136 806.749 356.704C807.901 356.272 809.245 356.056 810.781 356.056H815.677C815.677 354.88 815.497 353.884 815.137 353.068C814.777 352.252 814.249 351.64 813.553 351.232C812.857 350.8 811.981 350.584 810.925 350.584C809.701 350.584 808.645 350.896 807.757 351.52C806.869 352.144 806.317 353.056 806.101 354.256H803.473C803.617 352.984 804.049 351.916 804.769 351.052C805.513 350.188 806.425 349.54 807.505 349.108C808.585 348.652 809.725 348.424 810.925 348.424C812.605 348.424 813.973 348.748 815.029 349.396C816.085 350.02 816.877 350.884 817.405 351.988C817.933 353.092 818.197 354.364 818.197 355.804V367H815.893L815.749 363.688C815.533 364.192 815.233 364.672 814.849 365.128C814.489 365.584 814.057 365.98 813.553 366.316C813.073 366.652 812.509 366.916 811.861 367.108C811.213 367.324 810.469 367.432 809.629 367.432ZM809.917 365.236C810.805 365.236 811.597 365.056 812.293 364.696C813.013 364.312 813.625 363.82 814.129 363.22C814.633 362.62 815.017 361.948 815.281 361.204C815.545 360.436 815.677 359.644 815.677 358.828V358.18H810.961C809.689 358.18 808.669 358.336 807.901 358.648C807.133 358.96 806.581 359.38 806.245 359.908C805.909 360.436 805.741 361.048 805.741 361.744C805.741 362.44 805.897 363.052 806.209 363.58C806.521 364.084 806.989 364.492 807.613 364.804C808.261 365.092 809.029 365.236 809.917 365.236ZM830.95 367.432C829.27 367.432 827.77 367.036 826.45 366.244C825.13 365.452 824.086 364.348 823.318 362.932C822.55 361.492 822.166 359.836 822.166 357.964C822.166 356.02 822.55 354.352 823.318 352.96C824.086 351.544 825.13 350.44 826.45 349.648C827.794 348.832 829.294 348.424 830.95 348.424C833.062 348.424 834.814 348.976 836.206 350.08C837.622 351.16 838.522 352.6 838.906 354.4H836.386C836.122 353.2 835.486 352.276 834.478 351.628C833.494 350.956 832.306 350.62 830.914 350.62C829.834 350.62 828.826 350.896 827.89 351.448C826.954 351.976 826.198 352.78 825.622 353.86C825.046 354.94 824.758 356.308 824.758 357.964C824.758 359.188 824.926 360.256 825.262 361.168C825.598 362.08 826.054 362.848 826.63 363.472C827.206 364.072 827.866 364.528 828.61 364.84C829.354 365.152 830.122 365.308 830.914 365.308C831.826 365.308 832.654 365.164 833.398 364.876C834.166 364.564 834.814 364.12 835.342 363.544C835.87 362.968 836.218 362.272 836.386 361.456H838.906C838.546 363.208 837.658 364.648 836.242 365.776C834.826 366.88 833.062 367.432 830.95 367.432ZM854.224 367L845.332 357.064L853.468 348.856H856.6L847.564 357.892L847.6 356.2L857.464 367H854.224ZM843.244 367V341.08H845.764V367H843.244ZM861.076 367V348.856H863.56V367H861.076ZM862.336 344.572C861.832 344.572 861.4 344.404 861.04 344.068C860.68 343.708 860.5 343.264 860.5 342.736C860.5 342.184 860.668 341.752 861.004 341.44C861.364 341.104 861.796 340.936 862.3 340.936C862.804 340.936 863.236 341.104 863.596 341.44C863.956 341.752 864.136 342.184 864.136 342.736C864.136 343.264 863.956 343.708 863.596 344.068C863.26 344.404 862.84 344.572 862.336 344.572ZM869.048 367V348.856H871.352L871.496 352.096C872.072 350.944 872.9 350.044 873.98 349.396C875.084 348.748 876.308 348.424 877.652 348.424C879.044 348.424 880.256 348.7 881.288 349.252C882.32 349.804 883.124 350.644 883.7 351.772C884.276 352.876 884.564 354.292 884.564 356.02V367H882.044V356.308C882.044 354.388 881.624 352.96 880.784 352.024C879.944 351.088 878.744 350.62 877.184 350.62C876.128 350.62 875.168 350.884 874.304 351.412C873.464 351.916 872.792 352.66 872.288 353.644C871.808 354.628 871.568 355.84 871.568 357.28V367H869.048ZM896.353 375.352C894.745 375.352 893.317 375.136 892.069 374.704C890.845 374.272 889.873 373.624 889.153 372.76C888.457 371.896 888.109 370.828 888.109 369.556C888.109 369.052 888.193 368.5 888.361 367.9C888.553 367.324 888.913 366.736 889.441 366.136C889.969 365.536 890.713 364.996 891.673 364.516L893.725 365.416C892.453 366.016 891.625 366.664 891.241 367.36C890.857 368.08 890.665 368.728 890.665 369.304C890.665 370.168 890.905 370.888 891.385 371.464C891.889 372.04 892.561 372.472 893.401 372.76C894.265 373.072 895.249 373.228 896.353 373.228C897.457 373.228 898.405 373.06 899.197 372.724C900.013 372.412 900.637 371.956 901.069 371.356C901.501 370.78 901.717 370.108 901.717 369.34C901.717 368.452 901.369 367.696 900.673 367.072C900.001 366.472 898.741 366.124 896.893 366.028C895.429 365.932 894.217 365.812 893.257 365.668C892.321 365.5 891.541 365.308 890.917 365.092C890.317 364.852 889.813 364.6 889.405 364.336C889.021 364.072 888.649 363.784 888.289 363.472V362.644L891.745 359.368L894.049 360.196L890.665 363.22L890.881 362.248C891.145 362.44 891.397 362.62 891.637 362.788C891.901 362.956 892.237 363.1 892.645 363.22C893.077 363.316 893.665 363.424 894.409 363.544C895.177 363.64 896.209 363.736 897.505 363.832C899.161 363.952 900.481 364.24 901.465 364.696C902.449 365.152 903.169 365.764 903.625 366.532C904.081 367.3 904.309 368.2 904.309 369.232C904.309 370.264 904.021 371.248 903.445 372.184C902.893 373.12 902.029 373.876 900.853 374.452C899.701 375.052 898.201 375.352 896.353 375.352ZM896.317 361.24C894.781 361.24 893.485 360.952 892.429 360.376C891.397 359.8 890.605 359.032 890.053 358.072C889.501 357.088 889.225 356.008 889.225 354.832C889.225 353.632 889.501 352.552 890.053 351.592C890.605 350.632 891.409 349.864 892.465 349.288C893.521 348.712 894.805 348.424 896.317 348.424C897.853 348.424 899.137 348.712 900.169 349.288C901.225 349.864 902.017 350.632 902.545 351.592C903.097 352.552 903.373 353.632 903.373 354.832C903.373 356.008 903.097 357.088 902.545 358.072C902.017 359.032 901.225 359.8 900.169 360.376C899.137 360.952 897.853 361.24 896.317 361.24ZM896.317 359.08C897.709 359.08 898.801 358.72 899.593 358C900.409 357.256 900.817 356.2 900.817 354.832C900.817 353.44 900.409 352.384 899.593 351.664C898.801 350.944 897.709 350.584 896.317 350.584C894.925 350.584 893.809 350.944 892.969 351.664C892.153 352.384 891.745 353.44 891.745 354.832C891.745 356.2 892.153 357.256 892.969 358C893.785 358.72 894.901 359.08 896.317 359.08ZM899.269 351.124L898.369 348.856H905.713V350.908L899.269 351.124ZM910.025 367.18C909.497 367.18 909.053 367 908.693 366.64C908.357 366.28 908.189 365.836 908.189 365.308C908.189 364.78 908.357 364.348 908.693 364.012C909.053 363.652 909.497 363.472 910.025 363.472C910.553 363.472 910.985 363.652 911.321 364.012C911.681 364.348 911.861 364.792 911.861 365.344C911.861 365.848 911.681 366.28 911.321 366.64C910.985 367 910.553 367.18 910.025 367.18ZM517.808 414V388.8H520.328L534.26 409.788V388.8H536.78V414H534.26L520.328 392.976V414H517.808ZM549.906 414.432C548.226 414.432 546.738 414.036 545.442 413.244C544.17 412.452 543.162 411.348 542.418 409.932C541.698 408.492 541.338 406.812 541.338 404.892C541.338 402.972 541.698 401.304 542.418 399.888C543.138 398.472 544.146 397.38 545.442 396.612C546.762 395.82 548.274 395.424 549.978 395.424C551.73 395.424 553.206 395.82 554.406 396.612C555.63 397.404 556.554 398.436 557.178 399.708C557.826 400.98 558.15 402.372 558.15 403.884C558.15 404.124 558.15 404.376 558.15 404.64C558.15 404.88 558.138 405.168 558.114 405.504H543.246V403.38H555.702C555.654 401.532 555.078 400.104 553.974 399.096C552.894 398.088 551.526 397.584 549.87 397.584C548.79 397.584 547.782 397.836 546.846 398.34C545.934 398.82 545.19 399.54 544.614 400.5C544.062 401.436 543.786 402.624 543.786 404.064V405C543.786 406.632 544.074 407.988 544.65 409.068C545.226 410.148 545.982 410.952 546.918 411.48C547.878 412.008 548.874 412.272 549.906 412.272C551.274 412.272 552.402 411.972 553.29 411.372C554.178 410.748 554.814 409.896 555.198 408.816H557.682C557.37 409.872 556.866 410.832 556.17 411.696C555.498 412.56 554.634 413.232 553.578 413.712C552.522 414.192 551.298 414.432 549.906 414.432ZM566.9 414L559.988 395.856H562.616L568.376 411.552L574.136 395.856H576.728L569.78 414H566.9ZM587.031 414.432C585.351 414.432 583.863 414.036 582.567 413.244C581.295 412.452 580.287 411.348 579.543 409.932C578.823 408.492 578.463 406.812 578.463 404.892C578.463 402.972 578.823 401.304 579.543 399.888C580.263 398.472 581.271 397.38 582.567 396.612C583.887 395.82 585.399 395.424 587.103 395.424C588.855 395.424 590.331 395.82 591.531 396.612C592.755 397.404 593.679 398.436 594.303 399.708C594.951 400.98 595.275 402.372 595.275 403.884C595.275 404.124 595.275 404.376 595.275 404.64C595.275 404.88 595.263 405.168 595.239 405.504H580.371V403.38H592.827C592.779 401.532 592.203 400.104 591.099 399.096C590.019 398.088 588.651 397.584 586.995 397.584C585.915 397.584 584.907 397.836 583.971 398.34C583.059 398.82 582.315 399.54 581.739 400.5C581.187 401.436 580.911 402.624 580.911 404.064V405C580.911 406.632 581.199 407.988 581.775 409.068C582.351 410.148 583.107 410.952 584.043 411.48C585.003 412.008 585.999 412.272 587.031 412.272C588.399 412.272 589.527 411.972 590.415 411.372C591.303 410.748 591.939 409.896 592.323 408.816H594.807C594.495 409.872 593.991 410.832 593.295 411.696C592.623 412.56 591.759 413.232 590.703 413.712C589.647 414.192 588.423 414.432 587.031 414.432ZM599.4 414V395.856H601.704L601.884 399.348C602.268 398.508 602.784 397.8 603.432 397.224C604.08 396.648 604.86 396.204 605.772 395.892C606.684 395.58 607.716 395.424 608.868 395.424V398.052H607.896C607.128 398.052 606.384 398.16 605.664 398.376C604.944 398.568 604.308 398.904 603.756 399.384C603.204 399.864 602.76 400.512 602.424 401.328C602.088 402.144 601.92 403.164 601.92 404.388V414H599.4ZM622.322 414V395.856H624.626L624.806 399.348C625.19 398.508 625.706 397.8 626.354 397.224C627.002 396.648 627.782 396.204 628.694 395.892C629.606 395.58 630.638 395.424 631.79 395.424V398.052H630.818C630.05 398.052 629.306 398.16 628.586 398.376C627.866 398.568 627.23 398.904 626.678 399.384C626.126 399.864 625.682 400.512 625.346 401.328C625.01 402.144 624.842 403.164 624.842 404.388V414H622.322ZM641.881 414.432C640.513 414.432 639.301 414.168 638.245 413.64C637.213 413.088 636.409 412.26 635.833 411.156C635.257 410.028 634.969 408.588 634.969 406.836V395.856H637.489V406.548C637.489 408.468 637.909 409.896 638.749 410.832C639.613 411.768 640.801 412.236 642.313 412.236C643.393 412.236 644.353 411.984 645.193 411.48C646.057 410.976 646.729 410.232 647.209 409.248C647.713 408.24 647.965 407.016 647.965 405.576V395.856H650.485V414H648.181L648.037 410.76C647.461 411.936 646.621 412.848 645.517 413.496C644.437 414.12 643.225 414.432 641.881 414.432ZM655.615 414V395.856H657.919L658.063 399.096C658.639 397.944 659.467 397.044 660.547 396.396C661.651 395.748 662.875 395.424 664.219 395.424C665.611 395.424 666.823 395.7 667.855 396.252C668.887 396.804 669.691 397.644 670.267 398.772C670.843 399.876 671.131 401.292 671.131 403.02V414H668.611V403.308C668.611 401.388 668.191 399.96 667.351 399.024C666.511 398.088 665.311 397.62 663.751 397.62C662.695 397.62 661.735 397.884 660.871 398.412C660.031 398.916 659.359 399.66 658.855 400.644C658.375 401.628 658.135 402.84 658.135 404.28V414H655.615ZM693.806 414.432C692.15 414.432 690.65 414.048 689.306 413.28C687.986 412.488 686.942 411.384 686.174 409.968C685.406 408.528 685.022 406.86 685.022 404.964C685.022 402.996 685.406 401.304 686.174 399.888C686.966 398.472 688.034 397.38 689.378 396.612C690.722 395.82 692.222 395.424 693.878 395.424C695.606 395.424 697.13 395.82 698.45 396.612C699.77 397.38 700.814 398.472 701.582 399.888C702.35 401.304 702.734 402.996 702.734 404.964C702.734 406.86 702.338 408.528 701.546 409.968C700.778 411.384 699.722 412.488 698.378 413.28C697.058 414.048 695.534 414.432 693.806 414.432ZM693.842 412.272C694.97 412.272 696.002 411.996 696.938 411.444C697.898 410.892 698.666 410.076 699.242 408.996C699.842 407.892 700.142 406.536 700.142 404.928C700.142 403.296 699.854 401.94 699.278 400.86C698.702 399.78 697.934 398.976 696.974 398.448C696.038 397.896 695.006 397.62 693.878 397.62C692.798 397.62 691.778 397.896 690.818 398.448C689.858 399 689.078 399.816 688.478 400.896C687.902 401.952 687.614 403.296 687.614 404.928C687.614 406.536 687.902 407.892 688.478 408.996C689.054 410.076 689.81 410.892 690.746 411.444C691.706 411.996 692.738 412.272 693.842 412.272ZM713.6 414.432C712.232 414.432 711.02 414.168 709.964 413.64C708.932 413.088 708.128 412.26 707.552 411.156C706.976 410.028 706.688 408.588 706.688 406.836V395.856H709.208V406.548C709.208 408.468 709.628 409.896 710.468 410.832C711.332 411.768 712.52 412.236 714.032 412.236C715.112 412.236 716.072 411.984 716.912 411.48C717.776 410.976 718.448 410.232 718.928 409.248C719.432 408.24 719.684 407.016 719.684 405.576V395.856H722.204V414H719.9L719.756 410.76C719.18 411.936 718.34 412.848 717.236 413.496C716.156 414.12 714.944 414.432 713.6 414.432ZM734.209 414C733.177 414 732.289 413.844 731.545 413.532C730.801 413.196 730.225 412.656 729.817 411.912C729.433 411.144 729.241 410.1 729.241 408.78V398.016H726.073V395.856H729.241L729.601 391.644H731.761V395.892H737.197V398.016H731.761V408.78C731.761 409.98 732.001 410.796 732.481 411.228C732.961 411.636 733.813 411.84 735.037 411.84H736.909V414H734.209ZM759.021 414.432C757.365 414.432 755.865 414.048 754.521 413.28C753.201 412.488 752.157 411.384 751.389 409.968C750.621 408.528 750.237 406.86 750.237 404.964C750.237 402.996 750.621 401.304 751.389 399.888C752.181 398.472 753.249 397.38 754.593 396.612C755.937 395.82 757.437 395.424 759.093 395.424C760.821 395.424 762.345 395.82 763.665 396.612C764.985 397.38 766.029 398.472 766.797 399.888C767.565 401.304 767.949 402.996 767.949 404.964C767.949 406.86 767.553 408.528 766.761 409.968C765.993 411.384 764.937 412.488 763.593 413.28C762.273 414.048 760.749 414.432 759.021 414.432ZM759.057 412.272C760.185 412.272 761.217 411.996 762.153 411.444C763.113 410.892 763.881 410.076 764.457 408.996C765.057 407.892 765.357 406.536 765.357 404.928C765.357 403.296 765.069 401.94 764.493 400.86C763.917 399.78 763.149 398.976 762.189 398.448C761.253 397.896 760.221 397.62 759.093 397.62C758.013 397.62 756.993 397.896 756.033 398.448C755.073 399 754.293 399.816 753.693 400.896C753.117 401.952 752.829 403.296 752.829 404.928C752.829 406.536 753.117 407.892 753.693 408.996C754.269 410.076 755.025 410.892 755.961 411.444C756.921 411.996 757.953 412.272 759.057 412.272ZM773.343 414V392.724C773.343 391.668 773.511 390.804 773.847 390.132C774.207 389.436 774.735 388.92 775.431 388.584C776.127 388.248 777.003 388.08 778.059 388.08H780.111V390.24H778.491C777.531 390.24 776.847 390.432 776.439 390.816C776.055 391.2 775.863 391.872 775.863 392.832V414H773.343ZM770.535 398.016V395.856H780.579V398.016H770.535ZM801.041 414C800.009 414 799.121 413.844 798.377 413.532C797.633 413.196 797.057 412.656 796.649 411.912C796.265 411.144 796.073 410.1 796.073 408.78V398.016H792.905V395.856H796.073L796.433 391.644H798.593V395.892H804.029V398.016H798.593V408.78C798.593 409.98 798.833 410.796 799.313 411.228C799.793 411.636 800.645 411.84 801.869 411.84H803.741V414H801.041ZM815.446 414.432C813.79 414.432 812.29 414.048 810.946 413.28C809.626 412.488 808.582 411.384 807.814 409.968C807.046 408.528 806.662 406.86 806.662 404.964C806.662 402.996 807.046 401.304 807.814 399.888C808.606 398.472 809.674 397.38 811.018 396.612C812.362 395.82 813.862 395.424 815.518 395.424C817.246 395.424 818.77 395.82 820.09 396.612C821.41 397.38 822.454 398.472 823.222 399.888C823.99 401.304 824.374 402.996 824.374 404.964C824.374 406.86 823.978 408.528 823.186 409.968C822.418 411.384 821.362 412.488 820.018 413.28C818.698 414.048 817.174 414.432 815.446 414.432ZM815.482 412.272C816.61 412.272 817.642 411.996 818.578 411.444C819.538 410.892 820.306 410.076 820.882 408.996C821.482 407.892 821.782 406.536 821.782 404.928C821.782 403.296 821.494 401.94 820.918 400.86C820.342 399.78 819.574 398.976 818.614 398.448C817.678 397.896 816.646 397.62 815.518 397.62C814.438 397.62 813.418 397.896 812.458 398.448C811.498 399 810.718 399.816 810.118 400.896C809.542 401.952 809.254 403.296 809.254 404.928C809.254 406.536 809.542 407.892 810.118 408.996C810.694 410.076 811.45 410.892 812.386 411.444C813.346 411.996 814.378 412.272 815.482 412.272ZM839.669 414L830.777 404.064L838.913 395.856H842.045L833.009 404.892L833.045 403.2L842.909 414H839.669ZM828.689 414V388.08H831.209V414H828.689ZM852.707 414.432C851.027 414.432 849.539 414.036 848.243 413.244C846.971 412.452 845.963 411.348 845.219 409.932C844.499 408.492 844.139 406.812 844.139 404.892C844.139 402.972 844.499 401.304 845.219 399.888C845.939 398.472 846.947 397.38 848.243 396.612C849.563 395.82 851.075 395.424 852.779 395.424C854.531 395.424 856.007 395.82 857.207 396.612C858.431 397.404 859.355 398.436 859.979 399.708C860.627 400.98 860.951 402.372 860.951 403.884C860.951 404.124 860.951 404.376 860.951 404.64C860.951 404.88 860.939 405.168 860.915 405.504H846.047V403.38H858.503C858.455 401.532 857.879 400.104 856.775 399.096C855.695 398.088 854.327 397.584 852.671 397.584C851.591 397.584 850.583 397.836 849.647 398.34C848.735 398.82 847.991 399.54 847.415 400.5C846.863 401.436 846.587 402.624 846.587 404.064V405C846.587 406.632 846.875 407.988 847.451 409.068C848.027 410.148 848.783 410.952 849.719 411.48C850.679 412.008 851.675 412.272 852.707 412.272C854.075 412.272 855.203 411.972 856.091 411.372C856.979 410.748 857.615 409.896 857.999 408.816H860.483C860.171 409.872 859.667 410.832 858.971 411.696C858.299 412.56 857.435 413.232 856.379 413.712C855.323 414.192 854.099 414.432 852.707 414.432ZM865.076 414V395.856H867.38L867.524 399.096C868.1 397.944 868.928 397.044 870.008 396.396C871.112 395.748 872.336 395.424 873.68 395.424C875.072 395.424 876.284 395.7 877.316 396.252C878.348 396.804 879.152 397.644 879.728 398.772C880.304 399.876 880.592 401.292 880.592 403.02V414H878.072V403.308C878.072 401.388 877.652 399.96 876.812 399.024C875.972 398.088 874.772 397.62 873.212 397.62C872.156 397.62 871.196 397.884 870.332 398.412C869.492 398.916 868.82 399.66 868.316 400.644C867.836 401.628 867.596 402.84 867.596 404.28V414H865.076ZM892.021 414.432C890.581 414.432 889.309 414.192 888.205 413.712C887.125 413.232 886.249 412.548 885.577 411.66C884.929 410.748 884.533 409.668 884.389 408.42H886.981C887.125 409.116 887.401 409.752 887.809 410.328C888.241 410.904 888.817 411.372 889.537 411.732C890.257 412.068 891.109 412.236 892.093 412.236C893.005 412.236 893.749 412.104 894.325 411.84C894.925 411.552 895.369 411.18 895.657 410.724C895.969 410.244 896.125 409.716 896.125 409.14C896.125 408.348 895.933 407.736 895.549 407.304C895.189 406.848 894.661 406.512 893.965 406.296C893.269 406.08 892.429 405.876 891.445 405.684C890.629 405.54 889.849 405.348 889.105 405.108C888.361 404.868 887.689 404.556 887.089 404.172C886.513 403.788 886.057 403.308 885.721 402.732C885.385 402.132 885.217 401.436 885.217 400.644C885.217 399.612 885.469 398.712 885.973 397.944C886.501 397.152 887.245 396.54 888.205 396.108C889.165 395.652 890.293 395.424 891.589 395.424C893.437 395.424 894.949 395.892 896.125 396.828C897.301 397.74 897.985 399.084 898.177 400.86H895.657C895.561 399.876 895.153 399.096 894.433 398.52C893.713 397.944 892.741 397.656 891.517 397.656C890.317 397.656 889.393 397.908 888.745 398.412C888.121 398.892 887.809 399.552 887.809 400.392C887.809 400.92 887.977 401.376 888.313 401.76C888.649 402.144 889.141 402.48 889.789 402.768C890.461 403.032 891.277 403.26 892.237 403.452C893.389 403.668 894.445 403.956 895.405 404.316C896.389 404.652 897.181 405.18 897.781 405.9C898.405 406.596 898.717 407.592 898.717 408.888C898.741 409.968 898.477 410.928 897.925 411.768C897.373 412.608 896.593 413.268 895.585 413.748C894.577 414.204 893.389 414.432 892.021 414.432ZM918.895 414.432C917.431 414.432 916.207 414.168 915.223 413.64C914.263 413.112 913.543 412.428 913.063 411.588C912.607 410.748 912.379 409.824 912.379 408.816C912.379 407.568 912.691 406.512 913.315 405.648C913.963 404.784 914.863 404.136 916.015 403.704C917.167 403.272 918.511 403.056 920.047 403.056H924.943C924.943 401.88 924.763 400.884 924.403 400.068C924.043 399.252 923.515 398.64 922.819 398.232C922.123 397.8 921.247 397.584 920.191 397.584C918.967 397.584 917.911 397.896 917.023 398.52C916.135 399.144 915.583 400.056 915.367 401.256H912.739C912.883 399.984 913.315 398.916 914.035 398.052C914.779 397.188 915.691 396.54 916.771 396.108C917.851 395.652 918.991 395.424 920.191 395.424C921.871 395.424 923.239 395.748 924.295 396.396C925.351 397.02 926.143 397.884 926.671 398.988C927.199 400.092 927.463 401.364 927.463 402.804V414H925.159L925.015 410.688C924.799 411.192 924.499 411.672 924.115 412.128C923.755 412.584 923.323 412.98 922.819 413.316C922.339 413.652 921.775 413.916 921.127 414.108C920.479 414.324 919.735 414.432 918.895 414.432ZM919.183 412.236C920.071 412.236 920.863 412.056 921.559 411.696C922.279 411.312 922.891 410.82 923.395 410.22C923.899 409.62 924.283 408.948 924.547 408.204C924.811 407.436 924.943 406.644 924.943 405.828V405.18H920.227C918.955 405.18 917.935 405.336 917.167 405.648C916.399 405.96 915.847 406.38 915.511 406.908C915.175 407.436 915.007 408.048 915.007 408.744C915.007 409.44 915.163 410.052 915.475 410.58C915.787 411.084 916.255 411.492 916.879 411.804C917.527 412.092 918.295 412.236 919.183 412.236ZM939.244 422.352C937.636 422.352 936.208 422.136 934.96 421.704C933.736 421.272 932.764 420.624 932.044 419.76C931.348 418.896 931 417.828 931 416.556C931 416.052 931.084 415.5 931.252 414.9C931.444 414.324 931.804 413.736 932.332 413.136C932.86 412.536 933.604 411.996 934.564 411.516L936.616 412.416C935.344 413.016 934.516 413.664 934.132 414.36C933.748 415.08 933.556 415.728 933.556 416.304C933.556 417.168 933.796 417.888 934.276 418.464C934.78 419.04 935.452 419.472 936.292 419.76C937.156 420.072 938.14 420.228 939.244 420.228C940.348 420.228 941.296 420.06 942.088 419.724C942.904 419.412 943.528 418.956 943.96 418.356C944.392 417.78 944.608 417.108 944.608 416.34C944.608 415.452 944.26 414.696 943.564 414.072C942.892 413.472 941.632 413.124 939.784 413.028C938.32 412.932 937.108 412.812 936.148 412.668C935.212 412.5 934.432 412.308 933.808 412.092C933.208 411.852 932.704 411.6 932.296 411.336C931.912 411.072 931.54 410.784 931.18 410.472V409.644L934.636 406.368L936.94 407.196L933.556 410.22L933.772 409.248C934.036 409.44 934.288 409.62 934.528 409.788C934.792 409.956 935.128 410.1 935.536 410.22C935.968 410.316 936.556 410.424 937.3 410.544C938.068 410.64 939.1 410.736 940.396 410.832C942.052 410.952 943.372 411.24 944.356 411.696C945.34 412.152 946.06 412.764 946.516 413.532C946.972 414.3 947.2 415.2 947.2 416.232C947.2 417.264 946.912 418.248 946.336 419.184C945.784 420.12 944.92 420.876 943.744 421.452C942.592 422.052 941.092 422.352 939.244 422.352ZM939.208 408.24C937.672 408.24 936.376 407.952 935.32 407.376C934.288 406.8 933.496 406.032 932.944 405.072C932.392 404.088 932.116 403.008 932.116 401.832C932.116 400.632 932.392 399.552 932.944 398.592C933.496 397.632 934.3 396.864 935.356 396.288C936.412 395.712 937.696 395.424 939.208 395.424C940.744 395.424 942.028 395.712 943.06 396.288C944.116 396.864 944.908 397.632 945.436 398.592C945.988 399.552 946.264 400.632 946.264 401.832C946.264 403.008 945.988 404.088 945.436 405.072C944.908 406.032 944.116 406.8 943.06 407.376C942.028 407.952 940.744 408.24 939.208 408.24ZM939.208 406.08C940.6 406.08 941.692 405.72 942.484 405C943.3 404.256 943.708 403.2 943.708 401.832C943.708 400.44 943.3 399.384 942.484 398.664C941.692 397.944 940.6 397.584 939.208 397.584C937.816 397.584 936.7 397.944 935.86 398.664C935.044 399.384 934.636 400.44 934.636 401.832C934.636 403.2 935.044 404.256 935.86 405C936.676 405.72 937.792 406.08 939.208 406.08ZM942.16 398.124L941.26 395.856H948.604V397.908L942.16 398.124ZM957.883 414.432C956.419 414.432 955.195 414.168 954.211 413.64C953.251 413.112 952.531 412.428 952.051 411.588C951.595 410.748 951.367 409.824 951.367 408.816C951.367 407.568 951.679 406.512 952.303 405.648C952.951 404.784 953.851 404.136 955.003 403.704C956.155 403.272 957.499 403.056 959.035 403.056H963.931C963.931 401.88 963.751 400.884 963.391 400.068C963.031 399.252 962.503 398.64 961.807 398.232C961.111 397.8 960.235 397.584 959.179 397.584C957.955 397.584 956.899 397.896 956.011 398.52C955.123 399.144 954.571 400.056 954.355 401.256H951.727C951.871 399.984 952.303 398.916 953.023 398.052C953.767 397.188 954.679 396.54 955.759 396.108C956.839 395.652 957.979 395.424 959.179 395.424C960.859 395.424 962.227 395.748 963.283 396.396C964.339 397.02 965.131 397.884 965.659 398.988C966.187 400.092 966.451 401.364 966.451 402.804V414H964.147L964.003 410.688C963.787 411.192 963.487 411.672 963.103 412.128C962.743 412.584 962.311 412.98 961.807 413.316C961.327 413.652 960.763 413.916 960.115 414.108C959.467 414.324 958.723 414.432 957.883 414.432ZM958.171 412.236C959.059 412.236 959.851 412.056 960.547 411.696C961.267 411.312 961.879 410.82 962.383 410.22C962.887 409.62 963.271 408.948 963.535 408.204C963.799 407.436 963.931 406.644 963.931 405.828V405.18H959.215C957.943 405.18 956.923 405.336 956.155 405.648C955.387 405.96 954.835 406.38 954.499 406.908C954.163 407.436 953.995 408.048 953.995 408.744C953.995 409.44 954.151 410.052 954.463 410.58C954.775 411.084 955.243 411.492 955.867 411.804C956.515 412.092 957.283 412.236 958.171 412.236ZM971.572 414V395.856H974.056V414H971.572ZM972.832 391.572C972.328 391.572 971.896 391.404 971.536 391.068C971.176 390.708 970.996 390.264 970.996 389.736C970.996 389.184 971.164 388.752 971.5 388.44C971.86 388.104 972.292 387.936 972.796 387.936C973.3 387.936 973.732 388.104 974.092 388.44C974.452 388.752 974.632 389.184 974.632 389.736C974.632 390.264 974.452 390.708 974.092 391.068C973.756 391.404 973.336 391.572 972.832 391.572ZM979.544 414V395.856H981.848L981.992 399.096C982.568 397.944 983.396 397.044 984.476 396.396C985.58 395.748 986.804 395.424 988.148 395.424C989.54 395.424 990.752 395.7 991.784 396.252C992.816 396.804 993.62 397.644 994.196 398.772C994.772 399.876 995.06 401.292 995.06 403.02V414H992.54V403.308C992.54 401.388 992.12 399.96 991.28 399.024C990.44 398.088 989.24 397.62 987.68 397.62C986.624 397.62 985.664 397.884 984.8 398.412C983.96 398.916 983.288 399.66 982.784 400.644C982.304 401.628 982.064 402.84 982.064 404.28V414H979.544ZM1000.66 414.18C1000.13 414.18 999.685 414 999.325 413.64C998.989 413.28 998.821 412.836 998.821 412.308C998.821 411.78 998.989 411.348 999.325 411.012C999.685 410.652 1000.13 410.472 1000.66 410.472C1001.19 410.472 1001.62 410.652 1001.95 411.012C1002.31 411.348 1002.49 411.792 1002.49 412.344C1002.49 412.848 1002.31 413.28 1001.95 413.64C1001.62 414 1001.19 414.18 1000.66 414.18Z" fill="#0D324D"/>
<g filter="url(#filter0_d_583_22183)">
<rect x="145" y="160" width="307.2" height="307.2" rx="62.4" fill="#EBE6DB"/>
<rect width="291.84" height="291.84" transform="translate(152.68 167.68)" fill="#EBE6DB"/>
<path d="M289.479 254.89C325.681 254.89 355.029 284.238 355.029 320.44C355.029 356.642 325.681 385.99 289.479 385.99C275.791 385.99 263.083 381.795 252.571 374.62C246.88 370.776 238.606 371.17 234.616 376.443C230.488 381.898 231.794 390.463 237.869 394.255C252.485 404.493 270.28 410.5 289.479 410.5C339.218 410.5 379.539 370.179 379.539 320.44C379.539 270.701 339.218 230.38 289.479 230.38C275.208 230.38 261.712 233.7 249.721 239.608L260.979 261.393C269.596 257.226 279.265 254.89 289.479 254.89Z" fill="#286195"/>
<path d="M289.482 230.38C339.221 230.38 379.542 270.701 379.542 320.44C379.542 370.179 339.221 410.5 289.482 410.5C279.264 410.5 274.092 415.488 274.092 422.613C274.092 429.738 279.364 435.01 289.482 435.01C352.757 435.01 404.052 383.715 404.052 320.44C404.052 257.165 352.757 205.87 289.482 205.87C271.21 205.87 253.937 210.148 238.609 217.756L249.724 239.643C261.679 233.778 275.267 230.38 289.482 230.38Z" fill="#367CAF"/>
<path d="M289.48 206.155C352.598 206.155 403.765 257.322 403.765 320.44C403.765 363.965 379.433 401.808 343.63 421.107C338.072 424.103 332.779 430.593 336.362 438.43C339.945 446.268 349.472 445.787 354.887 442.888C398.564 419.509 428.275 373.444 428.275 320.44C428.275 243.786 366.134 181.645 289.48 181.645C267.202 181.645 246.149 186.894 227.492 196.222L238.75 218.003C254.035 210.419 271.259 206.155 289.48 206.155Z" fill="#4BA6D2"/>
<circle cx="290.334" cy="320.725" r="39.045" fill="#EC7655"/>
</g>
<defs>
<filter id="filter0_d_583_22183" x="117" y="144" width="355.203" height="355.2" filterUnits="userSpaceOnUse" color-interpolation-filters="sRGB">
<feFlood flood-opacity="0" result="BackgroundImageFix"/>
<feColorMatrix in="SourceAlpha" type="matrix" values="0 0 0 0 0 0 0 0 0 0 0 0 0 0 0 0 0 0 127 0" result="hardAlpha"/>
<feOffset dx="-4" dy="8"/>
<feGaussianBlur stdDeviation="12"/>
<feComposite in2="hardAlpha" operator="out"/>
<feColorMatrix type="matrix" values="0 0 0 0 0 0 0 0 0 0 0 0 0 0 0 0 0 0 0.25 0"/>
<feBlend mode="normal" in2="BackgroundImageFix" result="effect1_dropShadow_583_22183"/>
<feBlend mode="normal" in="SourceGraphic" in2="effect1_dropShadow_583_22183" result="shape"/>
</filter>
<linearGradient id="paint0_linear_583_22183" x1="67.0589" y1="-6.59009e-06" x2="210.201" y2="697.005" gradientUnits="userSpaceOnUse">
<stop stop-color="#F0E6D4"/>
<stop offset="1" stop-color="#C2B499"/>
</linearGradient>
</defs>
</svg>
