<svg width="1080" height="1075" viewBox="0 0 1080 1075" fill="none" xmlns="http://www.w3.org/2000/svg">
<g clip-path="url(#clip0_412_7351)">
<path d="M824.153 1071.61C694.246 1083.48 585.621 931.255 502.355 854.044C460.253 1157.41 1.81994 1128.65 2.13297 820.906C2.28949 691.655 2.13297 375.779 2.13297 250.587C2.13297 205.574 14.4976 160.248 37.6619 121.799C81.6425 47.2464 166.63 -0.89253 253.183 0.0452407C383.56 0.201536 697.527 -0.111055 824.153 0.0452407C1132.17 0.0452407 1161.44 458.303 857.019 499.565L1001.48 643.828C1160.19 793.086 1041.08 1078.17 824.153 1071.61ZM754.189 891.083C843.716 983.302 986.613 840.447 894.423 751.043L643.999 500.971H503.921C503.921 514.569 503.921 631.163 503.921 641.013L720.378 857.166L754.189 891.083ZM153.796 821.066C151.762 949.226 354.135 949.698 352.101 821.066V250.587C353.823 186.662 286.208 135.866 225.167 155.559C222.506 156.34 220.002 157.122 217.654 158.06C179.308 172.283 152.701 211.513 153.796 252.462V821.066ZM824.153 349.522C952.808 351.553 952.649 149.463 824.153 151.495H484.043C509.868 205.886 503.295 290.598 503.764 349.522C522.233 349.522 815.07 349.522 824.153 349.522Z" fill="black"/>
</g>
<defs>
<clipPath id="clip0_412_7351">
<rect width="1080" height="1074.1" fill="white"/>
</clipPath>
</defs>
</svg>
