<svg width="1080" height="1080" viewBox="0 0 1080 1080" fill="none" xmlns="http://www.w3.org/2000/svg">
<path fill-rule="evenodd" clip-rule="evenodd" d="M709.37 45.9C718.91 44.955 729.17 45.99 738.8 46.08L793.25 46.125C868.85 46.17 945.035 48.06 1020.59 45L1020.55 446.85V566.19C1020.55 599.67 1021.13 633.06 1017.62 666.405C1013.72 704.194 1004.86 741.306 991.295 776.79C962.878 852.012 912.463 916.932 846.62 963.09C833.615 972.135 819.53 982.08 804.995 988.47C768.479 1008.41 729.378 1023.19 688.805 1032.39C672.56 1036.12 656.045 1038.29 639.845 1042.11C622.7 1028.12 607.22 1010.88 591.605 995.175L506.42 909.99C473.93 877.77 440.945 846.225 408.725 813.69C395.09 800.01 379.97 786.51 367.91 771.48C372.68 802.71 370.025 850.23 370.025 883.35C370.34 948.915 370.16 1014.43 369.44 1080C368.734 1079.5 368.043 1078.97 367.37 1078.43C356.75 1070.1 347.255 1059.16 337.67 1049.53C319.22 1030.86 300.635 1012.32 281.915 993.87L147.32 859.815C123.02 835.515 97.9102 811.665 74.2402 786.78C71.0902 783.45 64.5652 777.33 63.9802 772.785C65.9011 772.438 67.8699 772.453 69.7852 772.83L69.5602 772.29C108.665 770.04 148.76 771.705 187.91 771.705C247.85 771.705 307.835 770.895 367.73 771.75C264.323 670.475 161.734 568.366 59.9752 465.435C57.8602 449.37 59.0752 432.135 59.0752 415.89L59.1202 329.715L58.5352 53.01C58.5352 51.21 58.9852 49.635 59.7952 47.97C62.4502 46.17 64.4752 46.26 67.6702 46.08C91.0702 44.73 115.37 46.08 138.86 46.125C206.9 46.125 275.48 48.015 343.43 45.855C352.295 45.225 361.295 45.36 370.16 45.18L370.025 521.325C370.43 604.98 370.16 688.59 369.215 772.2C388.385 770.22 409.265 771.75 428.615 771.75H553.355C596.735 771.435 636.92 763.2 668.465 731.07C692.675 706.41 702.845 674.55 708.065 641.07C711.665 618.12 709.955 592.47 709.91 569.205L709.82 450.18C709.775 315.45 710.99 180.63 709.37 45.9Z" fill="#0E334D"/>
</svg>
