<svg width="1376" height="72" viewBox="0 0 1376 72" fill="none" xmlns="http://www.w3.org/2000/svg">
<rect width="1376" height="72" fill="white" fill-opacity="0.1"/>
<path d="M42.3281 30.2969C43.0156 30.2969 45.5 30.3594 47.125 32.7031C46.9844 32.8125 44.5156 34.2031 44.5156 37.3125C44.5156 40.9062 47.6562 42.1875 47.75 42.2188C47.7344 42.2969 47.25 43.9531 46.0938 45.6562C45.0625 47.1406 43.9688 48.6406 42.3281 48.6406C40.6719 48.6406 40.25 47.6719 38.3594 47.6719C36.5 47.6719 35.8438 48.6719 34.3438 48.6719C32.8281 48.6719 31.7812 47.2812 30.5781 45.5938C29.1719 43.5938 28.0469 40.5 28.0469 37.5625C28.0469 32.8594 31.1094 30.3594 34.125 30.3594C35.7188 30.3594 37.0469 31.4062 38.0625 31.4062C39.0156 31.4062 40.5 30.2969 42.3281 30.2969ZM41.4688 28.3125C40.6562 29.2969 39.2812 30.0312 38.1875 30.0312C38.0625 30.0312 37.9375 30.0156 37.8594 30C37.8438 29.9375 37.8125 29.75 37.8125 29.5625C37.8125 28.3125 38.4531 27.0625 39.1406 26.2812C40.0156 25.25 41.4844 24.4844 42.7031 24.4375C42.7344 24.5781 42.75 24.75 42.75 24.9219C42.75 26.1719 42.2188 27.4062 41.4688 28.3125Z" fill="white"/>
<path d="M94.2344 46.4336C89.3359 46.4336 86.3008 43.0469 86.3008 37.5391C86.3008 32.043 89.3242 28.6562 94.2344 28.6562C98.2422 28.6562 101.312 31.3164 101.57 34.9961H98.125C97.7852 33.0508 96.25 31.7734 94.2344 31.7734C91.5742 31.7734 89.9219 33.9766 89.9219 37.5391C89.9219 41.1016 91.5742 43.3164 94.2461 43.3164C96.2734 43.3164 97.7969 42.1211 98.1367 40.2578H101.582C101.289 43.9141 98.3125 46.4336 94.2344 46.4336ZM104.617 46V28.1406H108.027V46H104.617ZM116.242 43.6328C117.824 43.6328 119.02 42.625 119.02 41.3125V40.3633L116.406 40.5273C114.941 40.6328 114.227 41.1602 114.227 42.0859C114.227 43.0469 115.059 43.6328 116.242 43.6328ZM115.117 46.1992C112.633 46.1992 110.887 44.6758 110.887 42.3086C110.887 39.9648 112.68 38.6055 115.891 38.418L119.02 38.2305V37.1758C119.02 36.0977 118.246 35.4883 116.84 35.4883C115.609 35.4883 114.789 35.9102 114.508 36.6836H111.367C111.59 34.293 113.781 32.793 117.027 32.793C120.449 32.793 122.383 34.4102 122.383 37.1758V46H119.078V44.3125H118.867C118.199 45.4961 116.793 46.1992 115.117 46.1992ZM137.43 33.0742V46H134.125V43.9258H133.914C133.305 45.4258 132.098 46.2812 130.141 46.2812C127.352 46.2812 125.617 44.5 125.617 41.5V33.0742H129.027V40.6211C129.027 42.4023 129.836 43.3164 131.406 43.3164C133.105 43.3164 134.02 42.25 134.02 40.5273V33.0742H137.43ZM145.48 46.1992C142.223 46.1992 140.219 43.6445 140.219 39.5195C140.219 35.4062 142.234 32.8633 145.48 32.8633C147.227 32.8633 148.668 33.707 149.336 35.1367H149.535V28.1406H152.945V46H149.641V43.9727H149.43C148.738 45.3672 147.273 46.1992 145.48 46.1992ZM146.641 35.7227C144.824 35.7227 143.723 37.1641 143.723 39.5312C143.723 41.9219 144.812 43.3516 146.641 43.3516C148.469 43.3516 149.57 41.9102 149.57 39.543C149.57 37.1875 148.457 35.7227 146.641 35.7227ZM162.074 35.4062C160.492 35.4062 159.379 36.5078 159.262 38.1836H164.77C164.699 36.4727 163.668 35.4062 162.074 35.4062ZM164.84 42.3203H168.016C167.5 44.7578 165.273 46.2812 162.109 46.2812C158.172 46.2812 155.852 43.7969 155.852 39.6016C155.852 35.3945 158.219 32.793 162.062 32.793C165.871 32.793 168.121 35.2188 168.121 39.3203V40.3633H159.25V40.5391C159.297 42.4609 160.422 43.6562 162.203 43.6562C163.551 43.6562 164.477 43.1758 164.84 42.3203Z" fill="white"/>
<path d="M214.266 46H212.156V29.0898H222.422V30.9883H214.266V36.8008H221.754V38.6758H214.266V46ZM225.68 46V33.3672H227.695V46H225.68ZM226.688 30.8008C225.914 30.8008 225.281 30.168 225.281 29.3945C225.281 28.6211 225.914 27.9883 226.688 27.9883C227.461 27.9883 228.094 28.6211 228.094 29.3945C228.094 30.168 227.461 30.8008 226.688 30.8008ZM231.656 46V28.3516H233.672V46H231.656ZM242.625 34.9258C240.609 34.9258 239.203 36.4023 239.051 38.6406H246.012C245.965 36.4023 244.629 34.9258 242.625 34.9258ZM245.953 42.7305H247.969C247.359 44.8984 245.414 46.2227 242.648 46.2227C239.145 46.2227 236.953 43.6914 236.953 39.6953C236.953 35.7227 239.18 33.1445 242.648 33.1445C246.059 33.1445 248.133 35.5703 248.133 39.4961V40.2695H239.051V40.3633C239.156 42.8594 240.551 44.4414 242.695 44.4414C244.324 44.4414 245.426 43.8438 245.953 42.7305Z" fill="white"/>
<path d="M302.633 44.1016V46H292.156V29.0898H302.633V30.9883H294.266V36.4141H302.199V38.2891H294.266V44.1016H302.633ZM310.871 46.2227C307.637 46.2227 305.562 43.6562 305.562 39.6836C305.562 35.7227 307.66 33.1445 310.871 33.1445C312.629 33.1445 314.117 33.9766 314.832 35.3594H315.008V28.3516H317.023V46H315.102V43.9844H314.914C314.117 45.3906 312.617 46.2227 310.871 46.2227ZM311.34 34.9609C309.043 34.9609 307.648 36.7422 307.648 39.6836C307.648 42.6367 309.031 44.4062 311.34 44.4062C313.637 44.4062 315.055 42.6016 315.055 39.6836C315.055 36.7891 313.625 34.9609 311.34 34.9609ZM320.984 46V33.3672H323V46H320.984ZM321.992 30.8008C321.219 30.8008 320.586 30.168 320.586 29.3945C320.586 28.6211 321.219 27.9883 321.992 27.9883C322.766 27.9883 323.398 28.6211 323.398 29.3945C323.398 30.168 322.766 30.8008 321.992 30.8008ZM327.688 30.0977H329.703V33.3672H332.516V35.0547H329.703V42.2031C329.703 43.6914 330.266 44.3242 331.578 44.3242C331.941 44.3242 332.141 44.3125 332.516 44.2773V45.9766C332.117 46.0469 331.73 46.0938 331.332 46.0938C328.73 46.0938 327.688 45.1328 327.688 42.7188V35.0547H325.648V33.3672H327.688V30.0977Z" fill="white"/>
<path d="M383.129 46H381.043L374.809 29.0898H377.023L381.992 43.2695H382.18L387.148 29.0898H389.363L383.129 46ZM392.117 46V33.3672H394.133V46H392.117ZM393.125 30.8008C392.352 30.8008 391.719 30.168 391.719 29.3945C391.719 28.6211 392.352 27.9883 393.125 27.9883C393.898 27.9883 394.531 28.6211 394.531 29.3945C394.531 30.168 393.898 30.8008 393.125 30.8008ZM403.016 34.9258C401 34.9258 399.594 36.4023 399.441 38.6406H406.402C406.355 36.4023 405.02 34.9258 403.016 34.9258ZM406.344 42.7305H408.359C407.75 44.8984 405.805 46.2227 403.039 46.2227C399.535 46.2227 397.344 43.6914 397.344 39.6953C397.344 35.7227 399.57 33.1445 403.039 33.1445C406.449 33.1445 408.523 35.5703 408.523 39.4961V40.2695H399.441V40.3633C399.547 42.8594 400.941 44.4414 403.086 44.4414C404.715 44.4414 405.816 43.8438 406.344 42.7305ZM427.578 33.3672L424.039 46H421.988L419.164 36.2266H418.977L416.164 46H414.125L410.586 33.3672H412.625L415.109 43.4688H415.297L418.121 33.3672H420.055L422.879 43.4688H423.066L425.551 33.3672H427.578Z" fill="white"/>
<path d="M480.543 32.6523L476.652 46H474.66L470.055 29.0898H472.258L475.621 42.8359H475.762L479.547 29.0898H481.68L485.465 42.8359H485.605L488.969 29.0898H491.172L486.566 46H484.574L480.684 32.6523H480.543ZM494.172 46V33.3672H496.188V46H494.172ZM495.18 30.8008C494.406 30.8008 493.773 30.168 493.773 29.3945C493.773 28.6211 494.406 27.9883 495.18 27.9883C495.953 27.9883 496.586 28.6211 496.586 29.3945C496.586 30.168 495.953 30.8008 495.18 30.8008ZM500.031 46V33.3672H501.953V35.3594H502.141C502.773 33.9648 504.004 33.1445 505.938 33.1445C508.773 33.1445 510.355 34.8203 510.355 37.8203V46H508.34V38.3125C508.34 36.0391 507.379 34.9609 505.363 34.9609C503.348 34.9609 502.047 36.3086 502.047 38.5234V46H500.031ZM518.723 46.2227C515.488 46.2227 513.414 43.6562 513.414 39.6836C513.414 35.7227 515.512 33.1445 518.723 33.1445C520.48 33.1445 521.969 33.9766 522.684 35.3594H522.859V28.3516H524.875V46H522.953V43.9844H522.766C521.969 45.3906 520.469 46.2227 518.723 46.2227ZM519.191 34.9609C516.895 34.9609 515.5 36.7422 515.5 39.6836C515.5 42.6367 516.883 44.4062 519.191 44.4062C521.488 44.4062 522.906 42.6016 522.906 39.6836C522.906 36.7891 521.477 34.9609 519.191 34.9609ZM533.98 46.2227C530.383 46.2227 528.156 43.7383 528.156 39.6836C528.156 35.6172 530.383 33.1445 533.98 33.1445C537.578 33.1445 539.805 35.6172 539.805 39.6836C539.805 43.7383 537.578 46.2227 533.98 46.2227ZM533.98 44.4062C536.371 44.4062 537.719 42.6719 537.719 39.6836C537.719 36.6836 536.371 34.9609 533.98 34.9609C531.59 34.9609 530.242 36.6836 530.242 39.6836C530.242 42.6719 531.59 44.4062 533.98 44.4062ZM558.391 33.3672L554.852 46H552.801L549.977 36.2266H549.789L546.977 46H544.938L541.398 33.3672H543.438L545.922 43.4688H546.109L548.934 33.3672H550.867L553.691 43.4688H553.879L556.363 33.3672H558.391Z" fill="white"/>
<path d="M615.656 46H613.547V38.3008H604.266V46H602.156V29.0898H604.266V36.4023H613.547V29.0898H615.656V46ZM624.75 34.9258C622.734 34.9258 621.328 36.4023 621.176 38.6406H628.137C628.09 36.4023 626.754 34.9258 624.75 34.9258ZM628.078 42.7305H630.094C629.484 44.8984 627.539 46.2227 624.773 46.2227C621.27 46.2227 619.078 43.6914 619.078 39.6953C619.078 35.7227 621.305 33.1445 624.773 33.1445C628.184 33.1445 630.258 35.5703 630.258 39.4961V40.2695H621.176V40.3633C621.281 42.8594 622.676 44.4414 624.82 44.4414C626.449 44.4414 627.551 43.8438 628.078 42.7305ZM633.539 46V28.3516H635.555V46H633.539ZM645.621 33.1445C648.844 33.1445 650.93 35.7109 650.93 39.6836C650.93 43.6328 648.832 46.2227 645.621 46.2227C643.816 46.2227 642.363 45.4375 641.672 44.1016H641.484V50.2188H639.469V33.3672H641.391V35.4766H641.578C642.387 34.0234 643.898 33.1445 645.621 33.1445ZM645.141 44.4062C647.461 44.4062 648.844 42.6367 648.844 39.6836C648.844 36.7305 647.461 34.9609 645.152 34.9609C642.867 34.9609 641.426 36.7773 641.426 39.6836C641.426 42.5781 642.867 44.4062 645.141 44.4062Z" fill="white"/>
<path d="M911 57.1309C922.046 57.1309 931 48.1766 931 37.1309C931 26.0852 922.046 17.1309 911 17.1309C899.954 17.1309 891 26.0852 891 37.1309C891 48.1766 899.954 57.1309 911 57.1309Z" stroke="white" stroke-opacity="0.2" stroke-width="6"/>
<path d="M920.472 54.7502C926.74 51.3735 931 44.7497 931 37.1309C931 26.0852 922.046 17.1309 911 17.1309" stroke="white" stroke-opacity="0.32" stroke-width="6" stroke-linecap="round"/>
<path d="M911.211 24.4215C918.114 24.4215 923.711 30.0179 923.711 36.9215C923.711 43.8251 918.114 49.4215 911.211 49.4215C904.307 49.4215 898.711 43.8251 898.711 36.9215C898.711 30.0179 904.307 24.4215 911.211 24.4215" stroke="white" stroke-opacity="0.2" stroke-width="6"/>
<path d="M920.136 45.4215C922.351 43.1915 923.711 40.176 923.711 36.8567C923.711 29.9889 917.891 24.4215 910.711 24.4215" stroke="white" stroke-opacity="0.32" stroke-width="6" stroke-linecap="round"/>
<g filter="url(#filter0_d_680_774)">
<path d="M904 59C905.657 59 907 57.6569 907 56C907 54.3431 905.657 53 904 53C902.343 53 901 54.3431 901 56C901 57.6569 902.343 59 904 59Z" fill="white"/>
</g>
<g filter="url(#filter1_d_680_774)">
<path d="M923.75 40C925.407 40 926.75 38.6569 926.75 37C926.75 35.3431 925.407 34 923.75 34C922.093 34 920.75 35.3431 920.75 37C920.75 38.6569 922.093 40 923.75 40Z" fill="white"/>
</g>
<path d="M959.609 46V42.4961H951.371V40.5742C952.883 37.8906 955.566 33.6484 958.613 29.0898H961.672V40.6094H964.074V42.4961H961.672V46H959.609ZM953.527 40.4805V40.6211H959.621V31.0469H959.48C957.746 33.5664 955.543 37.0586 953.527 40.4805ZM970.789 38.207V36.4023H972.84C974.762 36.4023 976.121 35.1602 976.121 33.4023C976.121 31.6797 974.82 30.5312 972.875 30.5312C970.93 30.5312 969.652 31.6094 969.477 33.4258H967.426C967.637 30.4961 969.734 28.6914 972.957 28.6914C975.91 28.6914 978.266 30.6602 978.266 33.1211C978.266 35.1367 977.152 36.6133 975.301 37.0586V37.2461C977.598 37.5391 978.992 39.1328 978.992 41.4414C978.992 44.2305 976.379 46.3984 973.039 46.3984C969.605 46.3984 967.238 44.4883 967.086 41.5938H969.125C969.312 43.3984 970.836 44.5586 973.016 44.5586C975.242 44.5586 976.824 43.2344 976.824 41.3828C976.824 39.4258 975.336 38.207 972.934 38.207H970.789ZM988.637 32.8633C988.637 35.2539 987.148 36.9414 985.039 36.9414C982.93 36.9414 981.43 35.2539 981.43 32.8633C981.43 30.4844 982.93 28.7969 985.039 28.7969C987.148 28.7969 988.637 30.4727 988.637 32.8633ZM985.039 35.4414C986.07 35.4414 986.762 34.4102 986.762 32.8633C986.762 31.2812 986.094 30.2969 985.039 30.2969C983.984 30.2969 983.305 31.3047 983.305 32.8633C983.305 34.4219 983.996 35.4414 985.039 35.4414ZM984.852 46H982.695L989.152 37.1875L995.082 29.0898H997.215L990.652 38.0664L984.852 46ZM998.422 42.2148C998.422 44.6055 996.934 46.293 994.824 46.293C992.715 46.293 991.215 44.6055 991.215 42.2148C991.215 39.8359 992.715 38.1484 994.824 38.1484C996.934 38.1484 998.422 39.8242 998.422 42.2148ZM994.824 44.793C995.855 44.793 996.547 43.7617 996.547 42.2148C996.547 40.6328 995.879 39.6484 994.824 39.6484C993.77 39.6484 993.09 40.6562 993.09 42.2148C993.09 43.7734 993.781 44.793 994.824 44.793Z" fill="white"/>
<rect x="1041" y="25" width="30" height="10" rx="5" stroke="white" stroke-width="2"/>
<path d="M1066 39C1069.31 39 1072 41.6863 1072 45C1072 48.3137 1069.31 51 1066 51H1046C1042.69 51 1040 48.3137 1040 45C1040 41.6863 1042.69 39 1046 39H1066ZM1060 41C1057.79 41 1056 42.7909 1056 45C1056 47.2091 1057.79 49 1060 49H1066C1068.21 49 1070 47.2091 1070 45C1070 42.7909 1068.21 41 1066 41H1060Z" fill="white"/>
<rect x="1043" y="27" width="14" height="6" rx="3" fill="white"/>
<path d="M1123.54 32.6523L1119.65 46H1117.66L1113.05 29.0898H1115.26L1118.62 42.8359H1118.76L1122.55 29.0898H1124.68L1128.46 42.8359H1128.61L1131.97 29.0898H1134.17L1129.57 46H1127.57L1123.68 32.6523H1123.54ZM1140.99 34.9258C1138.98 34.9258 1137.57 36.4023 1137.42 38.6406H1144.38C1144.33 36.4023 1143 34.9258 1140.99 34.9258ZM1144.32 42.7305H1146.34C1145.73 44.8984 1143.78 46.2227 1141.02 46.2227C1137.51 46.2227 1135.32 43.6914 1135.32 39.6953C1135.32 35.7227 1137.55 33.1445 1141.02 33.1445C1144.43 33.1445 1146.5 35.5703 1146.5 39.4961V40.2695H1137.42V40.3633C1137.52 42.8594 1138.92 44.4414 1141.06 44.4414C1142.69 44.4414 1143.79 43.8438 1144.32 42.7305ZM1154.34 46.2227C1151.11 46.2227 1149.03 43.6562 1149.03 39.6836C1149.03 35.7227 1151.13 33.1445 1154.34 33.1445C1156.1 33.1445 1157.59 33.9766 1158.3 35.3594H1158.48V28.3516H1160.49V46H1158.57V43.9844H1158.38C1157.59 45.3906 1156.09 46.2227 1154.34 46.2227ZM1154.81 34.9609C1152.51 34.9609 1151.12 36.7422 1151.12 39.6836C1151.12 42.6367 1152.5 44.4062 1154.81 44.4062C1157.11 44.4062 1158.52 42.6016 1158.52 39.6836C1158.52 36.7891 1157.09 34.9609 1154.81 34.9609ZM1164.11 36.8242C1164.11 34.7266 1166.14 33.1445 1168.82 33.1445C1171.47 33.1445 1173.31 34.457 1173.58 36.5312H1171.59C1171.32 35.5234 1170.34 34.8555 1168.81 34.8555C1167.31 34.8555 1166.14 35.6172 1166.14 36.7422C1166.14 37.6094 1166.84 38.1484 1168.33 38.5117L1170.28 38.9805C1172.66 39.5547 1173.8 40.5859 1173.8 42.4023C1173.8 44.6641 1171.61 46.2227 1168.74 46.2227C1165.93 46.2227 1164 44.875 1163.77 42.7773H1165.85C1166.19 43.8438 1167.2 44.5234 1168.81 44.5234C1170.51 44.5234 1171.73 43.7148 1171.73 42.5547C1171.73 41.6875 1171.07 41.1016 1169.73 40.7734L1167.56 40.2461C1165.19 39.6719 1164.11 38.6523 1164.11 36.8242ZM1194.99 46L1193.29 41.1602H1186.57L1184.87 46H1182.65L1188.89 29.0898H1190.97L1197.21 46H1194.99ZM1189.84 31.8203L1187.19 39.3672H1192.67L1190.02 31.8203H1189.84ZM1206.07 33.1445C1209.29 33.1445 1211.38 35.7109 1211.38 39.6836C1211.38 43.6328 1209.28 46.2227 1206.07 46.2227C1204.26 46.2227 1202.81 45.4375 1202.12 44.1016H1201.93V50.2188H1199.91V33.3672H1201.84V35.4766H1202.02C1202.83 34.0234 1204.34 33.1445 1206.07 33.1445ZM1205.59 44.4062C1207.91 44.4062 1209.29 42.6367 1209.29 39.6836C1209.29 36.7305 1207.91 34.9609 1205.6 34.9609C1203.31 34.9609 1201.87 36.7773 1201.87 39.6836C1201.87 42.5781 1203.31 44.4062 1205.59 44.4062ZM1214.54 46V33.3672H1216.46V35.2422H1216.65C1217.02 34.0117 1218.48 33.1445 1220.15 33.1445C1220.48 33.1445 1220.9 33.168 1221.16 33.2031V35.2188C1221 35.1719 1220.27 35.1016 1219.87 35.1016C1217.95 35.1016 1216.55 36.3906 1216.55 38.1719V46H1214.54ZM1223.73 46V33.3672H1225.74V46H1223.73ZM1224.73 30.8008C1223.96 30.8008 1223.33 30.168 1223.33 29.3945C1223.33 28.6211 1223.96 27.9883 1224.73 27.9883C1225.51 27.9883 1226.14 28.6211 1226.14 29.3945C1226.14 30.168 1225.51 30.8008 1224.73 30.8008ZM1229.7 46V28.3516H1231.72V46H1229.7ZM1246.44 46V31.4336H1246.25L1241.95 34.5508V32.3242L1246.45 29.0898H1248.55V46H1246.44ZM1265.77 46.3867C1262.9 46.3867 1260.77 44.6875 1260.23 41.9688H1262.4C1262.86 43.5508 1264.13 44.5117 1265.8 44.5117C1268.55 44.5117 1270.11 42.0742 1270.23 37.5742H1270.13H1270.09H1270.04C1269.21 39.2148 1267.55 40.1758 1265.54 40.1758C1262.32 40.1758 1259.98 37.7969 1259.98 34.5156C1259.98 31.1172 1262.45 28.6914 1265.91 28.6914C1268.45 28.6914 1270.4 30.0391 1271.46 32.5352C1272.01 33.8242 1272.28 35.3828 1272.28 37.2461C1272.28 43.0586 1269.91 46.3867 1265.77 46.3867ZM1265.91 38.3477C1268.15 38.3477 1269.76 36.7539 1269.76 34.5156C1269.76 32.2539 1268.11 30.543 1265.94 30.543C1263.77 30.543 1262.12 32.2305 1262.12 34.4453C1262.12 36.7539 1263.68 38.3477 1265.91 38.3477ZM1277.35 44.0664C1276.52 44.0664 1275.83 43.375 1275.83 42.543C1275.83 41.6992 1276.52 41.0195 1277.35 41.0195C1278.2 41.0195 1278.88 41.6992 1278.88 42.543C1278.88 43.375 1278.2 44.0664 1277.35 44.0664ZM1277.35 35.0547C1276.52 35.0547 1275.83 34.3633 1275.83 33.5312C1275.83 32.6875 1276.52 32.0078 1277.35 32.0078C1278.2 32.0078 1278.88 32.6875 1278.88 33.5312C1278.88 34.3633 1278.2 35.0547 1277.35 35.0547ZM1290.52 46V42.4961H1282.29V40.5742C1283.8 37.8906 1286.48 33.6484 1289.53 29.0898H1292.59V40.6094H1294.99V42.4961H1292.59V46H1290.52ZM1284.44 40.4805V40.6211H1290.54V31.0469H1290.39C1288.66 33.5664 1286.46 37.0586 1284.44 40.4805ZM1302.05 46V31.4336H1301.87L1297.57 34.5508V32.3242L1302.07 29.0898H1304.16V46H1302.05ZM1327.25 46L1325.55 41.1602H1318.82L1317.12 46H1314.91L1321.14 29.0898H1323.23L1329.46 46H1327.25ZM1322.09 31.8203L1319.45 39.3672H1324.93L1322.28 31.8203H1322.09ZM1349.09 46H1347.12V33.0859H1346.98L1341.65 45.8828H1339.87L1334.54 33.0859H1334.4V46H1332.43V29.0898H1334.88L1340.67 43.082H1340.86L1346.64 29.0898H1349.09V46Z" fill="white"/>
<defs>
<filter id="filter0_d_680_774" x="900.624" y="52.6239" width="7.50427" height="7.50427" filterUnits="userSpaceOnUse" color-interpolation-filters="sRGB">
<feFlood flood-opacity="0" result="BackgroundImageFix"/>
<feColorMatrix in="SourceAlpha" type="matrix" values="0 0 0 0 0 0 0 0 0 0 0 0 0 0 0 0 0 0 127 0" result="hardAlpha"/>
<feOffset dx="0.376068" dy="0.376068"/>
<feGaussianBlur stdDeviation="0.376068"/>
<feComposite in2="hardAlpha" operator="out"/>
<feColorMatrix type="matrix" values="0 0 0 0 0 0 0 0 0 0 0 0 0 0 0 0 0 0 0.16 0"/>
<feBlend mode="normal" in2="BackgroundImageFix" result="effect1_dropShadow_680_774"/>
<feBlend mode="normal" in="SourceGraphic" in2="effect1_dropShadow_680_774" result="shape"/>
</filter>
<filter id="filter1_d_680_774" x="920.374" y="33.6239" width="7.50427" height="7.50427" filterUnits="userSpaceOnUse" color-interpolation-filters="sRGB">
<feFlood flood-opacity="0" result="BackgroundImageFix"/>
<feColorMatrix in="SourceAlpha" type="matrix" values="0 0 0 0 0 0 0 0 0 0 0 0 0 0 0 0 0 0 127 0" result="hardAlpha"/>
<feOffset dx="0.376068" dy="0.376068"/>
<feGaussianBlur stdDeviation="0.376068"/>
<feComposite in2="hardAlpha" operator="out"/>
<feColorMatrix type="matrix" values="0 0 0 0 0 0 0 0 0 0 0 0 0 0 0 0 0 0 0.16 0"/>
<feBlend mode="normal" in2="BackgroundImageFix" result="effect1_dropShadow_680_774"/>
<feBlend mode="normal" in="SourceGraphic" in2="effect1_dropShadow_680_774" result="shape"/>
</filter>
</defs>
</svg>
