<svg width="800" height="72" viewBox="0 0 800 72" fill="none" xmlns="http://www.w3.org/2000/svg">
<path d="M335 57.1309C346.046 57.1309 355 48.1766 355 37.1309C355 26.0852 346.046 17.1309 335 17.1309C323.954 17.1309 315 26.0852 315 37.1309C315 48.1766 323.954 57.1309 335 57.1309Z" stroke="white" stroke-opacity="0.2" stroke-width="6"/>
<path d="M344.472 54.7502C350.74 51.3735 355 44.7497 355 37.1309C355 26.0852 346.046 17.1309 335 17.1309" stroke="white" stroke-opacity="0.32" stroke-width="6" stroke-linecap="round"/>
<path d="M335.211 24.4215C342.114 24.4215 347.711 30.0179 347.711 36.9215C347.711 43.8251 342.114 49.4215 335.211 49.4215C328.307 49.4215 322.711 43.8251 322.711 36.9215C322.711 30.0179 328.307 24.4215 335.211 24.4215" stroke="white" stroke-opacity="0.2" stroke-width="6"/>
<path d="M344.136 45.4215C346.351 43.1915 347.711 40.176 347.711 36.8567C347.711 29.9889 341.891 24.4215 334.711 24.4215" stroke="white" stroke-opacity="0.32" stroke-width="6" stroke-linecap="round"/>
<circle cx="328" cy="56" r="3" fill="white"/>
<circle cx="347.75" cy="37" r="3" fill="white"/>
<path d="M383.609 46V42.4961H375.371V40.5742C376.883 37.8906 379.566 33.6484 382.613 29.0898H385.672V40.6094H388.074V42.4961H385.672V46H383.609ZM377.527 40.4805V40.6211H383.621V31.0469H383.48C381.746 33.5664 379.543 37.0586 377.527 40.4805ZM394.789 38.207V36.4023H396.84C398.762 36.4023 400.121 35.1602 400.121 33.4023C400.121 31.6797 398.82 30.5312 396.875 30.5312C394.93 30.5312 393.652 31.6094 393.477 33.4258H391.426C391.637 30.4961 393.734 28.6914 396.957 28.6914C399.91 28.6914 402.266 30.6602 402.266 33.1211C402.266 35.1367 401.152 36.6133 399.301 37.0586V37.2461C401.598 37.5391 402.992 39.1328 402.992 41.4414C402.992 44.2305 400.379 46.3984 397.039 46.3984C393.605 46.3984 391.238 44.4883 391.086 41.5938H393.125C393.312 43.3984 394.836 44.5586 397.016 44.5586C399.242 44.5586 400.824 43.2344 400.824 41.3828C400.824 39.4258 399.336 38.207 396.934 38.207H394.789ZM412.637 32.8633C412.637 35.2539 411.148 36.9414 409.039 36.9414C406.93 36.9414 405.43 35.2539 405.43 32.8633C405.43 30.4844 406.93 28.7969 409.039 28.7969C411.148 28.7969 412.637 30.4727 412.637 32.8633ZM409.039 35.4414C410.07 35.4414 410.762 34.4102 410.762 32.8633C410.762 31.2812 410.094 30.2969 409.039 30.2969C407.984 30.2969 407.305 31.3047 407.305 32.8633C407.305 34.4219 407.996 35.4414 409.039 35.4414ZM408.852 46H406.695L413.152 37.1875L419.082 29.0898H421.215L414.652 38.0664L408.852 46ZM422.422 42.2148C422.422 44.6055 420.934 46.293 418.824 46.293C416.715 46.293 415.215 44.6055 415.215 42.2148C415.215 39.8359 416.715 38.1484 418.824 38.1484C420.934 38.1484 422.422 39.8242 422.422 42.2148ZM418.824 44.793C419.855 44.793 420.547 43.7617 420.547 42.2148C420.547 40.6328 419.879 39.6484 418.824 39.6484C417.77 39.6484 417.09 40.6562 417.09 42.2148C417.09 43.7734 417.781 44.793 418.824 44.793Z" fill="white"/>
<rect x="465" y="25" width="30" height="10" rx="5" stroke="white" stroke-width="2"/>
<path d="M490 39C493.314 39 496 41.6863 496 45C496 48.3137 493.314 51 490 51H470C466.686 51 464 48.3137 464 45C464 41.6863 466.686 39 470 39H490ZM484 41C481.791 41 480 42.7909 480 45C480 47.2091 481.791 49 484 49H490C492.209 49 494 47.2091 494 45C494 42.7909 492.209 41 490 41H484Z" fill="white"/>
<rect x="467" y="27" width="14" height="6" rx="3" fill="white"/>
<path d="M547.543 32.6523L543.652 46H541.66L537.055 29.0898H539.258L542.621 42.8359H542.762L546.547 29.0898H548.68L552.465 42.8359H552.605L555.969 29.0898H558.172L553.566 46H551.574L547.684 32.6523H547.543ZM564.992 34.9258C562.977 34.9258 561.57 36.4023 561.418 38.6406H568.379C568.332 36.4023 566.996 34.9258 564.992 34.9258ZM568.32 42.7305H570.336C569.727 44.8984 567.781 46.2227 565.016 46.2227C561.512 46.2227 559.32 43.6914 559.32 39.6953C559.32 35.7227 561.547 33.1445 565.016 33.1445C568.426 33.1445 570.5 35.5703 570.5 39.4961V40.2695H561.418V40.3633C561.523 42.8594 562.918 44.4414 565.062 44.4414C566.691 44.4414 567.793 43.8438 568.32 42.7305ZM578.34 46.2227C575.105 46.2227 573.031 43.6562 573.031 39.6836C573.031 35.7227 575.129 33.1445 578.34 33.1445C580.098 33.1445 581.586 33.9766 582.301 35.3594H582.477V28.3516H584.492V46H582.57V43.9844H582.383C581.586 45.3906 580.086 46.2227 578.34 46.2227ZM578.809 34.9609C576.512 34.9609 575.117 36.7422 575.117 39.6836C575.117 42.6367 576.5 44.4062 578.809 44.4062C581.105 44.4062 582.523 42.6016 582.523 39.6836C582.523 36.7891 581.094 34.9609 578.809 34.9609ZM588.113 36.8242C588.113 34.7266 590.141 33.1445 592.824 33.1445C595.473 33.1445 597.312 34.457 597.582 36.5312H595.59C595.32 35.5234 594.336 34.8555 592.812 34.8555C591.312 34.8555 590.141 35.6172 590.141 36.7422C590.141 37.6094 590.844 38.1484 592.332 38.5117L594.277 38.9805C596.656 39.5547 597.805 40.5859 597.805 42.4023C597.805 44.6641 595.613 46.2227 592.742 46.2227C589.93 46.2227 587.996 44.875 587.773 42.7773H589.848C590.188 43.8438 591.195 44.5234 592.812 44.5234C594.512 44.5234 595.73 43.7148 595.73 42.5547C595.73 41.6875 595.074 41.1016 593.727 40.7734L591.559 40.2461C589.191 39.6719 588.113 38.6523 588.113 36.8242ZM618.992 46L617.293 41.1602H610.566L608.867 46H606.652L612.887 29.0898H614.973L621.207 46H618.992ZM613.836 31.8203L611.188 39.3672H616.672L614.023 31.8203H613.836ZM630.066 33.1445C633.289 33.1445 635.375 35.7109 635.375 39.6836C635.375 43.6328 633.277 46.2227 630.066 46.2227C628.262 46.2227 626.809 45.4375 626.117 44.1016H625.93V50.2188H623.914V33.3672H625.836V35.4766H626.023C626.832 34.0234 628.344 33.1445 630.066 33.1445ZM629.586 44.4062C631.906 44.4062 633.289 42.6367 633.289 39.6836C633.289 36.7305 631.906 34.9609 629.598 34.9609C627.312 34.9609 625.871 36.7773 625.871 39.6836C625.871 42.5781 627.312 44.4062 629.586 44.4062ZM638.539 46V33.3672H640.461V35.2422H640.648C641.023 34.0117 642.477 33.1445 644.152 33.1445C644.48 33.1445 644.902 33.168 645.16 33.2031V35.2188C644.996 35.1719 644.27 35.1016 643.871 35.1016C641.949 35.1016 640.555 36.3906 640.555 38.1719V46H638.539ZM647.727 46V33.3672H649.742V46H647.727ZM648.734 30.8008C647.961 30.8008 647.328 30.168 647.328 29.3945C647.328 28.6211 647.961 27.9883 648.734 27.9883C649.508 27.9883 650.141 28.6211 650.141 29.3945C650.141 30.168 649.508 30.8008 648.734 30.8008ZM653.703 46V28.3516H655.719V46H653.703ZM670.438 46V31.4336H670.25L665.949 34.5508V32.3242L670.449 29.0898H672.547V46H670.438ZM689.773 46.3867C686.902 46.3867 684.77 44.6875 684.23 41.9688H686.398C686.855 43.5508 688.133 44.5117 689.797 44.5117C692.551 44.5117 694.109 42.0742 694.227 37.5742H694.133H694.086H694.039C693.207 39.2148 691.555 40.1758 689.539 40.1758C686.316 40.1758 683.984 37.7969 683.984 34.5156C683.984 31.1172 686.445 28.6914 689.914 28.6914C692.445 28.6914 694.402 30.0391 695.457 32.5352C696.008 33.8242 696.277 35.3828 696.277 37.2461C696.277 43.0586 693.91 46.3867 689.773 46.3867ZM689.914 38.3477C692.152 38.3477 693.758 36.7539 693.758 34.5156C693.758 32.2539 692.105 30.543 689.938 30.543C687.77 30.543 686.117 32.2305 686.117 34.4453C686.117 36.7539 687.676 38.3477 689.914 38.3477ZM701.352 44.0664C700.52 44.0664 699.828 43.375 699.828 42.543C699.828 41.6992 700.52 41.0195 701.352 41.0195C702.195 41.0195 702.875 41.6992 702.875 42.543C702.875 43.375 702.195 44.0664 701.352 44.0664ZM701.352 35.0547C700.52 35.0547 699.828 34.3633 699.828 33.5312C699.828 32.6875 700.52 32.0078 701.352 32.0078C702.195 32.0078 702.875 32.6875 702.875 33.5312C702.875 34.3633 702.195 35.0547 701.352 35.0547ZM714.523 46V42.4961H706.285V40.5742C707.797 37.8906 710.48 33.6484 713.527 29.0898H716.586V40.6094H718.988V42.4961H716.586V46H714.523ZM708.441 40.4805V40.6211H714.535V31.0469H714.395C712.66 33.5664 710.457 37.0586 708.441 40.4805ZM726.055 46V31.4336H725.867L721.566 34.5508V32.3242L726.066 29.0898H728.164V46H726.055ZM751.25 46L749.551 41.1602H742.824L741.125 46H738.91L745.145 29.0898H747.23L753.465 46H751.25ZM746.094 31.8203L743.445 39.3672H748.93L746.281 31.8203H746.094ZM773.094 46H771.125V33.0859H770.984L765.652 45.8828H763.871L758.539 33.0859H758.398V46H756.43V29.0898H758.879L764.668 43.082H764.855L770.645 29.0898H773.094V46Z" fill="white"/>
<defs>
</defs>
</svg>
