<svg width="1080" height="1080" viewBox="0 0 1080 1080" fill="none" xmlns="http://www.w3.org/2000/svg">
<path d="M903.081 905.648C965.78 905.648 1012.46 860.296 1012.46 798.946C1012.46 736.249 967.105 692.246 903.081 692.246C840.411 692.246 795.045 736.249 795.045 798.946C795.045 861.621 840.397 905.648 903.081 905.648Z" fill="white"/>
<path d="M374.943 913.639C551.197 913.639 664.419 824.795 664.419 684.367C664.419 575.461 594.197 499.508 469.524 470.845L393.584 452.217L382.493 449.652C319.742 434.645 288.968 417.982 288.968 370.545C288.968 328.987 321.934 306.057 377.816 306.057C555.473 306.057 619.867 370.545 619.867 370.545V230.839L617.582 228.593C604.727 216.674 536.471 161.326 376.387 161.326C207.296 161.326 101.25 247.288 101.25 381.984C101.25 488.951 170.362 562.739 295.008 593.848L373.514 612.689C439.432 628.457 472.397 645.655 472.397 695.805C472.397 741.665 436.572 767.455 373.514 767.455C191.889 767.469 101.25 670.429 101.25 670.429V837.97L103.575 840.428C116.684 853.446 187.439 913.639 374.943 913.639Z" fill="white"/>
</svg>
