<?xml version="1.0" encoding="UTF-8"?>
<!--Generator: Apple Native CoreSVG 341-->
<!DOCTYPE svg
PUBLIC "-//W3C//DTD SVG 1.1//EN"
       "http://www.w3.org/Graphics/SVG/1.1/DTD/svg11.dtd">
<svg version="1.1" xmlns="http://www.w3.org/2000/svg" xmlns:xlink="http://www.w3.org/1999/xlink" viewBox="0 0 3300 2200">
 <!--glyph: "10199A", point size: 100.0, font version: "21.1d1e1", template writer version: "138.0.0"-->
 <style>.defaults {-sfsymbols-wiggle-style:linear;-sfsymbols-wiggle-angle:-90;-sfsymbols-draw-reverses-motion-groups:false}

.monochrome-0 {-sfsymbols-motion-group:1;-sfsymbols-layer-tags:square.and.arrow.up}
.monochrome-1 {opacity:0.0;-sfsymbols-clear-behind:true;-sfsymbols-motion-group:0;-sfsymbols-layer-tags:square.and.arrow.up}
.monochrome-2 {-sfsymbols-motion-group:0;-sfsymbols-layer-tags:square.and.arrow.up;-sfsymbols-clipstroke-attachments:1 4 2 1 0 0}

.multicolor-0:tintColor {-sfsymbols-motion-group:1;-sfsymbols-layer-tags:square.and.arrow.up}
.multicolor-1:tintColor {opacity:0.0;-sfsymbols-clear-behind:true;-sfsymbols-motion-group:0;-sfsymbols-layer-tags:square.and.arrow.up}
.multicolor-2:tintColor {-sfsymbols-motion-group:0;-sfsymbols-layer-tags:square.and.arrow.up;-sfsymbols-clipstroke-attachments:1 4 2 1 0 0}

.hierarchical-0:secondary {-sfsymbols-motion-group:1;-sfsymbols-layer-tags:square.and.arrow.up}
.hierarchical-1:primary {opacity:0.0;-sfsymbols-clear-behind:true;-sfsymbols-motion-group:0;-sfsymbols-layer-tags:square.and.arrow.up}
.hierarchical-2:primary {-sfsymbols-motion-group:0;-sfsymbols-layer-tags:square.and.arrow.up;-sfsymbols-clipstroke-attachments:1 4 2 1 0 0}

.SFSymbolsPreviewWireframe {fill:none;opacity:1.0;stroke:black;stroke-width:0.5}
</style>
 <g id="Notes">
  <rect height="2200" id="artboard" style="fill:white;opacity:1" width="3300" x="0" y="0"/>
  <line style="fill:none;stroke:black;opacity:1;stroke-width:0.5;" x1="263" x2="3036" y1="292" y2="292"/>
  <text style="stroke:none;fill:black;font-family:sans-serif;font-size:13;font-weight:bold;" transform="matrix(1 0 0 1 263 322)">Weight/Scale Variations</text>
  <text style="stroke:none;fill:black;font-family:sans-serif;font-size:13;text-anchor:middle;" transform="matrix(1 0 0 1 559.711 322)">Ultralight</text>
  <text style="stroke:none;fill:black;font-family:sans-serif;font-size:13;text-anchor:middle;" transform="matrix(1 0 0 1 856.422 322)">Thin</text>
  <text style="stroke:none;fill:black;font-family:sans-serif;font-size:13;text-anchor:middle;" transform="matrix(1 0 0 1 1153.13 322)">Light</text>
  <text style="stroke:none;fill:black;font-family:sans-serif;font-size:13;text-anchor:middle;" transform="matrix(1 0 0 1 1449.84 322)">Regular</text>
  <text style="stroke:none;fill:black;font-family:sans-serif;font-size:13;text-anchor:middle;" transform="matrix(1 0 0 1 1746.56 322)">Medium</text>
  <text style="stroke:none;fill:black;font-family:sans-serif;font-size:13;text-anchor:middle;" transform="matrix(1 0 0 1 2043.27 322)">Semibold</text>
  <text style="stroke:none;fill:black;font-family:sans-serif;font-size:13;text-anchor:middle;" transform="matrix(1 0 0 1 2339.98 322)">Bold</text>
  <text style="stroke:none;fill:black;font-family:sans-serif;font-size:13;text-anchor:middle;" transform="matrix(1 0 0 1 2636.69 322)">Heavy</text>
  <text style="stroke:none;fill:black;font-family:sans-serif;font-size:13;text-anchor:middle;" transform="matrix(1 0 0 1 2933.4 322)">Black</text>
  <line style="fill:none;stroke:black;opacity:1;stroke-width:0.5;" x1="263" x2="3036" y1="1903" y2="1903"/>
  <g transform="matrix(0.2 0 0 0.2 263 1933)">
   <path d="m46.2402 4.15039c21.7773 0 39.4531-17.627 39.4531-39.4043s-17.6758-39.4043-39.4531-39.4043c-21.7285 0-39.4043 17.627-39.4043 39.4043s17.6758 39.4043 39.4043 39.4043Zm0-7.42188c-17.6758 0-31.9336-14.3066-31.9336-31.9824s14.2578-31.9824 31.9336-31.9824 31.9824 14.3066 31.9824 31.9824-14.3066 31.9824-31.9824 31.9824Zm3.61328-17.7734v-28.4668c0-2.24609-1.46484-3.75977-3.71094-3.75977-2.14844 0-3.61328 1.51367-3.61328 3.75977v28.4668c0 2.19727 1.46484 3.71094 3.61328 3.71094 2.24609 0 3.71094-1.51367 3.71094-3.71094Zm-17.8223-10.5957h28.418c2.19727 0 3.71094-1.46484 3.71094-3.61328 0-2.19727-1.51367-3.71094-3.71094-3.71094h-28.418c-2.24609 0-3.75977 1.51367-3.75977 3.71094 0 2.14844 1.51367 3.61328 3.75977 3.61328Z"/>
  </g>
  <g transform="matrix(0.2 0 0 0.2 281.506 1933)">
   <path d="m58.5449 14.5508c27.4902 0 49.8047-22.3145 49.8047-49.8047s-22.3145-49.8047-49.8047-49.8047-49.8047 22.3145-49.8047 49.8047 22.3145 49.8047 49.8047 49.8047Zm0-8.30078c-22.9492 0-41.5039-18.5547-41.5039-41.5039s18.5547-41.5039 41.5039-41.5039 41.5039 18.5547 41.5039 41.5039-18.5547 41.5039-41.5039 41.5039Zm4.05273-23.0957v-36.9141c0-2.49023-1.70898-4.19922-4.15039-4.19922-2.39258 0-4.05273 1.70898-4.05273 4.19922v36.9141c0 2.44141 1.66016 4.15039 4.05273 4.15039 2.44141 0 4.15039-1.66016 4.15039-4.15039Zm-22.5586-14.4043h36.9629c2.44141 0 4.15039-1.61133 4.15039-4.00391 0-2.44141-1.70898-4.15039-4.15039-4.15039h-36.9629c-2.49023 0-4.15039 1.70898-4.15039 4.15039 0 2.39258 1.66016 4.00391 4.15039 4.00391Z"/>
  </g>
  <g transform="matrix(0.2 0 0 0.2 304.924 1933)">
   <path d="m74.8535 28.3203c35.1074 0 63.623-28.4668 63.623-63.5742s-28.5156-63.623-63.623-63.623-63.5742 28.5156-63.5742 63.623 28.4668 63.5742 63.5742 63.5742Zm0-9.08203c-30.127 0-54.4922-24.3652-54.4922-54.4922s24.3652-54.4922 54.4922-54.4922 54.4922 24.3652 54.4922 54.4922-24.3652 54.4922-54.4922 54.4922Zm4.44336-30.3223v-48.4863c0-2.73438-1.85547-4.63867-4.54102-4.63867-2.58789 0-4.44336 1.9043-4.44336 4.63867v48.4863c0 2.68555 1.85547 4.58984 4.44336 4.58984 2.68555 0 4.54102-1.85547 4.54102-4.58984Zm-28.7109-19.7754h48.4863c2.68555 0 4.58984-1.80664 4.58984-4.39453 0-2.73438-1.85547-4.58984-4.58984-4.58984h-48.4863c-2.73438 0-4.58984 1.85547-4.58984 4.58984 0 2.58789 1.85547 4.39453 4.58984 4.39453Z"/>
  </g>
  <text style="stroke:none;fill:black;font-family:sans-serif;font-size:13;font-weight:bold;" transform="matrix(1 0 0 1 263 1953)">Design Variations</text>
  <text style="stroke:none;fill:black;font-family:sans-serif;font-size:13;" transform="matrix(1 0 0 1 263 1971)">Symbols are supported in up to nine weights and three scales.</text>
  <text style="stroke:none;fill:black;font-family:sans-serif;font-size:13;" transform="matrix(1 0 0 1 263 1989)">For optimal layout with text and other symbols, vertically align</text>
  <text style="stroke:none;fill:black;font-family:sans-serif;font-size:13;" transform="matrix(1 0 0 1 263 2007)">symbols with the adjacent text.</text>
  <line style="fill:none;stroke:#00AEEF;stroke-width:0.5;opacity:1.0;" x1="776" x2="776" y1="1919" y2="1933"/>
  <g transform="matrix(0.2 0 0 0.2 776 1933)">
   <path d="m16.5527 0.78125c2.58789 0 3.85742-0.976562 4.78516-3.71094l20.5566-57.5195h0.244141l20.6055 57.5195c0.927734 2.73438 2.19727 3.71094 4.73633 3.71094 2.58789 0 4.24805-1.5625 4.24805-4.00391 0-0.830078-0.146484-1.61133-0.537109-2.63672l-22.9004-60.9863c-1.12305-2.97852-3.125-4.49219-6.25-4.49219-3.02734 0-5.07812 1.46484-6.15234 4.44336l-22.9004 61.084c-0.390625 1.02539-0.537109 1.80664-0.537109 2.63672 0 2.44141 1.5625 3.95508 4.10156 3.95508Zm10.2051-20.9473h30.6641c2.00195 0 3.66211-1.66016 3.66211-3.66211 0-2.05078-1.66016-3.66211-3.66211-3.66211h-30.6641c-2.00195 0-3.66211 1.61133-3.66211 3.66211 0 2.00195 1.66016 3.66211 3.66211 3.66211Z"/>
  </g>
  <line style="fill:none;stroke:#00AEEF;stroke-width:0.5;opacity:1.0;" x1="792.836" x2="792.836" y1="1919" y2="1933"/>
  <text style="stroke:none;fill:black;font-family:sans-serif;font-size:13;font-weight:bold;" transform="matrix(1 0 0 1 776 1953)">Margins</text>
  <text style="stroke:none;fill:black;font-family:sans-serif;font-size:13;" transform="matrix(1 0 0 1 776 1971)">Leading and trailing margins on the left and right side of each symbol</text>
  <text style="stroke:none;fill:black;font-family:sans-serif;font-size:13;" transform="matrix(1 0 0 1 776 1989)">can be adjusted by modifying the x-location of the margin guidelines.</text>
  <text style="stroke:none;fill:black;font-family:sans-serif;font-size:13;" transform="matrix(1 0 0 1 776 2007)">Modifications are automatically applied proportionally to all</text>
  <text style="stroke:none;fill:black;font-family:sans-serif;font-size:13;" transform="matrix(1 0 0 1 776 2025)">scales and weights.</text>
  <g transform="matrix(0.2 0 0 0.2 1289 1933)">
   <path d="m14.209 13.1348 7.86133 7.86133c4.29688 4.39453 9.32617 4.10156 13.8672-1.02539l60.6934-68.2129-4.88281-4.88281-60.2539 67.6758c-1.80664 1.95312-3.4668 2.44141-5.81055 0.0976562l-5.17578-5.12695c-2.29492-2.29492-1.80664-3.95508 0.195312-5.81055l67.4805-62.1582-4.88281-4.83398-68.0664 62.5977c-4.98047 4.58984-5.32227 9.47266-1.02539 13.8184Zm44.873-97.4609c-2.05078 2.00195-2.24609 4.88281-1.07422 6.78711 1.12305 1.80664 3.4668 3.02734 6.5918 2.24609 5.85938-1.66016 12.5977-2.39258 18.8965 0.927734l-2.68555 7.12891c-1.61133 4.00391-0.732422 6.88477 1.70898 9.42383l10.2539 10.3027c2.34375 2.39258 4.54102 2.44141 7.08008 1.95312l4.44336-0.732422 2.58789 2.53906-0.195312 2.24609c-0.0976562 2.29492 0.537109 4.29688 2.7832 6.49414l3.36914 3.32031c2.29492 2.29492 5.51758 2.49023 7.8125 0.195312l12.9883-13.0371c2.29492-2.34375 2.14844-5.37109-0.195312-7.66602l-3.41797-3.41797c-2.19727-2.19727-4.05273-3.02734-6.34766-2.88086l-2.34375 0.244141-2.44141-2.44141 1.02539-4.6875c0.634766-2.73438-0.244141-4.98047-2.88086-7.61719l-11.2793-11.1816c-12.9395-12.8418-35.5957-11.0352-46.6797-0.146484Zm7.08008 2.05078c8.78906-6.39648 25.9766-5.66406 33.6914 1.95312l12.3047 12.207c1.02539 1.02539 1.2207 1.80664 0.927734 3.32031l-1.46484 6.64062 6.73828 6.68945 4.39453-0.244141c1.12305-0.0488281 1.51367 0.0488281 2.34375 0.878906l2.53906 2.49023-10.8398 10.8398-2.49023-2.49023c-0.830078-0.878906-0.976562-1.2207-0.927734-2.39258l0.292969-4.3457-6.68945-6.73828-6.83594 1.17188c-1.41602 0.292969-2.05078 0.195312-3.17383-0.878906l-8.93555-8.88672c-1.07422-1.02539-1.17188-1.70898-0.488281-3.36914l4.58984-11.4746c-6.10352-6.34766-17.041-7.51953-25.5859-4.58984-0.683594 0.244141-0.927734-0.390625-0.390625-0.78125Z"/>
  </g>
  <text style="stroke:none;fill:black;font-family:sans-serif;font-size:13;font-weight:bold;" transform="matrix(1 0 0 1 1289 1953)">Exporting</text>
  <text style="stroke:none;fill:black;font-family:sans-serif;font-size:13;" transform="matrix(1 0 0 1 1289 1971)">Symbols should be outlined when exporting to ensure the</text>
  <text style="stroke:none;fill:black;font-family:sans-serif;font-size:13;" transform="matrix(1 0 0 1 1289 1989)">design is preserved when submitting to Xcode.</text>
  <text id="template-version" style="stroke:none;fill:black;font-family:sans-serif;font-size:13;text-anchor:end;" transform="matrix(1 0 0 1 3036 1933)">Template v.7.0</text>
  <text style="stroke:none;fill:black;font-family:sans-serif;font-size:13;text-anchor:end;" transform="matrix(1 0 0 1 3036 1951)">Requires Xcode 26 or greater</text>
  <text id="descriptive-name" style="stroke:none;fill:black;font-family:sans-serif;font-size:13;text-anchor:end;" transform="matrix(1 0 0 1 3036 1969)">Generated from square.and.arrow.up</text>
  <text style="stroke:none;fill:black;font-family:sans-serif;font-size:13;text-anchor:end;" transform="matrix(1 0 0 1 3036 1987)">Typeset at 100.0 points</text>
  <text style="stroke:none;fill:black;font-family:sans-serif;font-size:13;" transform="matrix(1 0 0 1 263 726)">Small</text>
  <text style="stroke:none;fill:black;font-family:sans-serif;font-size:13;" transform="matrix(1 0 0 1 263 1156)">Medium</text>
  <text style="stroke:none;fill:black;font-family:sans-serif;font-size:13;" transform="matrix(1 0 0 1 263 1586)">Large</text>
 </g>
 <g id="Guides">
  <g id="H-reference" style="fill:#27AAE1;stroke:none;" transform="matrix(1 0 0 1 339 696)">
   <path d="M0.993654 0L3.63775 0L29.3281-67.1323L30.0303-67.1323L30.0303-70.459L28.1226-70.459ZM11.6885-24.4799L46.9815-24.4799L46.2315-26.7285L12.4385-26.7285ZM55.1196 0L57.7637 0L30.6382-70.459L29.4326-70.459L29.4326-67.1323Z"/>
  </g>
  <line id="Baseline-S" style="fill:none;stroke:#27AAE1;opacity:1;stroke-width:0.5;" x1="263" x2="3036" y1="696" y2="696"/>
  <line id="Capline-S" style="fill:none;stroke:#27AAE1;opacity:1;stroke-width:0.5;" x1="263" x2="3036" y1="625.541" y2="625.541"/>
  <g id="H-reference" style="fill:#27AAE1;stroke:none;" transform="matrix(1 0 0 1 339 1126)">
   <path d="M0.993654 0L3.63775 0L29.3281-67.1323L30.0303-67.1323L30.0303-70.459L28.1226-70.459ZM11.6885-24.4799L46.9815-24.4799L46.2315-26.7285L12.4385-26.7285ZM55.1196 0L57.7637 0L30.6382-70.459L29.4326-70.459L29.4326-67.1323Z"/>
  </g>
  <line id="Baseline-M" style="fill:none;stroke:#27AAE1;opacity:1;stroke-width:0.5;" x1="263" x2="3036" y1="1126" y2="1126"/>
  <line id="Capline-M" style="fill:none;stroke:#27AAE1;opacity:1;stroke-width:0.5;" x1="263" x2="3036" y1="1055.54" y2="1055.54"/>
  <g id="H-reference" style="fill:#27AAE1;stroke:none;" transform="matrix(1 0 0 1 339 1556)">
   <path d="M0.993654 0L3.63775 0L29.3281-67.1323L30.0303-67.1323L30.0303-70.459L28.1226-70.459ZM11.6885-24.4799L46.9815-24.4799L46.2315-26.7285L12.4385-26.7285ZM55.1196 0L57.7637 0L30.6382-70.459L29.4326-70.459L29.4326-67.1323Z"/>
  </g>
  <line id="Baseline-L" style="fill:none;stroke:#27AAE1;opacity:1;stroke-width:0.5;" x1="263" x2="3036" y1="1556" y2="1556"/>
  <line id="Capline-L" style="fill:none;stroke:#27AAE1;opacity:1;stroke-width:0.5;" x1="263" x2="3036" y1="1485.54" y2="1485.54"/>
  <line id="right-margin-Black-S" style="fill:none;stroke:#00AEEF;stroke-width:0.5;opacity:1.0;" x1="2980.81" x2="2980.81" y1="600.785" y2="720.121"/>
  <line id="left-margin-Black-S" style="fill:none;stroke:#00AEEF;stroke-width:0.5;opacity:1.0;" x1="2885.99" x2="2885.99" y1="600.785" y2="720.121"/>
  <line id="right-margin-Regular-S" style="fill:none;stroke:#00AEEF;stroke-width:0.5;opacity:1.0;" x1="1493.96" x2="1493.96" y1="600.785" y2="720.121"/>
  <line id="left-margin-Regular-S" style="fill:none;stroke:#00AEEF;stroke-width:0.5;opacity:1.0;" x1="1405.73" x2="1405.73" y1="600.785" y2="720.121"/>
  <line id="right-margin-Ultralight-S" style="fill:none;stroke:#00AEEF;stroke-width:0.5;opacity:1.0;" x1="601.625" x2="601.625" y1="600.785" y2="720.121"/>
  <line id="left-margin-Ultralight-S" style="fill:none;stroke:#00AEEF;stroke-width:0.5;opacity:1.0;" x1="517.797" x2="517.797" y1="600.785" y2="720.121"/>
 </g>
 <g id="Symbols">
  <g id="Black-S" transform="matrix(1 0 0 1 2885.99 696)">
   <path class="monochrome-0 multicolor-0:tintColor hierarchical-0:secondary SFSymbolsPreviewWireframe" d="M28.2227 10.0098L66.6016 10.0098C78.418 10.0098 85.0586 3.36914 85.0586-8.44727L85.0586-38.0859C85.0586-49.9023 78.418-56.543 66.6016-56.543L28.2227-56.543C16.4062-56.543 9.76562-49.9023 9.76562-38.0859L9.76562-8.44727C9.76562 3.36914 16.4062 10.0098 28.2227 10.0098ZM29.3945-4.15039C25.8789-4.15039 23.9258-6.15234 23.9258-9.66797L23.9258-36.8652C23.9258-40.3809 25.8789-42.3828 29.3945-42.3828L65.4297-42.3828C68.9453-42.3828 70.8984-40.3809 70.8984-36.8652L70.8984-9.66797C70.8984-6.15234 68.9453-4.15039 65.4297-4.15039Z" data-clipstroke-keyframes="0 4 0 0.57556134 1.3882456 0 1 0.57556134 1.3882456"/>
   <path class="monochrome-1 multicolor-1:tintColor hierarchical-1:primary SFSymbolsPreviewWireframe" d="M60.7422-31.0547L60.7422-78.4668C60.7422-85.6934 54.8828-91.748 47.4121-91.748C39.9414-91.748 34.082-85.6934 34.082-78.4668L34.082-31.0547C34.082-23.8281 39.9414-17.7734 47.4121-17.7734C54.8828-17.7734 60.7422-23.8281 60.7422-31.0547Z"/>
   <path class="monochrome-2 multicolor-2:tintColor hierarchical-2:primary SFSymbolsPreviewWireframe" d="M33.4961-63.0371C35.0098-63.0371 36.3281-63.6719 37.3047-64.6973L40.5762-68.1641L47.4121-80.0293L54.248-68.1641L57.5195-64.6973C58.4961-63.6719 59.8145-63.0371 61.3281-63.0371C63.8184-63.0371 66.3574-64.9902 66.3574-67.8711C66.3574-69.3359 65.8203-70.3613 64.8438-71.3379L52.3926-83.252C50.7812-84.8145 49.0723-85.4004 47.4121-85.4004C45.752-85.4004 44.043-84.8145 42.4316-83.252L29.9805-71.3379C29.0039-70.3613 28.4668-69.3359 28.4668-67.8711C28.4668-64.9902 31.0059-63.0371 33.4961-63.0371ZM47.4121-25.0977C50.8301-25.0977 53.418-27.8809 53.418-31.0547L53.418-66.0156L52.002-80.3223C51.7578-82.8613 49.9512-84.9121 47.4121-84.9121C44.873-84.9121 43.0664-82.8613 42.8223-80.3223L41.4062-66.0156L41.4062-31.0547C41.4062-27.8809 43.9941-25.0977 47.4121-25.0977Z" data-clipstroke-keyframes="0 0 0 1.0718193 1.9281807 0 0.71015346 1.3370891 1.6629114 0 1 1.4453578 1.5546422"/>
  </g>
  <g id="Regular-S" transform="matrix(1 0 0 1 1405.73 696)">
   <path class="monochrome-0 multicolor-0:tintColor hierarchical-0:secondary SFSymbolsPreviewWireframe" d="M25.9766 4.44336L62.2559 4.44336C72.6562 4.44336 78.4668-1.36719 78.4668-11.7676L78.4668-41.4062C78.4668-51.8066 72.6562-57.5684 62.2559-57.5684L25.9766-57.5684C15.5762-57.5684 9.76562-51.8066 9.76562-41.4062L9.76562-11.7676C9.76562-1.36719 15.5762 4.44336 25.9766 4.44336ZM25.9766-2.58789C20.1172-2.58789 16.7969-5.9082 16.7969-11.7676L16.7969-41.4062C16.7969-47.2168 20.1172-50.5371 25.9766-50.5371L62.2559-50.5371C68.1152-50.5371 71.4355-47.2168 71.4355-41.4062L71.4355-11.7676C71.4355-5.9082 68.1152-2.58789 62.2559-2.58789Z" data-clipstroke-keyframes="0 4 0 0.57707906 1.4045868 0 1 0.57707906 1.4045868"/>
   <path class="monochrome-1 multicolor-1:tintColor hierarchical-1:primary SFSymbolsPreviewWireframe" d="M55.2246-29.1992L55.2246-77.3926C55.2246-83.4473 50.1953-88.4766 44.0918-88.4766C38.0371-88.4766 32.959-83.4473 32.959-77.3926L32.959-29.1992C32.959-23.1445 38.0371-18.1641 44.0918-18.1641C50.1953-18.1641 55.2246-23.1445 55.2246-29.1992Z"/>
   <path class="monochrome-2 multicolor-2:tintColor hierarchical-2:primary SFSymbolsPreviewWireframe" d="M31.1523-64.1113C31.9824-64.1113 32.959-64.4531 33.5449-65.1367L38.9648-70.9961L44.0918-76.5137L49.2676-70.9961L54.6387-65.1367C55.2734-64.4531 56.1523-64.1113 57.0312-64.1113C58.8379-64.1113 60.2051-65.3809 60.2051-67.1387C60.2051-68.1152 59.8145-68.7988 59.1797-69.4824L46.6309-81.4453C45.752-82.3242 45.0195-82.6172 44.0918-82.6172C43.2129-82.6172 42.4805-82.3242 41.5527-81.4453L29.0527-69.4824C28.3691-68.7988 28.0273-68.1152 28.0273-67.1387C28.0273-65.3809 29.3457-64.1113 31.1523-64.1113ZM44.0918-25.8301C45.9961-25.8301 47.6074-27.3926 47.6074-29.1992L47.6074-67.2852L47.0215-78.3691C46.9238-79.9805 45.7031-81.2988 44.0918-81.2988C42.5293-81.2988 41.3086-79.9805 41.2109-78.3691L40.625-67.2852L40.625-29.1992C40.625-27.3926 42.2363-25.8301 44.0918-25.8301Z" data-clipstroke-keyframes="0 0 0 1.0462184 1.9541478 0 0.77555996 1.3681583 1.6322079 0 1 1.4613247 1.5390415"/>
  </g>
  <g id="Ultralight-S" transform="matrix(1 0 0 1 517.797 696)">
   <path class="monochrome-0 multicolor-0:tintColor hierarchical-0:secondary SFSymbolsPreviewWireframe" d="M24.8413 2.71779L58.9409 2.71779C68.6602 2.71779 74.062-2.72948 74.062-12.4033L74.062-41.043C74.062-50.7168 68.6602-56.1152 58.9409-56.1152L24.8413-56.1152C15.1675-56.1152 9.76562-50.7168 9.76562-41.043L9.76562-12.4033C9.76562-2.72948 15.1675 2.71779 24.8413 2.71779ZM24.7959 0.499976C16.5752 0.499976 11.9834-4.09181 11.9834-12.3579L11.9834-41.0884C11.9834-49.3056 16.5752-53.9428 24.7959-53.9428L58.9409-53.9428C67.2524-53.9428 71.8442-49.3056 71.8442-41.0884L71.8442-12.3579C71.8442-4.09181 67.2524 0.499976 58.9409 0.499976Z" data-clipstroke-keyframes="0 4 0 0.5770102 1.4174613 0 1 0.5770102 1.4178607"/>
   <path class="monochrome-1 multicolor-1:tintColor hierarchical-1:primary SFSymbolsPreviewWireframe" d="M48.0499-26.8833L48.0499-78.6641C48.0499-81.9942 45.2911-84.753 41.9121-84.753C38.5366-84.753 35.7744-81.9942 35.7744-78.6641L35.7744-26.8833C35.7744-23.5078 38.5366-20.7524 41.9121-20.7524C45.2911-20.7524 48.0499-23.5078 48.0499-26.8833Z"/>
   <path class="monochrome-2 multicolor-2:tintColor hierarchical-2:primary SFSymbolsPreviewWireframe" d="M28.791-63.2031C29.0762-63.2031 29.3716-63.3179 29.5943-63.5474L37.8296-71.8589L41.9121-75.9688L45.9073-71.8589L54.1846-63.5474C54.4107-63.3179 54.6992-63.2031 54.9878-63.2031C55.4776-63.2031 55.982-63.6553 55.982-64.2324C55.982-64.4825 55.8638-64.7119 55.6377-64.9414L42.6802-77.9033C42.437-78.1465 42.2041-78.2578 41.9121-78.2578C41.6235-78.2578 41.3452-78.1465 41.144-77.9033L28.1445-64.9414C27.915-64.7119 27.8003-64.4825 27.8003-64.2324C27.8003-63.6553 28.2105-63.2031 28.791-63.2031ZM41.9121-25.7847C42.4995-25.7847 43.021-26.2573 43.021-26.8833L43.021-69.6011L42.9346-76.2803C42.9278-76.8018 42.4336-77.3028 41.9121-77.3028C41.3486-77.3028 40.8999-76.8018 40.8931-76.2803L40.8066-69.6011L40.8066-26.8833C40.8066-26.2573 41.3281-25.7847 41.9121-25.7847Z" data-clipstroke-keyframes="0 0 0 1.0172272 1.9828014 0 0.8674411 1.422082 1.5779467 0 1 1.4844456 1.516573"/>
  </g>
 </g>
 <g id="Data">
  <g id="Black-S-draw-attachment-data" data-d="0 1 0 2933.4 615.734"/>
  <g id="Regular-S-draw-attachment-data" data-d="0 1 0 1449.84 617.674"/>
  <g id="Ultralight-S-draw-attachment-data" data-d="0 1 0 559.711 619.811"/>
 </g>
</svg>
